<svg width="375" height="287" viewBox="0 0 375 287" fill="none" xmlns="http://www.w3.org/2000/svg">
<g clip-path="url(#clip0_2887_44081)">
<path d="M247.784 145.105C362.145 149.749 346.382 180.923 346.382 180.923C356.333 184.238 350.889 209.139 350.889 209.139C360.445 217.755 327.97 218.202 327.97 218.202C327.97 218.202 332.952 175.241 294.229 174.807C254.663 174.373 258.446 218.188 258.446 218.188L210.405 217.347" fill="#CB734F"/>
<path d="M244.134 145.992L250.306 148.074L254.249 172.146L237.669 205.116L213.61 219.05L133.08 218.428L135.349 113.199L139.39 112.201L155.819 109.989L178.898 111.03L194.848 112.071L212.494 123.219L236.659 139.962L244.134 145.992Z" fill="#CB734F"/>
<path d="M268.361 209.31C268.361 223.924 280.223 235.749 294.853 235.749C309.483 235.749 321.358 223.924 321.358 209.31C321.358 194.696 309.496 182.857 294.853 182.857C280.237 182.857 268.361 194.696 268.361 209.31ZM280.078 209.31C280.078 201.154 286.694 194.551 294.853 194.551C303.025 194.551 309.641 201.154 309.641 209.31C309.641 217.452 303.025 224.056 294.853 224.056C286.681 224.056 280.078 217.452 280.078 209.31Z" fill="#CB734F"/>
<path d="M296.42 237.105C311.801 237.105 324.269 224.661 324.269 209.311C324.269 193.96 311.801 181.516 296.42 181.516C281.04 181.516 268.571 193.96 268.571 209.311C268.571 224.661 281.04 237.105 296.42 237.105Z" stroke="#3E5B88" stroke-width="4.75247" stroke-miterlimit="10"/>
<path d="M349.038 181.714C344.504 180.583 341.117 176.584 340.919 171.914C340.787 168.889 340.669 165.601 340.669 163.246" stroke="#3E5B87" stroke-width="4.75247" stroke-miterlimit="10"/>
<path d="M242.358 145.303C366.921 147.816 349.339 181.793 349.339 181.793C359.29 185.107 353.846 210.008 353.846 210.008C363.402 218.624 329.029 219.018 329.029 219.018C329.029 219.018 335.909 176.11 297.187 175.676C257.621 175.242 261.403 218.439 261.403 218.439H132.564" stroke="#3E5B88" stroke-width="4.75247" stroke-miterlimit="10"/>
<path d="M243.597 145.759C232.92 137.141 207.542 117.89 194.394 112.775C181.247 107.66 149.361 110.644 135.062 112.775" stroke="#3E5B88" stroke-width="4.78761"/>
<path d="M243.103 145.105H136.633" stroke="#3E5B88" stroke-width="5.38606"/>
<path d="M73.5523 175.337L72.8178 174.986L66.0043 178.902L61.477 182.169L54.3639 186.406L49.2347 192.567L42.5138 207.985L34.8658 219.823L30.1053 225.787L24.752 230.714L22.6748 233.078L35.4796 252.003L43.0817 247.606L59.0669 239.279L66.1958 234.588L70.9201 228.934L73.1401 224.921L76.5451 220.677L82.6886 215.65L92.0601 210.319L96.9135 206.091L99.1458 201.567L98.6239 198.634L96.006 197.052L92.8468 196.585L88.0505 198.342L81.2935 201.644L72.1529 206.719L61.4526 212.234L58.6727 213.596L57.5175 214.396L54.0409 212.628L73.5523 175.337Z" fill="white"/>
<path d="M21.5828 234.423C29.3623 227.687 36.2189 219.923 41.4339 211.031C44.0316 206.608 45.9464 201.937 47.8968 197.214C49.8472 192.49 52.2959 188.194 56.8167 185.357C62.2438 181.954 67.7818 178.706 73.2697 175.383C74.3074 174.763 73.1638 173.263 72.1428 173.876C67.2972 176.805 62.4627 179.74 57.6171 182.67C55.5322 183.932 53.4798 185.181 51.7796 186.945C50.0794 188.708 48.8866 190.686 47.8257 192.802C45.5685 197.287 44.062 202.117 41.7586 206.583C39.3297 211.281 36.4017 215.714 33.096 219.851C29.3132 224.6 25.0552 228.932 20.4605 232.904C19.5566 233.689 20.6722 235.191 21.5876 234.412L21.5828 234.423Z" fill="#454545"/>
<path d="M57.9316 214.561C66.1197 210.386 74.2813 206.144 82.4625 201.952C84.3208 201.001 86.1718 200.034 88.0365 199.099C90.0045 198.114 92.1743 197.037 94.4384 197.275C96.7024 197.513 98.5813 199.203 98.3126 201.694C98.0594 203.988 96.2919 205.845 94.6402 207.304C89.1531 212.16 81.8365 214.412 76.601 219.605C73.4556 222.725 71.653 226.779 69.0715 230.3C66.4895 233.821 62.9139 236.256 59.1446 238.38C49.8305 243.64 40.3226 248.587 30.9025 253.68C29.8449 254.25 30.5442 255.997 31.6067 255.415C40.7824 250.45 49.9911 245.566 59.1176 240.525C62.9002 238.435 66.6523 236.128 69.4879 232.809C72.5884 229.155 74.385 224.569 77.7446 221.106C83.511 215.174 92.1979 213.122 97.7265 206.886C100.134 204.159 101.585 199.523 98.2689 196.833C94.9525 194.142 90.5011 195.76 87.1209 197.478C77.1323 202.534 67.2196 207.731 57.2439 212.819C56.168 213.368 56.8724 215.104 57.9479 214.555L57.9316 214.561Z" fill="#454545"/>
<path d="M87.1672 200.9C86.8368 202.063 86.7134 203.218 87.0455 204.389C87.3424 205.451 88.0777 206.345 88.8974 207.071C89.4501 207.562 90.0649 207.972 90.7059 208.351C91.131 208.599 91.6948 208.647 92.0201 208.201C92.2827 207.838 92.3131 207.159 91.8697 206.89C91.2171 206.505 90.5842 206.075 90.0088 205.574C89.9377 205.517 89.8833 205.453 89.8126 205.396C89.7826 205.37 89.753 205.344 89.7166 205.301C89.639 205.228 89.6622 205.238 89.753 205.344C89.6609 205.305 89.5302 205.101 89.4689 205.02C89.3781 204.914 89.2924 204.796 89.211 204.667C89.1797 204.613 89.1369 204.554 89.1052 204.5C88.968 204.28 89.1519 204.615 89.0919 204.467C89.034 204.348 88.9826 204.245 88.9243 204.125C88.8845 204.027 88.7769 203.832 88.7817 203.726C88.8134 203.875 88.8314 203.896 88.8031 203.803C88.7898 203.77 88.7932 203.731 88.7799 203.698C88.7761 203.642 88.7564 203.593 88.753 203.537C88.7324 203.393 88.7122 203.249 88.7084 203.098C88.7045 203.042 88.7011 202.986 88.6977 202.931C88.687 202.763 88.684 203.155 88.7007 202.892C88.7131 202.734 88.7255 202.576 88.7384 202.419C88.7572 202.277 88.7812 202.125 88.8121 201.989C88.8348 201.903 88.8459 201.813 88.8686 201.728C88.8879 201.682 88.9638 201.375 88.8909 201.642C89.0237 201.17 88.9098 200.606 88.393 200.414C87.9684 200.262 87.3099 200.404 87.1625 200.912L87.1672 200.9Z" fill="#454545"/>
<path d="M18.0991 228.625C24.3438 237.898 30.5672 247.19 36.8233 256.469C37.4981 257.473 38.9971 256.343 38.3339 255.344C32.0892 246.07 25.8658 236.778 19.6096 227.5C18.9349 226.496 17.4359 227.625 18.0991 228.625Z" fill="#454545"/>
<path d="M9.84619 235.28C16.3433 245.175 23.8807 254.317 30.3778 264.213C31.0361 265.224 32.5467 264.099 31.8883 263.088C25.3912 253.192 17.8537 244.051 11.3567 234.155C10.6983 233.144 9.18784 234.269 9.84619 235.28Z" fill="#454545"/>
<path d="M56.241 186.972C51.3573 193.386 47.4411 200.466 44.6316 208.015C44.209 209.138 45.9328 209.881 46.3605 208.746C49.1181 201.352 52.9311 194.417 57.7167 188.139C58.452 187.174 56.9763 186.008 56.241 186.972Z" fill="#454545"/>
<path d="M48.2401 192.874L92.6897 242.903C96.5501 247.25 103.199 247.64 107.54 243.777L198.934 162.446C203.275 158.582 203.665 151.928 199.805 147.583L155.355 97.5523C151.495 93.2074 144.846 92.8166 140.504 96.6797L49.1104 178.011C44.7689 181.874 44.379 188.528 48.2401 192.874Z" fill="#263238"/>
<path d="M153.386 99.2223L194.181 145.129C199.047 150.593 198.575 158.974 193.116 163.845C193.107 163.845 193.089 163.866 193.08 163.876L105.798 241.553C104.389 242.821 102.722 243.754 100.91 244.309C95.9476 245.863 90.5371 244.357 87.0857 240.456L75.6348 227.554L46.28 194.531C41.4115 189.048 41.9033 180.665 47.3714 175.794L82.3894 144.628L108.422 121.459L134.638 98.158C140.106 93.2777 148.489 93.7504 153.366 99.2236C153.366 99.2236 153.366 99.2236 153.377 99.2322L153.386 99.2223Z" fill="#E6E6E6"/>
<path opacity="0.1" d="M82.4002 144.657L75.626 227.583L46.2785 194.531C41.41 189.048 41.9023 180.665 47.3704 175.794L82.391 144.667L82.4002 144.657Z" fill="black"/>
<path d="M188.531 151.852L190.71 154.498L96.0182 238.805L93.7567 236.221L188.531 151.852Z" fill="#263238"/>
<path d="M185.066 147.969L186.714 149.961L91.9919 234.291L90.2842 232.374L185.066 147.969Z" fill="#263238"/>
<path d="M181.636 144.11L183.256 146.106L88.5621 230.426L86.8438 228.503L181.636 144.11Z" fill="#263238"/>
<path d="M177.608 139.594L179.794 142.25L86.4087 225.397L84.1094 222.844L177.608 139.594Z" fill="#263238"/>
<path d="M174.809 135.15L176.435 137.15L82.3816 220.894L80.666 218.974L174.809 135.15Z" fill="#263238"/>
<path d="M129.71 142.123L131.77 144.516L93.7874 178.319L91.692 175.957L129.71 142.123Z" fill="#263238"/>
<path d="M123.805 135.492L125.865 137.885L87.8821 171.688L85.7867 169.326L123.805 135.492Z" fill="#263238"/>
<path d="M65.7877 216.357L69.0712 220.053L176.107 124.802L172.824 121.106L65.7877 216.357Z" fill="#263238"/>
<path d="M153.386 99.2223L194.181 145.129C199.047 150.593 198.575 158.974 193.116 163.845C193.107 163.845 193.089 163.866 193.08 163.876L105.798 241.553C104.389 242.821 102.722 243.754 100.91 244.309C95.9476 245.863 90.5371 244.357 87.0857 240.456L75.6348 227.554L46.28 194.531C41.4115 189.048 41.9033 180.665 47.3714 175.794L82.3894 144.628L108.422 121.459L134.638 98.158C140.106 93.2777 148.489 93.7504 153.366 99.2236C153.366 99.2236 153.366 99.2236 153.377 99.2322L153.386 99.2223Z" stroke="#263238" stroke-width="0.863373" stroke-linecap="round" stroke-linejoin="round"/>
<path d="M70.2653 205.441L49.8412 183.962L69.7124 165.701L89.7398 188.002L70.2653 205.441Z" stroke="#263238" stroke-width="2.59012"/>
<path d="M76.9016 192.498C70.4351 193.995 68.4153 190.215 68.4153 190.215C67.1862 191.682 63.7372 189.681 64.6683 188.651C65.3058 187.945 65.8109 188.173 66.0656 188.387C66.1802 188.483 66.3494 188.475 66.4526 188.365C66.555 188.256 66.554 188.086 66.4512 187.978L64.6565 186.102C64.418 185.852 64.2916 185.517 64.3085 185.172L64.4071 183.038L69.3467 178.729" stroke="#263238" stroke-width="0.734372" stroke-linecap="round" stroke-linejoin="round"/>
<path d="M70.0281 178.895L72.0879 179.705L74.2187 181.766C74.3339 181.877 74.5201 181.859 74.6118 181.728L74.6165 181.724C74.6923 181.613 74.678 181.466 74.5832 181.375C74.1661 180.979 73.1644 179.923 73.7475 179.406C74.4742 178.761 75.9316 181.009 75.3664 182.582C75.3664 182.582 78.1648 184.575 78.6654 186.979C78.6654 186.979 80.6579 189.835 77.7274 191.914" stroke="#263238" stroke-width="0.734372" stroke-linecap="round" stroke-linejoin="round"/>
<path d="M70.4686 184.07C70.4686 184.07 72.0348 184.002 73.7869 185.733C73.7869 185.733 73.1097 185.737 72.3045 186.961" stroke="#263238" stroke-width="0.524551" stroke-linecap="round" stroke-linejoin="round"/>
<path d="M72.0254 182.542L72.8169 183.387" stroke="#263238" stroke-width="0.524551" stroke-linecap="round" stroke-linejoin="round"/>
<path d="M68.8877 185.998L69.7277 186.803" stroke="#263238" stroke-width="0.524551" stroke-linecap="round" stroke-linejoin="round"/>
<path d="M67.1506 186.579C67.1506 186.579 67.3831 185.66 68.6011 184.58" stroke="#263238" stroke-width="0.524551" stroke-linecap="round" stroke-linejoin="round"/>
<path d="M70.6269 182.483C70.6269 182.483 71.4473 181.378 72.5119 181.397" stroke="#263238" stroke-width="0.524551" stroke-linecap="round" stroke-linejoin="round"/>
<path d="M73.7438 188.97C73.7438 188.97 75.6042 188.791 75.929 186.951" stroke="#263238" stroke-width="0.524551" stroke-linecap="round" stroke-linejoin="round"/>
<path d="M64.9556 187.226C64.9556 187.226 61.2278 186.47 60.4655 184.006C59.9361 182.296 61.17 180.938 62.5 179.549C63.3434 178.668 64.0199 177.633 64.4385 176.486C64.78 175.548 65.5518 174.435 67.2778 174.738C70.1548 175.243 69.6295 177.342 69.6295 177.342C69.6295 177.342 72.2126 175.343 73.7047 178.962" stroke="#263238" stroke-width="0.734372" stroke-linecap="round" stroke-linejoin="round"/>
<path d="M50.4937 209.921L49.7593 209.57L43.1153 207.738L42.5119 207.985L34.8639 219.823L30.1033 225.787L24.75 230.714L22.6729 233.077L35.4777 252.002L43.0797 247.606L59.0649 239.279L66.1938 234.588L70.9182 228.934L73.1381 224.921L76.5432 220.677L82.6866 215.65L92.0582 210.319L96.9115 206.091L99.1439 201.567L98.622 198.634L96.004 197.052L92.8449 196.584L88.0485 198.342L81.2915 201.644L72.1509 206.719L61.4507 212.234L58.6707 213.595L57.5156 214.396L54.0389 212.628L50.4937 209.921Z" fill="white"/>
<path d="M57.9297 214.561C66.1178 210.385 74.2793 206.144 82.4606 201.952C84.3189 201.001 86.1699 200.034 88.0346 199.099C90.0026 198.113 92.1724 197.036 94.4364 197.275C96.7005 197.513 98.5793 199.202 98.3107 201.693C98.0574 203.987 96.29 205.845 94.6382 207.303C89.1512 212.16 81.8346 214.411 76.5991 219.605C73.4537 222.725 71.6511 226.779 69.0695 230.299C66.4875 233.82 62.9119 236.256 59.1427 238.38C49.8285 243.639 40.3207 248.586 30.9006 253.679C29.8429 254.249 30.5422 255.997 31.6047 255.415C40.7805 250.449 49.9892 245.566 59.1157 240.525C62.8982 238.434 66.6504 236.127 69.486 232.808C72.5864 229.154 74.383 224.569 77.7427 221.106C83.5091 215.174 92.1959 213.122 97.7245 206.885C100.132 204.159 101.583 199.523 98.267 196.832C94.9506 194.141 90.4992 195.759 87.1189 197.477C77.1304 202.533 67.2177 207.73 57.242 212.819C56.1661 213.368 56.8705 215.103 57.9459 214.554L57.9297 214.561Z" fill="#454545"/>
<path d="M87.1652 200.899C86.8349 202.062 86.7115 203.217 87.0435 204.388C87.3405 205.45 88.0757 206.344 88.8954 207.07C89.4481 207.562 90.063 207.971 90.704 208.35C91.129 208.598 91.6929 208.646 92.0181 208.2C92.2808 207.837 92.3112 207.158 91.8677 206.889C91.2151 206.504 90.5823 206.074 90.0069 205.573C89.9357 205.516 89.8813 205.452 89.8106 205.395C89.7806 205.369 89.7511 205.343 89.7146 205.3C89.6371 205.227 89.6602 205.237 89.7511 205.343C89.6589 205.304 89.5283 205.1 89.467 205.019C89.3761 204.913 89.2904 204.795 89.209 204.666C89.1778 204.612 89.1349 204.553 89.1032 204.499C88.9661 204.279 89.1499 204.614 89.0899 204.466C89.0321 204.347 88.9807 204.244 88.9224 204.124C88.8825 204.026 88.775 203.831 88.7797 203.725C88.8114 203.874 88.8294 203.895 88.8011 203.802C88.7878 203.769 88.7913 203.73 88.778 203.697C88.7741 203.641 88.7544 203.592 88.751 203.536C88.7304 203.392 88.7103 203.248 88.7064 203.097C88.7026 203.041 88.6992 202.986 88.6957 202.93C88.685 202.762 88.682 203.154 88.6987 202.891C88.7111 202.733 88.7236 202.575 88.7364 202.418C88.7553 202.277 88.7793 202.124 88.8101 201.988C88.8328 201.902 88.844 201.812 88.8667 201.727C88.886 201.681 88.9618 201.374 88.889 201.641C89.0218 201.169 88.9078 200.605 88.3911 200.413C87.9665 200.261 87.3079 200.403 87.1605 200.911L87.1652 200.899Z" fill="#454545"/>
<path d="M18.0972 228.624C24.3418 237.897 30.5652 247.189 36.8214 256.468C37.4961 257.472 38.9951 256.342 38.3319 255.343C32.0872 246.069 25.8639 236.777 19.6077 227.499C18.9329 226.495 17.434 227.624 18.0972 228.624Z" fill="#454545"/>
<path d="M9.84423 235.279C16.3413 245.175 23.8788 254.317 30.3758 264.213C31.0342 265.223 32.5447 264.098 31.8864 263.087C25.3893 253.192 17.8518 244.05 11.3547 234.154C10.6964 233.143 9.18588 234.268 9.84423 235.279Z" fill="#454545"/>
<path d="M269.625 50.2091L269.672 49.5948L274.818 46.6104L278.673 44.8795L284.143 41.8203L290.122 40.7896L302.773 42.2191L313.427 41.6861L319.138 40.8225L324.394 39.178L326.729 38.711L334.289 54.267L328.53 57.5863L317.021 64.9132L311.248 67.811L305.754 68.768L302.284 68.7045L298.213 69.3303L292.593 71.455L285.552 75.5806L280.943 77.1616L277.133 76.913L275.407 75.4607L275.361 73.1459L276.251 70.8982L279.218 68.4192L283.939 65.2396L290.726 61.1687L298.39 56.2417L300.335 54.9347L301.297 54.4804L301.453 51.5323L269.625 50.2091Z" fill="white"/>
<path d="M328.021 38.5096C320.661 41.0599 312.977 42.6161 305.174 42.6695C301.292 42.6982 297.505 42.1856 293.671 41.6765C289.836 41.1672 286.093 41.1465 282.523 43.0363C278.238 45.3059 274.013 47.7069 269.758 50.0466C268.959 50.4924 268.408 49.1749 269.196 48.7375C272.951 46.6699 276.704 44.6117 280.459 42.5441C282.075 41.655 283.67 40.7822 285.47 40.3353C287.269 39.8883 289.018 39.855 290.806 39.9602C294.6 40.1781 298.336 41.0185 302.136 41.1989C306.135 41.3847 310.148 41.143 314.111 40.5419C318.656 39.8595 323.107 38.7077 327.45 37.1991C328.306 36.9036 328.869 38.2036 328.011 38.5086L328.021 38.5096Z" fill="#454545"/>
<path d="M301.247 54.8182C295.41 58.6053 289.542 62.3501 283.697 66.1263C282.371 66.9847 281.036 67.832 279.718 68.7005C278.327 69.6175 276.8 70.6323 276.099 72.2066C275.398 73.7808 275.795 75.6518 277.529 76.4184C279.129 77.1207 281.015 76.665 282.596 76.1343C287.857 74.3755 292.101 70.4315 297.487 68.9651C300.723 68.084 304.062 68.4366 307.347 68.0768C310.632 67.7168 313.582 66.2948 316.401 64.6277C323.374 60.5128 330.215 56.1527 337.119 51.9052C337.893 51.4277 338.773 52.5473 337.99 53.0235C331.262 57.159 324.576 61.3472 317.817 65.422C315.015 67.1103 312.083 68.6967 308.834 69.2994C305.266 69.9489 301.58 69.3912 298.038 70.2827C291.968 71.8176 287.335 76.7353 281.154 77.9991C278.456 78.5456 274.868 77.7422 274.359 74.55C273.85 71.3577 276.596 69.0521 279.001 67.4866C286.096 62.8524 293.254 58.3214 300.365 53.7081C301.132 53.2106 302.003 54.3291 301.236 54.8263L301.247 54.8182Z" fill="#454545"/>
<path d="M281.226 68.8099C282.114 69.0334 282.917 69.3896 283.56 70.0506C284.143 70.6471 284.451 71.4675 284.617 72.2796C284.73 72.8278 284.765 73.3857 284.772 73.9496C284.773 74.3218 284.591 74.7099 284.176 74.7543C283.838 74.7889 283.382 74.5518 283.373 74.1593C283.368 73.5861 283.326 73.0084 283.215 72.4415C283.204 72.3734 283.183 72.3136 283.172 72.2456C283.167 72.216 283.161 72.1868 283.147 72.1467C283.128 72.0682 283.125 72.0869 283.161 72.1868C283.17 72.1117 283.086 71.9486 283.056 71.8781C283.021 71.7784 282.976 71.6775 282.922 71.5753C282.899 71.5344 282.876 71.484 282.853 71.4428C282.76 71.2694 282.91 71.5168 282.836 71.4216C282.78 71.3386 282.732 71.2659 282.676 71.1823C282.626 71.1192 282.539 70.9749 282.468 70.9377C282.554 71.0149 282.56 71.0346 282.51 70.9808C282.494 70.9597 282.466 70.947 282.45 70.926C282.415 70.9023 282.39 70.8709 282.355 70.8475C282.268 70.7794 282.181 70.7117 282.084 70.6521C282.049 70.6283 282.014 70.605 281.978 70.5817C281.873 70.5113 282.131 70.6577 281.951 70.5688C281.843 70.5173 281.735 70.4658 281.627 70.4145C281.528 70.3735 281.419 70.3316 281.318 70.3002C281.253 70.2827 281.19 70.2559 281.125 70.2384C281.088 70.2337 280.858 70.1672 281.061 70.2208C280.7 70.1289 280.374 69.8409 280.444 69.4296C280.505 69.0937 280.847 68.7157 281.236 68.8112L281.226 68.8099Z" fill="#454545"/>
<path d="M325.536 34.034C329.251 41.637 332.987 49.2331 336.701 56.8456C337.104 57.6679 335.796 58.2229 335.392 57.41C331.677 49.8069 327.941 42.2109 324.227 34.5983C323.824 33.776 325.132 33.221 325.536 34.034Z" fill="#454545"/>
<path d="M333.025 31.1379C337.052 39.1419 340.193 47.5427 344.22 55.5467C344.634 56.3608 343.325 56.9252 342.911 56.111C338.883 48.107 335.744 39.7064 331.715 31.7022C331.302 30.8881 332.611 30.3238 333.025 31.1379Z" fill="#454545"/>
<path d="M283.802 43.2672C289.855 42.4933 295.979 42.6058 301.99 43.621C302.886 43.7691 302.72 45.1801 301.815 45.0308C295.924 44.0402 289.936 43.9152 284.009 44.676C283.098 44.793 282.892 43.3842 283.802 43.2672Z" fill="#454545"/>
<path d="M189.483 85.6553L214.758 129.555C216.953 133.368 221.821 134.677 225.632 132.479L305.847 86.2099C309.657 84.0116 310.966 79.1394 308.771 75.3268L283.496 31.4267C281.301 27.6142 276.432 26.3049 272.622 28.5026L192.407 74.7723C188.597 76.97 187.287 81.8422 189.483 85.6553Z" fill="#263238"/>
<path d="M281.777 32.3609L304.975 72.6439C307.745 77.4403 306.109 83.58 301.316 86.3531C301.309 86.3521 301.293 86.3645 301.284 86.3708L224.678 130.562C223.439 131.286 222.06 131.722 220.632 131.856C216.716 132.246 212.936 130.301 210.976 126.88L204.467 115.56L187.773 86.5814C185.005 81.7706 186.655 75.6324 191.455 72.8603L222.19 55.1297L245.039 41.9477L268.043 28.697C272.845 25.9181 278.986 27.5541 281.762 32.3588C281.762 32.3588 281.762 32.3588 281.769 32.3669L281.777 32.3609Z" fill="#E6E6E6"/>
<path opacity="0.1" d="M222.194 55.1525L204.456 115.581L187.772 86.5814C185.004 81.7706 186.654 75.6329 191.454 72.8609L222.186 55.1589L222.194 55.1525Z" fill="black"/>
<path d="M299.758 76.7617L300.968 79.0571L217.852 127.027L216.572 124.765L299.758 76.7617Z" fill="#263238"/>
<path d="M297.789 73.3524L298.705 75.0811L215.564 123.063L214.592 121.38L297.789 73.3524Z" fill="#263238"/>
<path d="M295.832 69.9651L296.727 71.6929L213.608 119.672L212.629 117.983L295.832 69.9651Z" fill="#263238"/>
<path d="M293.545 66.0015L294.758 68.3055L212.788 115.615L211.476 113.37L293.545 66.0015Z" fill="#263238"/>
<path d="M292.146 62.2774L293.045 64.0088L210.489 111.659L209.512 109.973L292.146 62.2774Z" fill="#263238"/>
<path d="M257.653 60.5289L258.812 62.6188L225.475 81.8494L224.284 79.7775L257.653 60.5289Z" fill="#263238"/>
<path d="M254.289 54.709L255.449 56.799L222.112 76.0296L220.921 73.9577L254.289 54.709Z" fill="#263238"/>
<path d="M198.89 105.752L200.757 108.995L294.7 54.8065L292.833 51.5636L198.89 105.752Z" fill="#263238"/>
<path d="M281.777 32.3609L304.975 72.6439C307.745 77.4403 306.109 83.58 301.316 86.3531C301.309 86.3521 301.293 86.3645 301.284 86.3708L224.678 130.562C223.439 131.286 222.06 131.722 220.632 131.856C216.716 132.246 212.936 130.301 210.976 126.88L204.467 115.56L187.773 86.5814C185.005 81.7706 186.655 75.6324 191.455 72.8603L222.19 55.1297L245.039 41.9477L268.043 28.697C272.845 25.9181 278.986 27.5541 281.762 32.3588C281.762 32.3588 281.762 32.3588 281.769 32.3669L281.777 32.3609Z" stroke="#263238" stroke-width="0.653502" stroke-linecap="round" stroke-linejoin="round"/>
<path d="M203.887 98.3472L192.042 79.2942L209.571 68.8062L220.996 88.4074L203.887 98.3472Z" stroke="#263238" stroke-width="1.96051"/>
<path d="M202.134 80.2499C202.134 80.2499 201.301 82.0569 202.167 83.5585C203.034 85.0601 204.927 88.7067 207.518 88.2756C209.162 88.002 209.251 86.894 209.542 85.4498" stroke="#263238" stroke-width="0.467903" stroke-linecap="round" stroke-linejoin="round"/>
<path d="M204.436 82.5498C204.436 82.5498 205.635 84.2352 205.346 85.2524C205.346 85.2524 206.056 85.2679 206.237 84.4128" stroke="#263238" stroke-width="0.334217" stroke-linecap="round" stroke-linejoin="round"/>
<path d="M205.743 86.0709C205.743 86.0709 207.132 85.9195 207.635 84.7534" stroke="#263238" stroke-width="0.334217" stroke-linecap="round" stroke-linejoin="round"/>
<path d="M203.741 83.2993L204.196 84.0878" stroke="#263238" stroke-width="0.334217" stroke-linecap="round" stroke-linejoin="round"/>
<path d="M206.078 82.0229L206.555 82.8484" stroke="#263238" stroke-width="0.334217" stroke-linecap="round" stroke-linejoin="round"/>
<path d="M202.695 83.3518C202.695 83.3518 202.675 82.5372 203.712 82.5142" stroke="#263238" stroke-width="0.334217" stroke-linecap="round" stroke-linejoin="round"/>
<path d="M205.128 81.8945C205.128 81.8945 205.183 81.5123 205.701 81.4133" stroke="#263238" stroke-width="0.334217" stroke-linecap="round" stroke-linejoin="round"/>
<path d="M202.318 84.219C202.318 84.219 198.192 82.7487 201.242 79.0603C201.242 79.0603 199.806 77.4068 204.327 76.6509C208.848 75.8947 210.94 77.8762 211.649 79.1051C212.359 80.3341 212.092 83.9791 213.351 83.7697C214.609 83.5603 215.375 82.9459 215.995 83.7951C216.615 84.6444 216.011 85.4667 216.281 85.7847" stroke="#263238" stroke-width="0.467903" stroke-linecap="round" stroke-linejoin="round"/>
<path d="M204.68 87.5057C204.68 87.5057 204.907 87.8146 204.728 88.3093C204.549 88.804 203.718 89.8218 204.682 90.8546C205.645 91.8878 205.339 92.1625 205.007 92.6472" stroke="#263238" stroke-width="0.467903" stroke-linecap="round" stroke-linejoin="round"/>
<path d="M202.312 79.7266C202.312 79.7266 205.442 81.3422 207.18 79.9586C207.18 79.9586 209.391 86.2043 210.868 87.5915C212.345 88.9786 214.791 86.8474 215.572 86.735" stroke="#263238" stroke-width="0.467903" stroke-linecap="round" stroke-linejoin="round"/>
<path d="M301.025 48.184L301.073 47.5698L302.386 42.5214L302.776 42.2192L313.431 41.6862L319.142 40.8226L324.397 39.178L326.733 38.711L334.292 54.267L328.533 57.5863L317.025 64.9133L311.252 67.811L305.758 68.768L302.287 68.7045L298.217 69.3303L292.597 71.455L285.555 75.5807L280.947 77.1616L277.137 76.913L275.411 75.4607L275.365 73.146L276.254 70.8983L279.221 68.4192L283.943 65.2396L290.73 61.1687L298.394 56.2417L300.339 54.9347L301.301 54.4805L301.457 51.5323L301.025 48.184Z" fill="white"/>
<path d="M301.246 54.8172C295.41 58.6043 289.541 62.3491 283.696 66.1254C282.37 66.9837 281.035 67.831 279.717 68.6995C278.326 69.6165 276.799 70.6313 276.098 72.2056C275.397 73.7798 275.794 75.6509 277.528 76.4175C279.128 77.1197 281.014 76.664 282.596 76.1333C287.856 74.3745 292.1 70.4305 297.486 68.9641C300.722 68.083 304.061 68.4356 307.346 68.0758C310.631 67.7159 313.581 66.2939 316.4 64.6268C323.373 60.5119 330.214 56.1517 337.118 51.9042C337.892 51.4267 338.772 52.5463 337.989 53.0225C331.261 57.1581 324.575 61.3463 317.816 65.421C315.014 67.1093 312.082 68.6957 308.833 69.2985C305.265 69.9479 301.579 69.3902 298.037 70.2818C291.967 71.8167 287.334 76.7343 281.153 77.9981C278.455 78.5446 274.867 77.7412 274.358 74.549C273.849 71.3567 276.595 69.0511 279 67.4856C286.095 62.8515 293.253 58.3204 300.364 53.7071C301.131 53.2097 302.002 54.3281 301.235 54.8253L301.246 54.8172Z" fill="#454545"/>
<path d="M281.231 68.8094C282.119 69.0329 282.922 69.3892 283.564 70.0501C284.148 70.6466 284.456 71.467 284.622 72.2791C284.735 72.8273 284.77 73.3853 284.776 73.9491C284.778 74.3213 284.596 74.7094 284.181 74.7538C283.843 74.7884 283.386 74.5513 283.378 74.1588C283.373 73.5856 283.33 73.0079 283.22 72.441C283.209 72.3729 283.188 72.3131 283.177 72.2451C283.172 72.2155 283.166 72.1863 283.151 72.1462C283.133 72.0677 283.13 72.0864 283.166 72.1863C283.175 72.1112 283.091 71.9482 283.061 71.8776C283.026 71.7779 282.981 71.677 282.927 71.5748C282.904 71.5339 282.881 71.4835 282.858 71.4423C282.765 71.2689 282.915 71.5163 282.841 71.4211C282.785 71.3381 282.737 71.2654 282.68 71.1819C282.631 71.1187 282.544 70.9744 282.473 70.9372C282.558 71.0144 282.565 71.0342 282.515 70.9803C282.498 70.9592 282.471 70.9465 282.455 70.9255C282.42 70.9018 282.395 70.8704 282.36 70.847C282.273 70.779 282.186 70.7112 282.089 70.6516C282.054 70.6278 282.018 70.6045 281.983 70.5813C281.877 70.5108 282.136 70.6572 281.956 70.5683C281.848 70.5168 281.74 70.4654 281.632 70.4141C281.532 70.373 281.424 70.3311 281.322 70.2997C281.258 70.2822 281.194 70.2554 281.13 70.2379C281.092 70.2332 280.863 70.1667 281.066 70.2203C280.705 70.1284 280.379 69.8404 280.449 69.4292C280.51 69.0932 280.852 68.7152 281.241 68.8107L281.231 68.8094Z" fill="#454545"/>
<path d="M325.539 34.0335C329.254 41.6365 332.99 49.2326 336.704 56.8451C337.107 57.6674 335.799 58.2224 335.395 57.4095C331.68 49.8064 327.944 42.2104 324.23 34.5978C323.827 33.7755 325.135 33.2205 325.539 34.0335Z" fill="#454545"/>
<path d="M333.027 31.1379C337.055 39.1419 340.195 47.5427 344.223 55.5467C344.637 56.3608 343.328 56.9252 342.914 56.111C338.886 48.107 335.746 39.7064 331.718 31.7022C331.305 30.8881 332.614 30.3238 333.027 31.1379Z" fill="#454545"/>
</g>
<defs>
<clipPath id="clip0_2887_44081">
<rect width="355" height="251.849" fill="white" transform="translate(7 16.0757)"/>
</clipPath>
</defs>
</svg>
