<svg width="450" height="254" viewBox="0 0 450 254" fill="none" xmlns="http://www.w3.org/2000/svg">
<path d="M181.315 218.371C183.789 201.256 172.136 185.338 155.288 182.817C138.439 180.296 122.775 192.127 120.301 209.242C117.827 226.356 129.48 242.274 146.329 244.795C163.177 247.316 178.841 235.486 181.315 218.371Z" fill="#454545"/>
<path d="M157.408 229.201C165.775 225.5 169.602 215.608 165.956 207.106C162.31 198.604 152.571 194.712 144.203 198.412C135.836 202.113 132.009 212.005 135.655 220.507C139.301 229.009 149.04 232.901 157.408 229.201Z" fill="#9C9B9B"/>
<path d="M347.6 220.031C352.264 203.395 342.767 186.062 326.389 181.317C310.011 176.572 292.953 186.212 288.29 202.848C283.627 219.484 293.123 236.817 309.501 241.562C325.879 246.307 342.937 236.667 347.6 220.031Z" fill="#454545"/>
<path d="M325.225 226.498C333.418 222.414 336.798 212.355 332.774 204.031C328.75 195.706 318.847 192.268 310.654 196.352C302.462 200.436 299.082 210.495 303.106 218.819C307.129 227.144 317.032 230.582 325.225 226.498Z" fill="#9C9B9B"/>
<path d="M401.857 186.672C400.972 185.842 403.102 179.518 384.178 160.26C380.681 156.85 375.614 155.839 370.829 155.031C346.852 150.96 344.162 147.419 319.905 145.695L312.635 145.098C304.271 134.282 277.636 113.797 268.935 109.554C250.856 100.506 183.818 102.17 167.844 109.314C151.881 116.459 125.482 142.961 125.482 142.961C116.827 149.608 111.01 160.308 106.949 164.142C96.753 173.765 99.6397 188.118 99.6397 188.118C98.1033 187.669 92.1113 193.643 92.285 195.25C92.9765 201.457 91.9121 207.689 92.6037 213.897C93.1351 218.694 94.4659 222.879 99.1401 225.012C101.265 225.978 111.88 227.601 113.186 225.502C114.218 223.835 112.774 216.226 112.978 213.881C113.665 206.133 115.992 198.525 119.818 191.794C126.746 179.589 140.847 173.347 154.402 174.129C165.692 174.779 176.211 181.087 182.36 190.709C189.864 202.445 190.843 214.45 187.923 227.331L280.218 228.067L280.584 220.498C281.342 211.654 280.964 203.242 284.314 194.8C295.423 166.785 336.897 166.973 350.392 192.351C355.418 201.802 357.153 213.238 357.089 223.889C357.092 224.097 357.095 224.294 357.087 224.502L359.951 225.862C394.53 225.371 403.591 213.957 403.591 213.957C403.591 213.957 403.047 187.772 401.857 186.672ZM164.389 136.148C160.103 136.296 154.376 136.618 148.993 136.925C152.868 132.119 158.901 125.269 165.444 120.163C165.296 126.404 165.412 136.111 164.4 136.148H164.389ZM180.896 144.473C178.622 144.472 176.251 144.44 174.211 143.408C172.778 142.673 171.529 140.446 171.134 138.416C171.064 138.045 171.758 121.66 171.528 116.092C174.468 114.474 177.405 113.415 180.204 113.244C195.825 112.31 256.373 108.9 266.882 116.752C274.929 123.479 292.502 140.896 291.962 145.391C241.256 145.301 231.571 144.629 180.874 144.495L180.896 144.473Z" fill="#466FD9"/>
<path d="M119.827 191.794C119.827 191.794 119.869 191.716 119.901 191.683C112.809 191.532 105.968 190.086 99.6192 187.571C99.6218 187.757 99.6243 187.932 99.6485 188.118C98.1121 187.669 92.1201 193.643 92.2937 195.249C92.9853 201.457 91.9209 207.689 92.6124 213.896C93.1438 218.694 94.4747 222.878 99.1488 225.012C101.274 225.978 111.888 227.6 113.195 225.502C114.227 223.835 112.783 216.226 112.987 213.881C113.674 206.132 116.001 198.525 119.827 191.794Z" fill="#466FD9"/>
<path d="M189.443 213.781C189.517 218.202 188.988 222.708 187.933 227.331L280.228 228.067L280.595 220.498C280.826 217.792 280.949 215.119 281.106 212.479L189.432 213.781H189.443Z" fill="#466FD9"/>
<path d="M404.488 185.453C403.604 184.623 401.096 183.279 400.932 183.139C392.467 187.966 367.304 192.198 357.07 192.343C354.754 192.376 352.458 192.256 350.202 192.025C350.269 192.144 350.335 192.242 350.401 192.361C355.427 201.813 357.162 213.248 357.098 223.899C357.101 224.107 357.104 224.304 357.096 224.512L359.96 225.873C394.539 225.382 403.6 213.968 403.6 213.968C403.6 213.968 405.7 186.574 404.51 185.463L404.488 185.453Z" fill="#466FD9"/>
<path d="M100.374 175.323C99.7527 178.572 99.4447 181.926 99.5147 185.34L100.71 185.323C106.98 185.234 112.525 181.149 114.551 175.122L100.374 175.323Z" fill="#87A0C6"/>
<path d="M382.359 174.811L396.385 174.612C393.649 169.386 388.893 164.506 385.086 161.254C385.086 161.254 372.58 156.878 368.863 161.485C365.147 166.091 375.012 174.915 382.359 174.811Z" fill="#87A0C6"/>
<path d="M197.071 156.032L194.334 156.071L195.153 213.699L197.889 213.66L197.071 156.032Z" fill="#466FD9"/>
<path d="M129.177 165.008C120.343 165.133 113.131 164.087 112.559 164.007L112.873 161.846C113.132 161.886 139.304 165.674 153.06 157.904C166.443 150.348 164.062 139.031 164.028 138.911L166.133 138.421C166.167 138.552 168.883 151.474 154.111 159.816C147.142 163.746 137.45 164.891 129.177 165.008Z" fill="#466FD9"/>
<path d="M179.399 75.3757C179.399 75.3757 184.344 76.6521 185.579 78.3535C186.585 79.7408 185.798 82.0444 177.61 80.8944L179.399 75.3745V75.3757Z" fill="#466FD9"/>
<path d="M102.435 75.5285L121.854 104.214C121.854 104.214 110.89 106.024 96.7185 98.6069C93.2076 96.7685 89.3182 95.7625 85.3544 95.6799L81.6826 90.6606C81.6826 90.6606 91.1003 83.6318 102.435 75.5273V75.5285Z" fill="#F99370"/>
<path d="M107.381 84.4272C107.381 84.4272 104.783 86.4581 100.419 88.3213C100.419 88.3213 105.62 88.79 121.854 104.215L107.381 84.4284V84.4272Z" fill="#E57D61"/>
<path d="M162.198 68.6812L154.783 75.0582C162.528 80.6371 160.726 79.6571 170.179 82.0316C178.694 84.1699 187.696 79.1742 180.707 75.8847L179.398 75.3758L162.198 68.6812Z" fill="#F99370"/>
<path d="M175.98 74.0454L166.172 81.073C166.172 81.073 168.727 81.6705 170.179 82.0318C170.181 82.0318 179.398 75.3749 179.398 75.376L175.98 74.0454Z" fill="#E57D61"/>
<path d="M164.775 25.4624L108.374 66.5877L134.38 102.145L190.781 61.0194L164.775 25.4624Z" fill="white"/>
<path d="M166.943 20.3752L102.866 67.1023C99.9274 69.2453 99.2853 73.3601 101.432 76.2942L123.002 105.785C124.566 107.923 127.178 108.843 129.617 108.357C130.526 108.175 131.41 107.799 132.208 107.217L196.285 60.4903C199.222 58.3472 199.866 54.2324 197.719 51.2983L176.149 21.8074C174.003 18.8745 169.881 18.2322 166.943 20.3752ZM164.772 25.4547L190.779 61.0109L134.379 102.139L108.372 66.5828L164.772 25.4547Z" fill="#1D3F70"/>
<path d="M111.77 60.6094C107.41 64.3157 96.2204 68.9276 101.432 76.2941L123.002 105.785C124.566 107.924 127.178 108.843 129.618 108.357C129.618 108.357 107.82 85.9123 111.768 60.6106L111.77 60.6094Z" fill="#163356"/>
<path d="M186.465 46.2C185.554 46.8707 186.569 48.2592 187.487 47.5968C188.399 46.9262 187.383 45.5376 186.465 46.2Z" fill="#306599"/>
<path d="M178.41 36.1414L184.733 44.7866C184.838 44.9295 185.039 44.9613 185.182 44.8563C185.382 44.6874 185.896 44.4572 185.642 44.123L179.319 35.4778C179.084 35.1413 178.695 35.5439 178.48 35.6927C178.336 35.7978 178.305 35.9985 178.41 36.1414Z" fill="#255084"/>
<path d="M197.636 51.185C176.096 21.6917 163.136 23.1511 163.136 23.1511L166.942 20.3752C168.921 18.7671 173.134 17.8875 176.096 21.6917L197.636 51.185Z" fill="#255084"/>
<path d="M149.679 87.3024C148.393 82.7578 156.989 79.4801 161.891 82.0777L135.429 101.374C135.096 101.192 134.813 100.999 134.577 100.797C131.286 97.4731 137.177 93.866 141.846 94.4646C138.849 91.2944 144.802 86.8513 149.679 87.3024Z" fill="#BBC9F9"/>
<path d="M135.704 102.34C136.497 103.13 138.625 103.751 140.108 104.115C143.267 104.934 146.962 105.412 148.168 102.016C148.52 100.984 148.525 100.138 148.161 99.249C147.25 96.9773 143.433 95.7233 140.733 95.9607C136.623 96.3656 132.926 99.9633 135.704 102.341V102.34Z" fill="#F99370"/>
<path d="M133.227 99.7032C133.173 99.8603 133.169 100.026 133.209 100.196C133.499 101.448 136.125 102.961 138.217 103.686C138.984 103.951 139.791 103.777 140.373 103.303C140.718 103.022 140.983 102.635 141.113 102.172C141.122 102.14 141.129 102.108 141.139 102.078C141.47 100.82 140.667 99.5403 139.396 99.264C137.134 98.774 133.707 98.2876 133.228 99.7044L133.227 99.7032Z" fill="#375FC5"/>
<path d="M141.963 95.9373C144.695 96.1899 147.845 97.3955 148.357 99.8691C145.616 99.1394 141.678 98.6423 140.733 95.9597C141.141 95.9195 141.554 95.9101 141.963 95.9373Z" fill="#E57D61"/>
<path d="M145.55 39.4702L108.372 66.582L115.624 76.4965C121.397 62.3998 118.577 61.7835 132.167 51.5962C132.167 51.5962 136.108 51.3247 138.945 50.3435C145.312 48.1403 147.083 41.4574 145.55 39.4702Z" fill="#BBC9F9"/>
<path d="M139.619 40.3012L102.866 67.1024C95.4293 72.7061 105.536 80.983 108.509 85.9704C108.509 85.9704 112.253 83.309 115.624 76.4974L108.372 66.5829L144.956 39.9045C143.399 39.6199 141.258 40.1206 139.619 40.3012Z" fill="#163356"/>
<path d="M143.042 96.4153C144.264 97.4614 147.371 98.0919 149.343 98.6209C153.471 99.8913 158.396 98.8121 158.165 93.9298C157.768 90.5884 154.173 89.3333 150.985 88.8811C146.297 88.1313 139.228 93.1376 143.042 96.4164V96.4153Z" fill="#F99370"/>
<path d="M140.291 93.7417C139.936 95.8705 144.394 97.3913 146.77 98.0454C147.875 98.35 149.046 97.8482 149.582 96.8375C149.593 96.8186 149.601 96.7985 149.612 96.7797C150.444 95.1491 149.411 93.1879 147.603 92.8904C144.753 92.4216 140.576 92.0367 140.291 93.7428V93.7417Z" fill="#375FC5"/>
<path d="M150.984 88.8799C154.174 89.3321 157.767 90.5872 158.165 93.9287C157.304 93.8129 156.43 93.624 155.584 93.4091C152.873 92.6818 149.021 91.8848 149.109 88.8811C149.731 88.8138 150.361 88.8102 150.986 88.8799H150.984Z" fill="#E57D61"/>
<path d="M151.694 90.0878C152.648 91.0867 155.318 91.8447 157.13 92.2828C166.637 95.9406 171.207 84.8336 160.422 82.8783C154.825 81.5146 147.996 86.7711 151.694 90.0878Z" fill="#F99370"/>
<path d="M148.731 87.8926C148.356 89.7629 152.319 91.4454 155.899 92.0972C156.807 92.2625 157.73 91.8587 158.198 91.0652C158.302 90.8893 158.403 90.6921 158.496 90.4725C158.496 90.4725 158.496 90.4725 158.496 90.4701C159.157 88.9116 158.117 87.1582 156.436 86.9374C153.52 86.5549 149.061 86.2479 148.73 87.8926H148.731Z" fill="#375FC5"/>
<path d="M53.7807 57.8197L40.541 66.2572C45.808 73.4572 59.9026 96.6171 65.0183 103.612C65.0183 103.612 74.3958 101.221 87.8802 95.8579C93.1389 93.7668 105.28 84.8429 107.381 84.4261C119.6 74.6769 112.964 62.48 131.31 50.4249C142.394 50.8806 151.612 37.6766 141.696 38.3354C122.721 40.6024 107.208 46.3974 92.5808 56.5138C88.7494 59.1634 84.3089 61.5366 79.6604 61.2096C63.222 60.0513 53.7807 57.8197 53.7807 57.8197Z" fill="#F99370"/>
<path d="M135.812 39.1716C135.83 39.2354 135.849 39.3003 135.867 39.3652C135.917 39.5482 135.977 39.7254 136.048 39.8954C136.831 41.7751 138.893 42.8366 140.901 42.2403C143.98 41.3276 147.53 39.8269 148.65 38.3097L148.651 38.3073C148.9 37.972 149.026 37.6355 149.005 37.3049C141.866 36.698 135.812 39.1704 135.812 39.1704V39.1716Z" fill="#375FC5"/>
<path d="M0 53.318L18.674 130.503C28.5174 127.605 30.3481 126.923 39.9054 122.624C54.363 116.12 65.6266 108.896 65.0176 103.613C65.0176 103.613 52.2569 80.6759 53.78 57.8194C52.6945 53.3256 39.4418 49.8708 20.4267 50.1955C10.9108 50.3573 11.5995 50.9176 0 53.318Z" fill="#466FD9"/>
<path d="M84.8355 97.0468C84.8355 97.0468 76.5223 79.0195 78.7419 61.1434C78.7419 61.1434 77.2756 58.7855 75.4226 60.8753C75.4226 60.8753 71.5982 73.5976 81.6084 98.2558C81.6084 98.2558 83.7393 99.5263 84.8355 97.0456V97.0468Z" fill="#F9B233"/>
<path d="M77.9098 99.5809C77.9098 99.5809 68.906 81.2136 71.3491 60.486C71.3491 60.486 70.014 58.5024 68.0368 60.1153C68.0368 60.1153 64.0777 74.8684 74.9393 100.595C74.9393 100.595 76.7013 101.445 77.9098 99.5809Z" fill="#F9B233"/>
<path d="M135.811 39.1716C135.83 39.2354 135.849 39.3003 135.867 39.3652C135.916 39.5482 135.977 39.7254 136.048 39.8954C143.301 37.2647 148.542 38.2884 148.65 38.3097C148.65 38.3097 148.65 38.3097 148.65 38.3073C148.898 37.972 149.025 37.6355 149.004 37.3049C141.865 36.698 135.81 39.1704 135.81 39.1704L135.811 39.1716Z" fill="#466FD9"/>
<path d="M148.73 87.8926C150.575 87.2987 151.966 87.4735 155.236 88.1134C158.443 88.7392 158.496 90.4076 158.497 90.4701C159.158 88.9116 158.117 87.1582 156.437 86.9374C153.521 86.5549 149.062 86.2479 148.73 87.8926Z" fill="#466FD9"/>
<path d="M140.291 93.7419C141.772 92.8752 145.811 93.1692 147.666 93.8694C149.493 94.5589 149.608 96.7126 149.612 96.7775C150.444 95.1493 149.411 93.1869 147.603 92.8894C144.753 92.4206 140.576 92.0357 140.291 93.7419Z" fill="#466FD9"/>
<path d="M133.227 99.7034C133.173 99.8605 133.169 100.026 133.209 100.196C134.359 99.06 137.296 99.5063 139.067 100.381C140.809 101.241 140.389 103.224 140.371 103.302C140.717 103.022 140.982 102.634 141.112 102.171C141.121 102.139 141.128 102.107 141.138 102.077C141.469 100.819 140.666 99.5393 139.395 99.263C137.132 98.773 133.705 98.2866 133.227 99.7034Z" fill="#466FD9"/>
<path d="M185.459 61.2539L162.717 30.4502L147.241 41.2742L168.925 72.9362L185.459 61.2539Z" fill="#C1C1C1"/>
<path d="M167.618 73.4651L149.433 48.2188L144.989 51.486L162.403 76.8294L167.618 73.4651Z" fill="#C1C1C1"/>
<path d="M351.837 67.7178L335.938 98.4886C335.938 98.4886 347.04 98.9963 360.237 89.9638C363.506 87.7251 374.401 85.9056 383.605 88.9601L374.228 80.3043C374.228 80.3043 364.047 74.4325 351.835 67.7178H351.837Z" fill="#F99370"/>
<path d="M347.977 77.1379C347.977 77.1379 350.796 78.8487 355.35 80.1853C355.35 80.1853 350.24 81.2621 335.94 98.4889L347.978 77.1367L347.977 77.1379Z" fill="#E57D61"/>
<path d="M291.682 67.9492L299.799 73.41C292.765 79.8615 294.666 79.3384 285.332 82.1462C277.376 85.8513 267.6 81.3693 274.152 77.2804L275.391 76.6216L291.682 67.9504V67.9492Z" fill="#F99370"/>
<path d="M278.629 74.8975L289.201 80.8885L285.331 82.146L275.391 76.6214L278.629 74.8975Z" fill="#E57D61"/>
<path d="M284.055 25.3457L262.421 63.712L323.279 97.9232L344.913 59.5569L284.055 25.3457Z" fill="white"/>
<path d="M261.019 66.16L326.021 102.695C329.192 104.477 333.21 103.355 334.994 100.19L352.936 68.3668C354.237 66.0596 353.993 63.305 352.538 61.2895C351.997 60.5398 351.287 59.8916 350.427 59.4075L281.28 20.544C278.11 18.7623 274.093 19.884 272.307 23.0495L254.366 54.8723C251.46 59.8762 254.043 62.5293 261.018 66.16H261.019ZM262.405 63.7006L284.036 25.333L344.896 59.5397L323.266 97.9073L262.405 63.7006Z" fill="#1D3F70"/>
<path d="M340.816 54.0107C345.583 57.1786 357.238 60.4421 352.933 68.3695L334.992 100.192C333.692 102.499 331.207 103.72 328.726 103.524C328.726 103.524 347.723 78.6713 340.816 54.0107Z" fill="#163356"/>
<path d="M266.645 45.3701C267.625 45.938 266.768 47.4293 265.783 46.8696C264.803 46.3029 265.66 44.8116 266.645 45.3701Z" fill="#306599"/>
<path d="M273.548 34.4909L268.212 43.775C268.123 43.9285 267.927 43.9816 267.773 43.893C267.555 43.7466 267.02 43.5742 267.236 43.2153L272.573 33.9313C272.77 33.5712 273.201 33.9289 273.43 34.0529C273.584 34.1414 273.637 34.3374 273.548 34.4909Z" fill="#255084"/>
<path d="M254.368 54.8372C273.377 21.1559 285.477 22.7841 285.477 22.7841C281.77 20.5762 275.455 17.1426 272.209 23.2257L254.368 54.8372Z" fill="#255084"/>
<path d="M306.312 84.9679C307.052 80.304 298.13 78.0606 293.569 81.2155L322.123 97.2651C322.433 97.0455 322.691 96.82 322.903 96.5909C325.779 92.9035 319.502 90.0143 314.937 91.1584C317.539 87.6576 311.102 83.9454 306.312 84.9679Z" fill="#BBC9F9"/>
<path d="M321.964 98.2572C321.268 99.1344 319.23 100.002 317.8 100.537C314.758 101.722 311.147 102.632 309.548 99.4013C309.076 98.4177 308.971 97.5782 309.229 96.6514C309.865 94.2888 313.509 92.5944 316.217 92.5118C320.347 92.4303 324.441 95.5686 321.964 98.256V98.2572Z" fill="#F99370"/>
<path d="M321.964 98.257C321.269 99.1343 319.23 100.002 317.8 100.537C317.8 100.537 316.334 99.4637 316.003 96.3702C316.003 96.3702 321.031 93.5802 321.964 98.257Z" fill="#FCB5A7"/>
<path d="M314.992 92.6355C312.309 93.207 309.323 94.775 309.107 97.2923C311.744 96.2462 315.594 95.2886 316.216 92.5127C315.806 92.521 315.396 92.56 314.992 92.6355Z" fill="#E57D61"/>
<path d="M304.766 36.9846L344.885 59.5341L338.853 70.2326C331.456 56.914 334.184 55.9695 319.488 47.4517C319.488 47.4517 315.542 47.6454 312.609 47.0042C306.027 45.5661 303.479 39.1371 304.765 36.9834L304.766 36.9846Z" fill="#BBC9F9"/>
<path d="M310.755 37.1111L350.415 59.4019C358.461 64.0917 349.401 73.5009 347.037 78.8024C347.037 78.8024 343.006 76.6003 338.854 70.2327L344.886 59.5342L305.409 37.346C306.921 36.8796 309.106 37.1252 310.756 37.1122L310.755 37.1111Z" fill="#163356"/>
<path d="M313.978 93.2369C312.888 94.42 309.877 95.4106 307.981 96.1675C304.031 97.915 299.015 97.4214 298.667 92.5462C298.667 89.1812 302.088 87.5116 305.202 86.6887C309.769 85.3922 317.379 89.533 313.978 93.2369Z" fill="#F99370"/>
<path d="M313.979 93.2362C312.762 95.0699 309.086 95.8184 309.086 95.8184C309.086 95.8184 306.721 94.8408 306.477 91.0967C306.477 91.0967 313.276 87.5522 313.979 93.2362Z" fill="#FCB5A7"/>
<path d="M305.202 86.6886C302.088 87.5128 298.667 89.1823 298.667 92.5474C299.509 92.3313 300.353 92.0408 301.168 91.7279C303.774 90.6865 307.506 89.442 307.064 86.4702C306.439 86.4773 305.812 86.5469 305.2 86.6898L305.202 86.6886Z" fill="#E57D61"/>
<path d="M304.64 87.9715C303.81 89.0755 301.248 90.1429 299.502 90.7911C290.492 95.5423 284.643 85.0492 295.123 81.8388C300.52 79.8257 307.92 84.2428 304.64 87.9715Z" fill="#F99370"/>
<path d="M304.639 87.9706C303.809 89.0758 301.247 90.1431 299.501 90.7914C299.499 90.7925 297.266 89.7027 297.114 86.0909C297.114 86.0909 303.579 82.5062 304.639 87.9706Z" fill="#FCB5A7"/>
<path d="M406.756 50.9917C406.756 50.9917 407.203 90.1102 402.949 97.6573C402.949 97.6573 381.895 88.4158 374.562 87.3803C369.089 85.9375 350.113 77.3041 347.976 77.1376C334.692 68.8938 340.067 55.6012 320.428 45.787C309.474 47.544 298.538 35.9174 308.462 35.4038C327.572 35.4238 343.661 39.3533 359.38 47.6774C363.497 49.8582 376.4 53.0674 381.054 52.8336C395.823 52.0933 406.756 50.9917 406.756 50.9917Z" fill="#F99370"/>
<path d="M306.195 35.7318C306.345 38.6447 313.016 40.1182 314.626 39.4511C314.626 39.4511 314.073 37.3907 314.403 35.5405C314.403 35.5405 308.448 34.9419 306.195 35.7318Z" fill="#FCB5A7"/>
<path d="M449.419 51.8274L437.167 113.704C423.892 106.647 401.76 99.0847 395.628 95.4905C392.54 93.6817 390.782 92.6202 390.782 92.6202C393.861 85.5111 399.69 68.184 396.964 51.8274C396.964 51.8274 399.142 51.4236 403.195 50.9242C412.165 49.8202 415.408 47.6772 449.419 51.8274Z" fill="#D96D46"/>
<path d="M375.828 87.6094C375.828 87.6094 380.23 91.3582 387.394 91.3216C387.394 91.3216 396.542 69.0767 393.026 52.1157C393.026 52.1157 386.404 50.0695 381.054 52.8336C381.054 52.8336 383.502 67.3257 375.828 87.6094Z" fill="#1D3F70"/>
<path d="M388.128 62.1729C388.636 62.3972 388.866 62.9899 388.641 63.4976C388.416 64.0053 387.823 64.2344 387.314 64.0112C386.806 63.7869 386.576 63.1942 386.8 62.6865C387.025 62.1788 387.618 61.9497 388.127 62.174L388.128 62.1729Z" fill="#163356"/>
<path d="M388.186 58.1738C388.694 58.3982 388.924 58.9909 388.699 59.4986C388.475 60.0063 387.881 60.2354 387.372 60.0122C386.864 59.7879 386.634 59.1952 386.858 58.6875C387.083 58.1797 387.676 57.9507 388.185 58.175L388.186 58.1738Z" fill="#163356"/>
<path d="M388.096 54.373C388.604 54.5974 388.834 55.1901 388.61 55.6978C388.386 56.2055 387.792 56.4346 387.284 56.2114C386.775 55.9871 386.546 55.3944 386.77 54.8867C386.995 54.3789 387.588 54.1499 388.096 54.373Z" fill="#163356"/>
<path d="M403.194 50.9253C406.566 75.5092 395.627 95.4917 395.627 95.4917C392.539 93.6828 390.781 92.6214 390.781 92.6214C393.86 85.5122 399.689 68.1851 396.963 51.8286C396.963 51.8286 399.141 51.4248 403.194 50.9253Z" fill="#23659B"/>
<path d="M286.07 29.8677L267.337 63.2615L285.251 73.2987L303.641 40.0471L286.07 29.8677Z" fill="#C1C1C1"/>
<path d="M294.009 77.8552L287.578 74.0808L303.235 45.2832L309.386 48.778L294.009 77.8552Z" fill="#D9D9D9"/>
</svg>
