<svg width="457" height="141" viewBox="0 0 457 141" fill="none" xmlns="http://www.w3.org/2000/svg"><path d="M0.500488 100.396L20.397 37.3415C23.0303 29.1488 26.1026 22.2729 29.9063 16.8598C33.5638 11.4468 38.3916 7.49678 44.0972 4.71713C49.8028 2.08377 56.9714 0.76709 65.603 0.76709C77.4531 0.76709 88.4254 5.15602 98.52 13.9339L83.4513 32.2211C80.9642 29.5877 78.1846 27.3933 75.2586 25.6377C72.1864 24.0284 69.1141 23.1506 65.7493 23.1506C62.2381 23.1506 59.3122 23.7358 56.9714 25.0525C54.6306 26.3692 52.7288 28.4174 51.1195 31.3433C49.5102 34.2693 47.9009 38.3656 46.438 43.6323L32.686 86.6438L55.5084 93.2272C64.2863 95.8606 71.1623 98.7866 76.1364 101.859C81.1105 104.931 84.768 108.442 86.8161 112.392C88.8643 116.342 89.8884 121.024 89.8884 126.291V140.043H63.2622V130.094C63.2622 126.144 62.0918 122.926 59.7511 120.439C57.4103 117.952 53.8992 116.05 49.3639 114.733L0.646786 100.25L0.500488 100.396Z" fill="#355C8C"/><path d="M191.419 86.3515C191.419 96.5923 187.615 104.785 180.154 111.076C172.692 117.22 161.72 120.439 147.529 120.439C140.653 120.439 134.07 119.561 127.486 117.952C120.903 116.343 114.759 114.148 109.199 111.368V87.5219C116.807 91.3256 123.829 93.959 130.12 95.7145C136.411 97.3238 141.97 98.2016 146.798 98.2016C153.966 98.2016 158.94 97.1775 161.574 95.1294C164.207 93.0812 165.524 90.4478 165.524 87.3756C165.524 85.0348 165.085 82.9866 164.061 81.0848C163.037 79.3292 160.989 77.5736 157.916 75.6718C154.844 73.9162 150.016 71.868 143.433 69.381C134.948 66.3087 128.364 63.5291 123.683 60.7494C118.855 57.9697 115.49 54.6049 113.588 50.6549C111.54 46.7048 110.662 41.2918 110.662 34.5621C110.662 24.175 114.466 16.1286 122.073 10.1304C129.681 4.27849 140.214 1.35254 153.381 1.35254C159.087 1.35254 164.939 2.08403 170.791 3.40071C176.642 4.86368 182.933 6.91185 189.517 9.54521L183.226 31.051C176.789 28.2713 171.083 26.2231 166.109 25.1991C161.135 24.0287 156.6 23.4435 152.211 23.4435C146.359 23.4435 142.262 24.3213 139.922 26.2231C137.581 28.125 136.411 30.6121 136.411 33.538C136.411 35.7325 136.849 37.4881 137.727 39.0973C138.605 40.5603 140.507 42.1696 143.433 43.6326C146.359 45.0956 150.894 46.9974 156.892 49.0456C169.181 53.1419 178.105 58.116 183.372 63.9679C188.785 69.8199 191.419 77.1347 191.419 86.2052V86.3515Z" fill="#355C8C"/><path d="M204.44 100.396L224.337 37.3415C226.97 29.1488 230.043 22.2729 233.846 16.8598C237.504 11.4468 242.332 7.49678 248.037 4.71713C253.743 2.08377 260.911 0.76709 269.543 0.76709C281.393 0.76709 292.365 5.15602 302.46 13.9339L287.391 32.2211C284.904 29.5877 282.125 27.3933 279.199 25.6377C276.126 24.0284 273.054 23.1506 269.689 23.1506C266.178 23.1506 263.252 23.7358 260.911 25.0525C258.571 26.3692 256.669 28.4174 255.059 31.3433C253.45 34.2693 251.841 38.3656 250.378 43.6323L236.626 86.6438L259.448 93.2272C268.226 95.8606 275.102 98.7866 280.076 101.859C285.05 104.931 288.708 108.442 290.756 112.392C292.804 116.342 293.828 121.024 293.828 126.291V140.043H267.202V130.094C267.202 126.144 266.032 122.926 263.691 120.439C261.35 117.952 257.839 116.05 253.304 114.733L204.587 100.25L204.44 100.396Z" fill="#355C8C"/><path d="M400.624 118.684H373.997V82.8407H353.077C338.74 82.8407 327.767 79.3295 320.306 72.1609C312.845 65.1386 309.188 55.0441 309.188 41.8773C309.188 33.6846 311.089 26.516 314.747 20.3715C318.404 14.227 323.817 9.54551 330.693 6.18066C337.569 2.81582 345.616 1.20654 354.979 1.20654C370.34 1.20654 381.751 5.15658 389.359 13.0567C396.966 20.9567 400.77 33.2457 400.77 50.2163V60.7497H422.276V82.8407H400.77V118.684H400.624ZM356.588 60.7497H374.144V52.557C374.144 42.4625 372.681 35.0013 369.755 30.3198C366.829 25.6383 361.855 23.2975 354.979 23.2975C349.273 23.2975 344.884 24.9068 341.666 27.979C338.593 31.0513 336.984 35.7328 336.984 41.8773C336.984 48.0218 338.447 52.9959 341.227 56.0682C344.006 59.1404 349.273 60.7497 356.734 60.7497H356.588Z" fill="#355C8C"/></svg>