<svg width="194" height="194" viewBox="0 0 194 194" fill="none" xmlns="http://www.w3.org/2000/svg">
<g clip-path="url(#clip0_5792_21618)">
<path d="M160.689 29.8711C160.942 29.8828 161.203 29.8904 161.449 29.9607C161.758 30.0492 162.122 30.2724 162.249 30.5806C162.55 31.3162 161.678 32.2878 161.181 32.7171C159.734 33.9669 158.056 35.0566 156.524 36.2111C152.806 38.9979 149.176 41.8941 145.634 44.8998C143.623 46.6055 141.569 48.2937 139.815 50.2706C138.917 51.2835 138.006 52.4649 137.566 53.7626C137.439 54.1372 137.313 54.5796 137.331 54.9795C137.389 56.267 138.548 58.7689 139.122 59.9803C143.09 68.2036 147.311 76.2947 151.785 84.2536C154 88.2245 156.269 92.139 158.759 95.9451C160.097 97.9888 161.46 100.09 163.131 101.883C163.994 102.81 164.938 103.583 166.143 104.012C167.467 104.483 168.916 104.515 170.206 103.904C171.936 103.084 174.874 100.459 176.506 99.1579L184.929 92.4889C186.219 91.4524 187.535 90.1007 189.043 89.4189C189.604 89.6271 190.263 89.8599 190.489 90.479C190.581 90.7331 190.579 91.1488 190.445 91.3848C190.229 91.7641 189.738 92.1525 189.4 92.4308C185.929 95.2862 182.304 97.9797 178.782 100.773C177.569 101.728 176.365 102.693 175.17 103.669C174.229 104.438 173.301 105.267 172.282 105.93C172.076 106.065 171.863 106.189 171.643 106.302C171.424 106.415 171.199 106.516 170.969 106.605C170.739 106.694 170.505 106.77 170.266 106.834C170.028 106.898 169.787 106.949 169.543 106.987C167.075 107.366 164.829 106.675 162.844 105.204C158.633 102.081 153.367 92.3753 150.716 87.6886C147.589 82.2797 144.627 76.7821 141.829 71.1957C140.937 69.4695 140.056 67.7378 139.185 66.0007C138.589 64.8066 138.036 63.5382 137.317 62.4138C136.891 61.2593 136.236 60.1722 135.75 59.0372C134.802 56.821 134.341 54.6031 135.28 52.3101C135.967 50.6298 137.186 49.1455 138.427 47.8426C140.113 46.0722 141.962 44.5029 143.816 42.9138C147.548 39.7473 151.364 36.6845 155.262 33.7253C156.758 32.5742 159.013 30.5802 160.689 29.8711Z" fill="black"/>
<path d="M45.1409 45.5441C45.0998 45.4973 45.059 45.45 45.0175 45.4036C43.2177 43.3942 38.4117 39.9547 36.0721 38.4427C35.1398 37.84 33.8341 37.3073 33.0276 36.6188C32.6263 36.2763 32.3113 35.7918 32.3285 35.247C32.3376 34.9562 32.457 34.6917 32.682 34.5051C33.0153 34.2289 33.4821 34.1684 33.8987 34.2217C35.1347 34.3797 36.5444 35.4988 37.5794 36.177C43.5483 40.0879 48.9885 44.9745 53.1985 50.7624C53.821 51.6348 54.4254 52.5195 55.0117 53.4165C55.0212 53.4765 55.0299 53.5366 55.0398 53.5967C55.1222 54.0907 55.3183 54.5739 55.452 55.0568C55.8311 56.4256 55.8027 57.5549 55.6193 58.9527C56.5766 59.2314 57.5946 59.4621 58.5144 59.8444C58.5524 59.8598 58.5903 59.8757 58.6288 59.8903C59.5037 60.2218 60.5911 60.3736 61.5126 60.5818C63.8918 61.1196 66.2601 61.6454 68.6711 62.0222C69.9774 62.2264 71.637 62.2816 72.8601 62.7713C73.1462 62.8859 73.4395 63.1728 73.5844 63.445C73.7314 63.7214 73.7083 64.0209 73.6107 64.3097C73.4969 64.6457 73.2532 64.8958 72.9276 65.0324C71.4432 65.655 60.2547 62.9801 58.1953 62.454C57.0088 62.2177 55.8874 61.8612 54.7465 61.4646C53.4236 63.9016 52.1101 66.24 50.5211 68.5186C48.4193 71.5322 46.0006 74.2948 43.6629 77.1224C41.5284 79.7175 39.4486 82.3556 37.4233 85.0368C35.5557 87.4781 33.6519 89.8932 31.8253 92.3652C30.0464 94.7726 28.3 97.4187 26.1895 99.5434C25.386 100.352 24.3383 100.947 23.2484 101.275C23.0269 101.34 22.8031 101.395 22.577 101.441C22.3508 101.487 22.1231 101.523 21.8938 101.549C21.6646 101.576 21.4347 101.593 21.204 101.6C20.9733 101.607 20.7427 101.604 20.5123 101.591C20.1274 101.573 19.7208 101.492 19.3385 101.511C16.2158 100.143 13.6281 97.6631 11.0164 95.5143L2.94266 88.7923C2.90802 88.5292 2.88226 88.2677 2.89315 88.0017C2.9106 87.5758 3.0647 87.0806 3.39871 86.7928C3.74073 86.498 4.25265 86.4984 4.65113 86.6754C5.6007 87.0969 7.16083 88.7133 8.01185 89.4605C9.96163 91.1724 11.9775 92.7983 13.9736 94.4551C15.4869 95.7113 16.987 97.1377 18.6854 98.1318C19.4279 98.5666 20.22 98.9231 21.0968 98.9311C22.5018 98.9436 23.7563 98.1198 24.6964 97.1406C26.5695 95.1894 28.1346 92.7886 29.7463 90.6194C32.1504 87.3837 34.6078 84.1621 37.0808 80.9783C38.7941 78.7815 40.5405 76.6114 42.3201 74.4678C44.3116 72.1153 46.3365 69.8601 48.0475 67.2841C49.7461 64.7265 53.1638 59.8562 53.0248 56.7821C52.8806 53.5965 47.4853 47.6596 45.1409 45.5441Z" fill="black"/>
<path d="M139.121 59.9797L139.203 59.8132C139.9 58.3593 140.339 56.947 141.359 55.6503C143.507 52.9186 146.202 50.8257 148.864 48.6292C151.942 46.0479 155.086 43.5483 158.295 41.1305C160.893 39.1454 163.512 36.9856 166.265 35.2197C170.077 41.9026 173.807 48.6313 177.453 55.4058L186.561 72.1818C188.283 75.3994 189.954 78.6431 191.574 81.9129C192.337 83.4329 193.12 85.3341 193.999 86.7381V92.8946C192.392 94.4246 190.568 95.7862 188.848 97.1883C185.668 99.7928 182.46 102.361 179.223 104.894C177.42 106.298 175.007 108.448 173.049 109.493C172.111 109.994 170.984 110.188 169.926 110.171C168.346 110.145 167.033 109.496 165.71 108.69C163.334 107.029 161.279 104.902 159.507 102.617C156.123 98.2531 153.288 93.3582 150.534 88.5807C146.941 82.4145 143.572 76.1279 140.428 69.7208C139.35 67.5141 138 65.3149 137.156 63.0116C137.178 62.8066 137.256 62.6097 137.317 62.4133C138.035 63.5377 138.589 64.806 139.185 66.0002C140.056 67.7371 140.937 69.4687 141.829 71.1952C144.626 76.7815 147.589 82.2791 150.716 87.688C153.367 92.3747 158.633 102.08 162.844 105.203C164.829 106.675 167.074 107.365 169.543 106.986C169.787 106.948 170.028 106.897 170.266 106.833C170.504 106.769 170.738 106.693 170.969 106.604C171.199 106.515 171.424 106.414 171.643 106.302C171.862 106.189 172.075 106.065 172.281 105.929C173.3 105.267 174.229 104.437 175.169 103.668C176.365 102.692 177.569 101.727 178.781 100.772C182.303 97.9791 185.928 95.2856 189.399 92.4302C189.738 92.1519 190.229 91.7635 190.444 91.3842C190.579 91.1482 190.581 90.7325 190.488 90.4785C190.263 89.8593 189.603 89.6265 189.042 89.4183C187.534 90.1001 186.219 91.4519 184.929 92.4884L176.505 99.1573C174.874 100.459 171.936 103.083 170.205 103.903C168.915 104.515 167.466 104.482 166.142 104.011C164.938 103.583 163.994 102.809 163.131 101.883C161.46 100.09 160.096 97.9882 158.759 95.9446C156.268 92.1385 154 88.224 151.784 84.253C147.31 76.2941 143.089 68.203 139.121 59.9797ZM169.656 48.598C169.206 48.8863 168.853 49.1496 168.728 49.6939C168.654 50.0196 168.752 50.2657 168.891 50.5605C169.597 52.0557 170.495 53.4832 171.29 54.935L175.775 63.1578L179.717 70.3709C180.424 71.6802 181.079 73.0833 181.879 74.3359C182.057 74.6157 182.255 74.8666 182.607 74.924C182.854 74.9645 183.134 74.9287 183.383 74.9117C183.809 74.6432 184.24 74.3642 184.332 73.8316C184.381 73.5461 184.272 73.3428 184.148 73.0937C183.649 72.0833 183.071 71.1076 182.545 70.1096C180.127 65.5144 177.561 61.0049 175.077 56.4462C174.105 54.6199 173.121 52.8003 172.125 50.9875C171.777 50.3555 171.419 49.4903 170.948 48.9522C170.692 48.6593 170.253 48.6046 169.886 48.5978C169.809 48.5965 169.733 48.5966 169.656 48.598Z" fill="#496D99"/>
<path d="M2.13086 72.002C1.94439 72.007 1.75523 72.0104 1.56895 71.999C1.20478 71.9765 0.829103 71.809 0.599365 71.5167C0.40067 71.2639 0.373841 70.9566 0.414854 70.6482C0.447732 70.4008 0.550103 70.2077 0.689635 70.0042C1.42388 68.9338 2.29692 67.9244 3.08993 66.8946L8.10377 60.3459L20.0014 44.6922C20.9841 43.423 23.5417 39.8469 24.6189 39.0313C24.8406 39.0254 25.088 39.0061 25.3053 39.0539C25.6247 39.124 26.0148 39.421 26.1889 39.698C26.3651 39.9786 26.3877 40.2963 26.3136 40.6142C26.2281 40.9821 25.9599 41.3402 25.7375 41.6401C24.2389 43.661 22.6024 45.6002 21.0682 47.5976L11.9327 59.6088C9.05636 63.3427 6.31181 67.1979 3.33025 70.8477C2.96751 71.2918 2.63085 71.7029 2.13086 72.002Z" fill="black"/>
<path d="M1.03125 87.291C1.13024 86.9735 1.26553 86.6828 1.4147 86.3863C2.30075 84.6258 3.33471 82.9106 4.31038 81.1972C10.1371 70.9641 17.0901 61.6424 24.4554 52.4828C26.7039 49.6864 28.8936 46.8719 31.2021 44.122C31.8324 43.371 34.6283 39.6172 35.3937 39.4908C36.3288 39.3366 40.8325 42.4925 41.8088 43.1935C42.8538 43.9435 43.9259 44.9113 45.059 45.5024C45.0863 45.5166 45.1142 45.53 45.1418 45.5438C47.4863 47.6593 52.8816 53.5962 53.0257 56.7818C53.1648 59.8559 49.7471 64.7262 48.0484 67.2838C46.3375 69.8598 44.3126 72.115 42.3211 74.4675C40.5415 76.6111 38.795 78.7812 37.0817 80.978C34.6088 84.1618 32.1514 87.3834 29.7472 90.6191C28.1356 92.7883 26.5705 95.1891 24.6974 97.1403C23.7573 98.1195 22.5027 98.9433 21.0978 98.9308C20.221 98.9228 19.4289 98.5663 18.6864 98.1315C16.988 97.1374 15.4879 95.711 13.9745 94.4548C11.9785 92.798 9.9626 91.1721 8.01282 89.4602C7.1618 88.713 5.60167 87.0966 4.6521 86.6751C4.25362 86.4981 3.7417 86.4977 3.39968 86.7925C3.06567 87.0803 2.91157 87.5755 2.89412 88.0014C2.88323 88.2674 2.90899 88.5289 2.94363 88.792L1.03125 87.291Z" fill="#496D99"/>
<path d="M183.384 74.9125C183.134 74.9295 182.855 74.9653 182.607 74.9248C182.255 74.8674 182.058 74.6165 181.879 74.3367C181.08 73.084 180.424 71.681 179.717 70.3716L175.776 63.1586L171.291 54.9358C170.496 53.484 169.598 52.0565 168.892 50.5613C168.752 50.2665 168.654 50.0204 168.729 49.6947C168.853 49.1504 169.206 48.8871 169.656 48.5987C169.733 48.5974 169.81 48.5973 169.887 48.5986C170.253 48.6054 170.693 48.6601 170.949 48.953C171.42 49.4911 171.777 50.3563 172.125 50.9883C173.122 52.8011 174.106 54.6207 175.078 56.447C177.562 61.0057 180.128 65.5152 182.546 70.1104C183.071 71.1084 183.649 72.0841 184.149 73.0945C184.272 73.3436 184.381 73.5469 184.332 73.8324C184.24 74.3649 183.809 74.644 183.384 74.9125Z" fill="black"/>
<path d="M76.8982 68.6089C79.0074 65.9962 81.0031 63.2576 82.9715 60.5363C86.3797 55.8242 88.0414 52.1848 94.5145 51.5098C100.903 50.8437 107.745 53.5976 113.766 55.5372C116.208 56.3238 118.719 57.0572 121.214 57.6545C123.298 58.1538 125.372 58.5563 127.51 58.738C128.422 58.8155 129.429 58.6907 130.316 58.8286C130.645 58.8796 130.97 59.0089 131.226 59.2236C131.468 59.4271 131.651 59.7188 131.671 60.0401C131.69 60.3505 131.552 60.632 131.341 60.8512C130.765 61.4499 129.839 61.4866 129.06 61.4754C124.67 61.412 120.077 60.2091 115.888 58.9669C110.342 57.3222 102.441 54.1247 96.7548 54.0369C94.2403 53.9983 91.1837 54.7104 89.3276 56.511C87.7449 58.0463 86.5235 60.0996 85.2487 61.8943C84.2408 63.3131 83.1604 64.681 82.1159 66.0729C81.3569 67.0842 80.6351 68.1319 79.8423 69.1165C78.0108 71.766 75.8333 74.2556 73.8588 76.805C73.1049 77.7784 72.1374 78.8223 71.5995 79.935C71.4292 80.287 71.3841 80.5763 71.4499 80.9656C71.6755 82.2997 72.7609 83.6858 73.6832 84.6285C74.5975 85.4702 75.539 86.2049 76.6439 86.783C78.4585 87.7323 81.2211 88.5792 83.2496 87.903C84.6208 87.446 86.5476 85.224 87.7027 84.1933C89.8422 82.2844 97.795 75.459 100.115 74.7868C100.823 74.5816 101.565 74.6525 102.241 74.9351C105.793 76.4193 110.404 82.5015 113.957 84.947C114.177 85.1013 114.401 85.2492 114.63 85.3907C114.859 85.5321 115.091 85.667 115.328 85.7952C115.564 85.9232 115.804 86.0445 116.048 86.1589C116.291 86.2732 116.537 86.3805 116.787 86.4808C117.037 86.5811 117.289 86.6741 117.544 86.7598C117.799 86.8455 118.056 86.9239 118.315 86.995C118.575 87.0659 118.836 87.1294 119.099 87.1854C119.362 87.2414 119.626 87.2899 119.892 87.3307C121.05 87.4972 122.237 87.5053 123.404 87.4601C124.483 87.4182 126.847 86.7066 127.736 87.2373C128.082 87.4438 128.325 87.8771 128.387 88.2681C128.435 88.5678 128.357 88.8378 128.164 89.0697C127.355 90.0421 124.921 90.0806 123.694 90.1691C118.519 90.5423 114.108 88.9132 110.239 85.4545C108.31 83.7305 106.563 81.8138 104.602 80.1203C103.527 79.0607 102.403 78.045 101.084 77.2915C97.2551 79.399 93.7966 82.5498 90.5058 85.4073C88.7911 86.8964 86.2619 89.643 84.2296 90.4512C82.4709 91.1504 79.9616 90.8361 78.1959 90.3185C76.6748 89.8728 75.2886 89.1636 73.9069 88.399C73.65 88.0279 72.8653 87.541 72.4928 87.2172C70.7622 85.7124 69.0721 83.5524 68.7344 81.213C68.6185 80.4088 68.7146 79.6946 69.0535 78.957C69.9519 77.0009 72.4295 74.3113 73.8802 72.5259C74.914 71.2416 75.92 69.936 76.8982 68.6089Z" fill="black"/>
<path d="M55.0156 53.417C56.1253 54.8961 57.3957 56.5651 58.0717 58.2894C58.2702 58.7958 58.3589 59.3285 58.5182 59.845C57.5984 59.4626 56.5805 59.2319 55.6232 58.9532C55.8066 57.5554 55.835 56.4261 55.4559 55.0573C55.3222 54.5744 55.1261 54.0913 55.0437 53.5972C55.0338 53.5371 55.0251 53.477 55.0156 53.417Z" fill="#496D99"/>
<path d="M85.044 69.4599C85.5395 69.1621 90.5156 62.5259 91.5995 61.3553C93.1183 59.7153 94.756 58.2272 96.9722 57.6556C102.236 56.2982 110.23 59.5094 115.327 61.1308C120.231 62.6905 127.687 65.0011 132.769 64.7671C134.353 64.6942 136.059 64.2147 137.155 63.0116C137.999 65.315 139.348 67.5142 140.426 69.7209C143.57 76.128 146.939 82.4146 150.533 88.5808C153.286 93.3582 156.121 98.2531 159.506 102.617C161.278 104.902 163.333 107.029 165.709 108.69C161.899 112.313 157.826 115.378 153.16 117.817C152.292 118.271 151.082 119.025 150.074 118.97C149.793 118.955 149.6 118.863 149.41 118.652C148.871 118.056 148.818 116.862 148.786 116.098L148.783 115.991C148.043 116.149 147.286 116.281 146.559 116.493L146.426 116.518C143.762 111.04 138.88 107.194 134.412 103.247C132.114 101.217 129.833 99.1275 127.479 97.164C127.964 96.4247 128.518 95.5928 128.466 94.6674C128.436 94.1492 128.071 93.52 127.583 93.3018C126.975 93.0299 123.646 93.4594 122.621 93.3899C121.279 93.2988 119.977 92.9246 118.723 92.4555C115.663 91.3104 112.135 87.5767 109.69 85.3025C107.899 83.6361 106.114 81.9626 104.25 80.3771L104.598 80.12C106.559 81.8135 108.306 83.7302 110.235 85.4543C114.105 88.9129 118.515 90.542 123.691 90.1688C124.917 90.0803 127.351 90.0419 128.16 89.0694C128.353 88.8375 128.431 88.5675 128.384 88.2678C128.321 87.8768 128.079 87.4435 127.733 87.237C126.844 86.7064 124.48 87.4179 123.401 87.4598C122.233 87.5051 121.047 87.4969 119.889 87.3304C119.623 87.2896 119.358 87.2412 119.095 87.1851C118.832 87.1292 118.571 87.0657 118.312 86.9947C118.052 86.9236 117.795 86.8452 117.54 86.7596C117.285 86.6738 117.033 86.5808 116.783 86.4805C116.534 86.3802 116.287 86.273 116.044 86.1586C115.801 86.0442 115.561 85.923 115.324 85.7949C115.088 85.6667 114.855 85.5319 114.627 85.3904C114.398 85.249 114.173 85.1011 113.953 84.9467C110.401 82.5013 105.79 76.4191 102.237 74.9349C101.561 74.6522 100.82 74.5814 100.112 74.7865C97.7916 75.4587 89.8387 82.2841 87.6992 84.1931C86.5441 85.2237 84.6174 87.4458 83.2461 87.9028C81.2176 88.5789 78.455 87.7321 76.6405 86.7827C75.5356 86.2047 74.594 85.47 73.6797 84.6282C74.9896 82.6348 76.5927 80.7431 78.0293 78.8317C80.3733 75.7133 82.6594 72.5478 85.044 69.4599ZM154.511 109.032C153.572 109.638 152.879 110.581 152.011 111.282C151.074 112.037 148.327 113.063 148.028 114.088C147.911 114.492 148.078 115.01 148.304 115.346C148.476 115.602 148.7 115.809 149.02 115.847C149.187 115.866 149.34 115.832 149.502 115.796C151.309 115.123 155.277 112.631 156.078 110.871C156.212 110.576 156.267 110.264 156.157 109.952C156.038 109.614 155.679 109.229 155.341 109.105C155.09 109.014 154.774 109.017 154.511 109.032Z" fill="#F4D6C8"/>
<path d="M54.744 61.4648C55.8849 61.8614 57.0062 62.2179 58.1928 62.4542C58.0761 62.9579 57.9916 63.5009 57.7866 63.9762C57.3349 64.961 57.0113 65.9998 56.4979 66.9573C53.5673 72.4236 49.1829 76.8225 45.3234 81.6069C41.8272 85.941 38.4533 90.3896 35.0482 94.7957C33.6825 96.5629 32.207 98.2515 30.8786 100.046C30.5377 99.7016 30.2691 99.4777 29.7631 99.4888C29.3315 99.4983 28.935 99.7086 28.6614 100.038C28.398 100.356 28.2552 100.775 28.3046 101.188C28.3598 101.647 28.5597 101.938 28.9374 102.2C28.9797 102.23 29.024 102.256 29.0672 102.284C28.888 102.511 28.682 102.731 28.4746 102.933C27.5152 103.866 26.2318 104.497 24.8738 104.464C22.9314 104.417 20.6422 102.842 19.3359 101.511C19.7183 101.493 20.1248 101.574 20.5098 101.591C20.7402 101.604 20.9707 101.607 21.2015 101.6C21.4321 101.593 21.662 101.576 21.8913 101.55C22.1205 101.523 22.3482 101.487 22.5744 101.441C22.8005 101.395 23.0243 101.34 23.2459 101.275C24.3358 100.947 25.3835 100.352 26.1869 99.5436C28.2975 97.4189 30.0438 94.7728 31.8228 92.3654C33.6493 89.8934 35.5531 87.4783 37.4208 85.037C39.4461 82.3558 41.526 79.7177 43.6604 77.1226C45.9981 74.295 48.4168 71.5324 50.5186 68.5188C52.1075 66.2402 53.421 63.9018 54.744 61.4648Z" fill="#496D99"/>
<path d="M30.8828 100.045C32.2113 98.2509 33.6867 96.5623 35.0525 94.7951C38.4575 90.389 41.8315 85.9404 45.3277 81.6063C49.1872 76.8218 53.5715 72.4229 56.5022 66.9566C57.0156 65.9991 57.3392 64.9604 57.7908 63.9756C60.077 64.7575 62.3849 65.4689 64.7146 66.1096C67.0442 66.7504 69.3913 67.3196 71.7558 67.8169C72.8837 68.0477 74.0178 68.2421 75.1582 68.4001C75.7339 68.4791 76.3307 68.4948 76.8989 68.6085C75.9207 69.9355 74.9147 71.2412 73.8809 72.5254C72.4303 74.3108 69.9526 77.0005 69.0542 78.9566C68.7153 79.6941 68.6192 80.4084 68.7352 81.2126C69.0728 83.552 70.7629 85.7119 72.4935 87.2168C72.866 87.5405 73.6507 88.0274 73.9076 88.3986C74.3875 89.6313 77.8306 92.1501 79.0823 92.7931C81.2326 93.8976 84.0091 94.481 86.3623 93.6907C87.1392 93.4299 87.8915 92.9509 88.545 92.4635C89.795 91.531 90.9156 90.3643 92.0879 89.3326C94.8299 86.9193 97.6285 84.4225 100.576 82.2684C101.375 81.6843 102.773 80.4823 103.701 80.2271C103.955 80.157 104.033 80.2557 104.254 80.3769C106.118 81.9625 107.903 83.6359 109.695 85.3023C112.139 87.5765 115.667 91.3103 118.727 92.4553C119.981 92.9244 121.283 93.2986 122.625 93.3897C123.65 93.4592 126.979 93.0297 127.587 93.3016C128.075 93.5199 128.441 94.149 128.47 94.6672C128.522 95.5927 127.968 96.4246 127.484 97.1638C126.99 96.9395 126.628 96.8095 126.102 97.0236C125.767 97.16 125.456 97.3841 125.32 97.7316C125.17 98.1145 125.286 98.5347 125.485 98.8759C126.05 99.8457 127.962 101.199 128.86 101.999C130.491 103.452 132.087 104.963 133.754 106.372C135.763 108.071 137.739 109.773 139.578 111.661C142.831 115 145.547 118.721 144.454 123.624C143.954 125.868 142.378 128.391 140.415 129.636C139.835 130.004 139.185 130.318 138.535 130.538C137.813 130.783 136.782 130.909 136.167 131.342C135.92 131.516 135.79 131.828 135.667 132.096C134.88 132.001 132.837 132.513 132.174 132.907C131.469 131.979 130.899 130.935 130.154 130.041C128.94 128.583 121.454 120.646 120.295 120.587C119.907 120.568 119.498 120.825 119.253 121.11C119.229 121.137 119.206 121.167 119.184 121.197C119.163 121.227 119.143 121.259 119.125 121.291C119.107 121.323 119.091 121.357 119.076 121.391C119.061 121.425 119.048 121.46 119.037 121.495C119.026 121.531 119.017 121.566 119.01 121.603C119.002 121.639 118.997 121.676 118.994 121.713C118.99 121.75 118.989 121.787 118.989 121.824C118.99 121.861 118.992 121.898 118.996 121.935C119.132 123.196 121.315 124.826 122.22 125.689C125.082 128.42 130.49 133.437 131.124 137.4C131.33 138.692 131.016 139.895 130.243 140.946C128.333 143.544 124.602 144.827 121.537 145.249C120.756 145.357 119.302 145.214 118.792 145.9C118.526 146.259 118.488 146.792 118.592 147.212C118.608 147.276 118.626 147.339 118.645 147.402C118.165 147.474 117.667 147.511 117.194 147.613C116.193 146.771 115.199 145.929 114.172 145.117C113.267 143.724 111.985 142.559 110.823 141.382L106.885 137.394C105.259 135.749 103.664 133.887 101.896 132.405C101.631 132.183 101.393 132.013 101.045 131.952C101.006 131.945 100.967 131.94 100.927 131.936C100.888 131.933 100.848 131.932 100.809 131.933C100.769 131.934 100.73 131.937 100.69 131.943C100.651 131.948 100.612 131.955 100.573 131.964C100.535 131.973 100.497 131.985 100.459 131.998C100.422 132.011 100.385 132.026 100.35 132.043C100.314 132.06 100.279 132.079 100.245 132.099C100.211 132.12 100.178 132.142 100.147 132.166C99.8542 132.389 99.6621 132.75 99.6234 133.114C99.5584 133.728 100.028 134.247 100.41 134.677C101.622 136.042 102.995 137.28 104.285 138.572C105.606 139.894 106.868 141.272 108.173 142.608C109.446 143.911 110.993 145.179 111.802 146.847C112.254 147.781 112.34 148.926 112.282 149.954C112.129 152.699 110.637 154.892 108.633 156.667C107.274 157.87 105.695 158.874 103.799 158.739C103.344 158.707 102.915 158.618 102.511 158.398C101.064 157.611 99.7812 156.333 98.4857 155.318C96.7562 153.963 94.9579 152.694 93.2438 151.32C92.4416 150.677 91.5374 149.747 90.6522 149.256C89.7558 148.71 88.6742 147.8 88.0141 147.001C87.729 145.692 87.3605 144.479 86.6728 143.32C85.2348 140.896 82.9913 139.645 80.3214 138.974C79.3053 138.089 78.294 137.205 77.3822 136.212C77.3548 136.083 77.3248 135.954 77.2922 135.826C77.2596 135.698 77.2245 135.571 77.1869 135.444C77.1491 135.318 77.1089 135.192 77.0662 135.067C77.0235 134.942 76.9783 134.818 76.9305 134.695C76.8829 134.572 76.8328 134.45 76.7803 134.329C76.7276 134.208 76.6726 134.088 76.6153 133.969C76.5579 133.85 76.4982 133.733 76.4361 133.616C76.3739 133.5 76.3095 133.384 76.2428 133.271C76.1761 133.157 76.1072 133.044 76.0359 132.933C75.9647 132.822 75.8913 132.712 75.8158 132.604C75.7401 132.496 75.6623 132.389 75.5824 132.284C75.5026 132.179 75.4207 132.075 75.3367 131.974C75.2525 131.872 75.1665 131.772 75.0784 131.673C74.9904 131.575 74.9004 131.478 74.8085 131.384C74.7166 131.289 74.6229 131.196 74.5273 131.105C74.4316 131.014 74.3341 130.925 74.235 130.838C72.2859 129.121 70.3616 128.61 67.8148 128.76C67.1402 128.259 66.5191 127.664 65.8902 127.106C66.147 125.748 65.4311 123.691 64.7866 122.498C63.7599 120.598 62.1392 119.062 60.0404 118.447C58.0049 117.85 56.0753 118.141 54.2291 119.133C53.6466 117.744 53.0636 116.369 52.2056 115.121C50.8103 113.092 48.6501 111.429 46.1904 110.98C43.8704 110.556 41.8525 111.266 39.9527 112.567C38.6386 110.892 37.4222 109.11 36.1689 107.387C34.3972 104.952 32.5886 102.527 30.8828 100.045Z" fill="#D89781"/>
<path d="M73.684 84.6283C72.7618 83.6855 71.6764 82.2995 71.4508 80.9654C71.385 80.576 71.4301 80.2867 71.6004 79.9347C72.1383 78.8221 73.1058 77.7782 73.8597 76.8048C75.8341 74.2553 78.0117 71.7657 79.8432 69.1162C81.567 69.2742 83.3179 69.4099 85.0484 69.4599C82.6637 72.5478 80.3776 75.7133 78.0337 78.8317C76.5971 80.7431 74.9939 82.6348 73.684 84.6283Z" fill="#D89781"/>
<path d="M104.601 80.1207L104.253 80.3778C104.032 80.2566 103.954 80.1579 103.699 80.2279C102.772 80.4831 101.374 81.6852 100.575 82.2693C97.6271 84.4234 94.8285 86.9202 92.0866 89.3334C90.9142 90.3652 89.7936 91.5319 88.5436 92.4644C87.8902 92.9518 87.1378 93.4308 86.3609 93.6916C84.0077 94.4818 81.2313 93.8985 79.081 92.794C77.8293 92.151 74.3861 89.6322 73.9062 88.3994C75.2879 89.1641 76.6742 89.8732 78.1953 90.319C79.961 90.8366 82.4703 91.1509 84.229 90.4516C86.2612 89.6434 88.7904 86.8969 90.5052 85.4078C93.796 82.5503 97.2544 79.3995 101.083 77.292C102.402 78.0454 103.526 79.0611 104.601 80.1207Z" fill="#F4D6C8"/>
<path d="M135.665 132.096C135.789 131.829 135.918 131.517 136.166 131.342C136.78 130.909 137.812 130.783 138.533 130.538C139.183 130.318 139.834 130.004 140.413 129.637C142.377 128.391 143.953 125.868 144.453 123.625C145.545 118.721 142.83 115 139.577 111.661C137.737 109.774 135.762 108.071 133.753 106.373C132.086 104.964 130.49 103.453 128.859 102C127.961 101.199 126.049 99.8462 125.484 98.8764C125.285 98.5352 125.168 98.115 125.318 97.7321C125.454 97.3847 125.766 97.1605 126.101 97.0241C126.626 96.8101 126.988 96.94 127.482 97.1643C129.836 99.1278 132.117 101.217 134.415 103.247C138.883 107.194 143.764 111.041 146.429 116.518C147.617 119.914 147.871 123.483 146.271 126.805C144.806 129.849 142.162 132.305 138.952 133.4C138.207 133.654 137.228 133.883 136.466 133.605L136.211 133.413C135.773 132.987 135.728 132.699 135.665 132.096Z" fill="black"/>
<path d="M29.0691 102.284C29.0259 102.256 28.9816 102.23 28.9393 102.2C28.5616 101.938 28.3617 101.647 28.3066 101.188C28.2571 100.775 28.4 100.356 28.6633 100.038C28.9369 99.7084 29.3334 99.4982 29.765 99.4887C30.271 99.4775 30.5397 99.7014 30.8805 100.046C32.5863 102.528 34.3948 104.952 36.1666 107.388C37.4198 109.111 38.6363 110.892 39.9504 112.568C41.8502 111.267 43.8681 110.557 46.1881 110.98C48.6478 111.43 50.8079 113.092 52.2032 115.122C53.0613 116.37 53.6442 117.745 54.2268 119.134C56.073 118.141 58.0026 117.851 60.0381 118.448C62.1368 119.063 63.7576 120.598 64.7843 122.499C65.4288 123.692 66.1447 125.748 65.8878 127.107C65.8083 127.843 65.7266 128.571 65.7196 129.312C66.4082 129.115 67.1066 128.881 67.8125 128.761C70.3593 128.611 72.2836 129.122 74.2327 130.838C74.3318 130.926 74.4292 131.015 74.525 131.106C74.6206 131.197 74.7143 131.289 74.8061 131.384C74.8981 131.479 74.9881 131.576 75.0761 131.674C75.1641 131.772 75.2502 131.872 75.3343 131.974C75.4183 132.076 75.5002 132.179 75.5801 132.284C75.66 132.389 75.7378 132.496 75.8135 132.604C75.889 132.713 75.9624 132.822 76.0336 132.933C76.1048 133.045 76.1738 133.157 76.2405 133.271C76.3072 133.385 76.3716 133.5 76.4337 133.617C76.4959 133.733 76.5556 133.851 76.6129 133.97C76.6703 134.088 76.7253 134.208 76.778 134.329C76.8305 134.451 76.8806 134.573 76.9282 134.696C76.9759 134.819 77.0212 134.943 77.0639 135.068C77.1065 135.193 77.1468 135.318 77.1845 135.445C77.2222 135.571 77.2573 135.699 77.2899 135.827C77.3225 135.954 77.3524 136.083 77.3799 136.212C77.3951 137.215 77.4 138.218 77.3944 139.221C78.4048 138.984 79.2852 138.946 80.319 138.974C82.989 139.645 85.2325 140.897 86.6704 143.32C87.3582 144.479 87.7266 145.692 88.0118 147.002C88.029 148.158 88.0478 149.303 87.9559 150.458C87.7077 151.302 87.5177 152.261 87.0414 153.011C86.4558 153.934 78.7326 161.923 77.7942 162.591C77.0699 162.542 76.7297 162.381 76.1444 161.969C76.0334 161.652 75.9862 161.328 75.9311 160.997C76.0319 160.724 76.1414 160.464 76.3182 160.229C77.0013 159.322 77.9187 158.504 78.7123 157.686C80.0041 156.335 81.3066 154.994 82.6197 153.663C83.3946 152.89 84.4681 152.029 84.9788 151.051C85.3594 150.322 85.3943 149.465 85.4521 148.661C85.3884 148.174 85.3539 147.67 85.2516 147.19C84.8534 145.325 83.6041 143.705 82.0135 142.689C80.938 142.002 79.6105 141.592 78.3358 141.874C77.4202 142.083 76.598 142.299 75.8119 142.839C74.877 143.481 74.0616 144.395 73.2647 145.198C71.6737 146.822 70.0947 148.458 68.5277 150.106C67.9369 150.716 67.278 151.564 66.5689 152.021C66.107 152.318 65.5102 152.453 65.0213 152.139C64.655 151.904 64.4355 151.484 64.3642 151.063C64.3254 150.834 64.3258 150.626 64.3584 150.396C65.1469 149.861 66.3738 148.331 67.1069 147.593C69.4126 145.273 71.892 143.069 74.0637 140.625C74.4445 140.196 74.7476 139.815 74.9708 139.277C75.0949 138.112 74.9833 137.113 74.5328 136.033C73.7988 134.276 72.3978 132.574 70.594 131.855C68.7145 131.106 67.102 131.6 65.3445 132.363C64.2489 133.055 63.2429 134.283 62.3411 135.212C60.8026 136.826 59.2547 138.43 57.6976 140.026C57.0036 140.737 56.2706 141.619 55.4198 142.141C55.0736 142.353 54.718 142.441 54.3183 142.341C53.9638 142.251 53.6831 141.877 53.5432 141.56C53.4591 141.369 53.4091 141.161 53.3604 140.959C53.7471 140.003 54.6385 139.278 55.3514 138.555L59.3202 134.506C60.341 133.46 61.5052 132.412 62.282 131.165C62.7079 130.481 62.9369 129.782 63.1508 129.011C63.3851 127.252 63.2953 125.551 62.4869 123.94C61.8303 122.632 60.7112 121.517 59.2867 121.086C57.2997 120.485 56.0046 121.394 54.3694 122.308C53.6281 122.804 52.9143 123.756 52.2855 124.413L46.719 130.125C45.9858 130.869 45.1391 131.947 44.272 132.507C44.0033 132.681 43.6945 132.763 43.3764 132.696C42.9765 132.612 42.6692 132.263 42.4796 131.921C42.3964 131.771 42.338 131.614 42.2793 131.454C42.3231 131.133 42.3735 130.868 42.5639 130.6C43.542 129.224 44.9432 128 46.1383 126.803L52.0473 120.922C51.8973 120.596 51.753 120.267 51.6146 119.936C51.1215 118.575 50.537 117.244 49.6096 116.118C48.5449 114.825 46.9698 113.753 45.2605 113.632C43.2167 113.488 41.6867 114.667 40.2419 115.93C38.789 117.309 35.7242 119.277 34.9965 121.041C34.6173 121.961 34.8118 123.258 34.2526 124.035C34.0224 124.355 33.5891 124.622 33.1895 124.644C32.8987 124.659 32.6956 124.594 32.4903 124.38C31.9155 123.78 31.9452 122.63 32.0001 121.853C32.2354 118.515 35.675 116.304 38.0062 114.293C36.9886 113 35.9707 111.69 35.0111 110.353C34.018 108.969 29.9874 102.997 29.0691 102.284Z" fill="black"/>
<path d="M149.504 115.796C149.343 115.832 149.19 115.866 149.022 115.847C148.702 115.81 148.478 115.603 148.306 115.347C148.08 115.01 147.913 114.493 148.031 114.088C148.329 113.064 151.076 112.037 152.013 111.282C152.882 110.582 153.575 109.638 154.514 109.033C154.777 109.017 155.092 109.014 155.343 109.106C155.682 109.229 156.04 109.614 156.159 109.952C156.27 110.265 156.215 110.577 156.081 110.872C155.279 112.632 151.312 115.123 149.504 115.796Z" fill="black"/>
<path d="M40.2422 115.93C41.687 114.667 43.217 113.488 45.2608 113.632C46.97 113.753 48.5452 114.825 49.6099 116.118C50.5373 117.244 51.1217 118.575 51.6149 119.936C50.7659 119.403 50.0358 118.763 49.1234 118.31C46.2162 116.867 45.4423 118.988 42.555 118.511C42.5331 118.492 42.5109 118.473 42.4891 118.454L42.3813 118.357C41.5793 117.652 40.9318 116.745 40.2422 115.93Z" fill="#D89781"/>
<path d="M146.432 116.518L146.565 116.493C148.171 119.049 149.195 120.586 149.339 123.686C149.398 124.942 149.33 126.167 149.053 127.396C149.008 127.591 148.958 127.785 148.904 127.977C148.849 128.17 148.79 128.361 148.726 128.551C148.662 128.74 148.594 128.928 148.521 129.114C148.447 129.3 148.37 129.484 148.287 129.667C148.205 129.849 148.118 130.029 148.027 130.207C147.936 130.385 147.841 130.561 147.741 130.734C147.641 130.908 147.537 131.078 147.429 131.247C147.32 131.415 147.208 131.58 147.092 131.743C146.975 131.905 146.855 132.065 146.73 132.222C146.606 132.379 146.478 132.532 146.346 132.683C146.214 132.833 146.079 132.98 145.94 133.124C145.801 133.268 145.658 133.408 145.512 133.545C145.366 133.681 145.217 133.814 145.064 133.944C144.911 134.073 144.756 134.198 144.597 134.32C144.438 134.442 144.276 134.559 144.112 134.673C143.947 134.786 143.78 134.896 143.61 135.001C142.178 135.888 139.77 136.839 138.068 136.419C137.571 136.296 137.161 135.994 136.907 135.547C136.574 134.96 136.583 134.253 136.469 133.604C137.231 133.882 138.21 133.654 138.955 133.4C142.165 132.305 144.808 129.848 146.274 126.805C147.874 123.483 147.62 119.913 146.432 116.518Z" fill="#F4D6C8"/>
<path d="M42.5569 118.511C45.4442 118.988 46.2181 116.867 49.1253 118.31C50.0377 118.763 50.7678 119.403 51.6168 119.936C51.7551 120.267 51.8993 120.596 52.0495 120.922L46.1404 126.803C44.9454 128 43.5442 129.224 42.566 130.6C42.3756 130.868 42.3252 131.133 42.2815 131.454C40.227 130.805 38.3534 130.282 36.7148 128.811C36.0644 128.227 35.3189 127.4 35.3049 126.48C35.2998 126.148 35.4053 125.859 35.5837 125.583C36.0788 124.817 36.8106 124.16 37.4453 123.509C39.1104 121.801 40.861 120.187 42.5569 118.511Z" fill="#F4D6C8"/>
<path d="M118.645 147.403C118.626 147.34 118.609 147.276 118.593 147.213C118.489 146.793 118.526 146.26 118.792 145.901C119.302 145.215 120.756 145.358 121.537 145.25C124.603 144.828 128.334 143.544 130.244 140.946C131.016 139.896 131.331 138.692 131.124 137.401C130.49 133.438 125.082 128.42 122.22 125.69C121.315 124.827 119.133 123.197 118.996 121.936C118.992 121.899 118.99 121.862 118.989 121.825C118.989 121.788 118.99 121.751 118.994 121.714C118.997 121.677 119.003 121.64 119.01 121.603C119.017 121.567 119.026 121.531 119.037 121.496C119.048 121.46 119.061 121.425 119.076 121.391C119.091 121.357 119.107 121.324 119.125 121.292C119.144 121.259 119.163 121.228 119.185 121.197C119.206 121.167 119.229 121.138 119.254 121.11C119.498 120.826 119.907 120.568 120.296 120.588C121.455 120.646 128.94 128.583 130.155 130.041C130.899 130.935 131.47 131.98 132.175 132.908C132.522 133.504 133.032 134.241 133.142 134.934C133.394 135.672 133.637 136.414 133.87 137.159C133.867 139.781 133.255 141.759 131.363 143.641C128.872 146.118 123.861 148.054 120.375 148.027C119.762 148.022 119.182 147.964 118.737 147.506C118.705 147.473 118.676 147.437 118.645 147.403Z" fill="black"/>
<path d="M54.3672 122.308C56.0024 121.394 57.2975 120.485 59.2844 121.086C60.7089 121.517 61.828 122.632 62.4847 123.94C63.2931 125.551 63.3829 127.252 63.1485 129.011C60.9816 127.482 58.8767 125.803 56.8295 124.119C56.0309 123.486 55.2101 122.882 54.3672 122.308Z" fill="#D89781"/>
<path d="M56.8352 124.119C58.8824 125.802 60.9872 127.482 63.1542 129.01C62.9403 129.782 62.7112 130.481 62.2853 131.164C61.5086 132.411 60.3444 133.46 59.3236 134.506L55.3548 138.555C54.6419 139.277 53.7505 140.003 53.3638 140.959C50.9274 140.412 48.0405 138.855 46.1919 137.172C45.7199 136.742 45.1184 136.112 45.1251 135.428C45.1334 134.572 55.4444 125.391 56.8352 124.119Z" fill="#F4D6C8"/>
<path d="M65.3438 132.362C67.1013 131.6 68.7137 131.106 70.5933 131.855C72.3971 132.574 73.7981 134.276 74.532 136.033C74.9826 137.113 75.0941 138.112 74.9701 139.277C72.6583 137.952 70.5799 136.086 68.4135 134.534C67.9184 134.18 67.3141 133.63 66.7482 133.415C66.4981 132.974 65.7659 132.631 65.3438 132.362Z" fill="#D89781"/>
<path d="M90.6509 149.256C91.536 149.748 92.4402 150.677 93.2424 151.32C94.9566 152.695 96.7548 153.964 98.4844 155.319C99.7798 156.334 101.063 157.612 102.509 158.399C102.914 158.619 103.342 158.707 103.798 158.74C105.693 158.875 107.273 157.87 108.631 156.667C110.635 154.893 112.127 152.699 112.281 149.955C112.338 148.926 112.253 147.782 111.8 146.848C110.992 145.179 109.445 143.912 108.171 142.608C106.866 141.272 105.604 139.895 104.284 138.573C102.994 137.281 101.621 136.043 100.408 134.678C100.027 134.248 99.557 133.729 99.622 133.114C99.6607 132.75 99.8528 132.39 100.145 132.167C100.177 132.143 100.21 132.121 100.244 132.1C100.277 132.079 100.312 132.061 100.348 132.043C100.384 132.027 100.421 132.012 100.458 131.998C100.495 131.985 100.533 131.974 100.572 131.965C100.611 131.956 100.65 131.948 100.689 131.943C100.728 131.938 100.768 131.935 100.807 131.934C100.847 131.933 100.887 131.934 100.926 131.937C100.966 131.94 101.005 131.945 101.044 131.953C101.392 132.013 101.63 132.184 101.895 132.406C103.663 133.887 105.258 135.75 106.884 137.395L110.821 141.382C111.984 142.56 113.265 143.725 114.171 145.118C114.841 147.02 115.041 148.764 114.977 150.776C114.324 154.47 112.46 157.474 109.36 159.629C107.426 160.974 105.218 161.809 102.845 161.365C102.374 161.277 101.904 161.13 101.453 160.97C100.195 159.889 98.7146 158.953 97.3736 157.968C94.6273 155.951 91.9079 153.92 89.2891 151.736C89.8337 150.943 90.2843 150.147 90.6509 149.256Z" fill="black"/>
<path d="M132.172 132.908C132.835 132.514 134.878 132.002 135.664 132.096C135.727 132.699 135.772 132.987 136.21 133.413C135.204 134.094 134.334 134.652 133.139 134.934C133.029 134.241 132.52 133.504 132.172 132.908Z" fill="#F4D6C8"/>
<path d="M64.3578 150.396C62.3058 150.338 60.5117 149.073 58.8521 148.006C58.0537 147.493 57.2332 147.014 56.5474 146.348C56.1035 145.918 55.5865 145.218 55.6452 144.556C55.6842 144.116 56.0067 143.659 56.2621 143.308C56.9485 142.365 57.8332 141.546 58.5937 140.66C59.7245 139.343 60.7644 137.755 62.1183 136.66C63.0621 135.896 64.1892 135.423 65.1963 134.754C65.769 134.374 66.2557 133.891 66.7483 133.415C67.3142 133.631 67.9185 134.18 68.4136 134.535C70.58 136.087 72.6585 137.952 74.9702 139.277C74.747 139.815 74.4439 140.196 74.0631 140.625C71.8914 143.069 69.412 145.273 67.1064 147.593C66.3732 148.331 65.1463 149.861 64.3578 150.396Z" fill="#F4D6C8"/>
<path d="M133.87 137.159C134.821 138.595 135.153 140.258 134.802 141.948C134.263 144.542 132.531 146.548 130.345 147.949C128.265 149.282 123.6 151.09 121.122 150.617C119.807 150.366 118.277 148.459 117.195 147.613C117.668 147.511 118.166 147.475 118.646 147.402C118.676 147.437 118.705 147.472 118.737 147.505C119.183 147.964 119.762 148.022 120.376 148.027C123.861 148.054 128.873 146.118 131.363 143.641C133.256 141.759 133.868 139.78 133.87 137.159Z" fill="#F4D6C8"/>
<path d="M78.3333 141.875C79.6079 141.592 80.9354 142.002 82.0109 142.689C83.6016 143.705 84.8508 145.325 85.2491 147.19C85.3514 147.67 85.3859 148.174 85.4495 148.661C85.0873 148.222 82.9146 147.275 82.2307 146.786C80.4775 145.532 79.0727 144.029 77.4766 142.606C77.6986 142.316 78.0434 142.092 78.3333 141.875Z" fill="#D89781"/>
<path d="M75.9316 160.997C75.1728 160.407 74.0998 160.091 73.2275 159.682C71.4222 158.835 69.3449 157.647 67.877 156.282C67.3482 155.79 66.7605 155.089 66.7657 154.324C66.781 152.033 75.4271 144.678 77.4796 142.605C79.0758 144.029 80.4806 145.532 82.2338 146.786C82.9177 147.275 85.0903 148.221 85.4526 148.66C85.3948 149.464 85.3599 150.322 84.9793 151.051C84.4685 152.028 83.3951 152.89 82.6202 153.663C81.3071 154.993 80.0046 156.335 78.7128 157.686C77.9191 158.503 77.0018 159.322 76.3186 160.229C76.1419 160.464 76.0324 160.724 75.9316 160.997Z" fill="#F4D6C8"/>
<path d="M77.7969 162.591C78.7352 161.923 86.4585 153.934 87.0441 153.011C87.5204 152.261 87.7104 151.302 87.9586 150.458C87.9821 150.514 88.0046 150.571 88.0289 150.626C88.21 151.043 88.514 151.391 88.7063 151.806C89.2199 152.914 89.3927 154.591 88.9363 155.763C88.5324 156.8 81.9557 163.506 80.9638 163.91C80.3246 164.169 79.5224 164.139 78.9069 163.832C78.3353 163.547 78.0267 163.175 77.7969 162.591Z" fill="#F4D6C8"/>
<path d="M101.453 160.97C101.904 161.13 102.374 161.277 102.845 161.365C105.219 161.809 107.426 160.974 109.36 159.63C112.46 157.474 114.324 154.47 114.977 150.776C115.763 153.382 116.244 155.625 114.915 158.134C113.629 160.561 110.902 163.049 108.239 163.835C106.839 164.248 105.391 164.142 104.107 163.417C103.124 162.861 102.046 161.932 101.453 160.97Z" fill="#F4D6C8"/>
</g>
<defs>
<clipPath id="clip0_5792_21618">
<rect width="194" height="194" fill="white"/>
</clipPath>
</defs>
</svg>
