<?xml version="1.0" encoding="UTF-8"?><svg id="Layer_2" data-name="Layer 2" xmlns="http://www.w3.org/2000/svg" viewBox="0 0 159.44 52.65"><defs><style>.cls-1 {
        fill: #fff;
        stroke-width: 0px;
      }</style></defs><g id="Layer_1-2" data-name="Layer 1"><g><path class="cls-1" d="M0,37.66L7.52,13.83c1-3.1,2.16-5.7,3.59-7.74,1.38-2.05,3.21-3.54,5.36-4.59,2.16-1,4.87-1.49,8.13-1.49,4.48,0,8.63,1.66,12.44,4.98l-5.7,6.91c-.94-1-1.99-1.83-3.1-2.49-1.16-.61-2.32-.94-3.59-.94s-2.43.22-3.32.72c-.88.5-1.6,1.27-2.21,2.38-.61,1.11-1.22,2.65-1.77,4.65l-5.2,16.26,8.63,2.49c3.32,1,5.92,2.1,7.8,3.26,1.88,1.16,3.26,2.49,4.04,3.98.77,1.49,1.16,3.26,1.16,5.25v5.2h-10.07v-3.76c0-1.49-.44-2.71-1.33-3.65-.88-.94-2.21-1.66-3.93-2.16L.06,37.61l-.06.06Z"/><path class="cls-1" d="M72.17,32.35c0,3.87-1.44,6.97-4.26,9.35-2.82,2.32-6.97,3.54-12.33,3.54-2.6,0-5.09-.33-7.58-.94-2.49-.61-4.81-1.44-6.91-2.49v-9.01c2.88,1.44,5.53,2.43,7.91,3.1,2.38.61,4.48.94,6.3.94,2.71,0,4.59-.39,5.59-1.16,1-.77,1.49-1.77,1.49-2.93,0-.88-.17-1.66-.55-2.38-.39-.66-1.16-1.33-2.32-2.05-1.16-.66-2.99-1.44-5.48-2.38-3.21-1.16-5.7-2.21-7.47-3.26-1.83-1.05-3.1-2.32-3.82-3.82-.77-1.49-1.11-3.54-1.11-6.08,0-3.93,1.44-6.97,4.31-9.24,2.88-2.21,6.86-3.32,11.84-3.32,2.16,0,4.37.28,6.58.77,2.21.55,4.59,1.33,7.08,2.32l-2.38,8.13c-2.43-1.05-4.59-1.83-6.47-2.21-1.88-.44-3.59-.66-5.25-.66-2.21,0-3.76.33-4.65,1.05-.88.72-1.33,1.66-1.33,2.77,0,.83.17,1.49.5,2.1.33.55,1.05,1.16,2.16,1.71,1.11.55,2.82,1.27,5.09,2.05,4.65,1.55,8.02,3.43,10.01,5.64,2.05,2.21,3.04,4.98,3.04,8.41v.06Z"/><path class="cls-1" d="M77.09,37.66l7.52-23.84c1-3.1,2.16-5.7,3.59-7.74,1.38-2.05,3.21-3.54,5.36-4.59,2.16-1,4.87-1.49,8.13-1.49,4.48,0,8.63,1.66,12.44,4.98l-5.7,6.91c-.94-1-1.99-1.83-3.1-2.49-1.16-.61-2.32-.94-3.6-.94s-2.43.22-3.32.72-1.6,1.27-2.21,2.38c-.61,1.11-1.22,2.65-1.77,4.65l-5.2,16.26,8.63,2.49c3.32,1,5.92,2.1,7.8,3.26,1.88,1.16,3.26,2.49,4.04,3.98.77,1.49,1.16,3.26,1.16,5.25v5.2h-10.06v-3.76c0-1.49-.44-2.71-1.33-3.65-.88-.94-2.21-1.66-3.93-2.16l-18.42-5.48-.06.06Z"/><path class="cls-1" d="M151.26,44.58h-10.07v-13.55h-7.91c-5.42,0-9.57-1.33-12.39-4.04-2.82-2.65-4.2-6.47-4.2-11.45,0-3.1.72-5.81,2.1-8.13,1.38-2.32,3.43-4.09,6.03-5.36,2.6-1.27,5.64-1.88,9.18-1.88,5.81,0,10.12,1.49,13,4.48,2.88,2.99,4.31,7.63,4.31,14.05v3.98h8.13v8.35h-8.13v13.55h-.06ZM134.61,22.67h6.64v-3.1c0-3.82-.55-6.64-1.66-8.41-1.11-1.77-2.99-2.65-5.59-2.65-2.16,0-3.82.61-5.03,1.77-1.16,1.16-1.77,2.93-1.77,5.25s.55,4.2,1.6,5.36c1.05,1.16,3.04,1.77,5.86,1.77h-.06Z"/></g></g></svg>