<svg width="157" height="171" viewBox="0 0 157 171" fill="none" xmlns="http://www.w3.org/2000/svg">
<path d="M142.921 31.8648L120.79 2.20705C120.191 1.4034 119.302 0.86515 118.312 0.706652C117.322 0.548154 116.309 0.781924 115.489 1.3583L71.0583 32.602L58.9575 89.6623C58.521 92.0582 60.5677 93.4501 62.9685 94.2892C63.0461 94.2892 63.1188 94.2892 63.1916 94.2892C73.0565 95.2592 139.705 109.475 139.705 109.475C140.428 109.641 141.178 109.656 141.907 109.52C142.636 109.382 143.329 109.096 143.942 108.679C144.555 108.261 145.075 107.721 145.469 107.092C145.864 106.464 146.124 105.761 146.233 105.027L156.394 52.9186L145.748 36.3122L142.921 31.8648Z" fill="#CBDAF7"/>
<path d="M58.8076 66.8528L51.8091 57.1528L36.6868 48.1948L10.1573 68.5988L3.61465 106.846L11.7239 109.964C11.7239 109.964 1.21875 157.853 1.21875 165.322C1.21875 172.791 7.26185 170.725 7.26185 170.725L17.4808 169.105C17.4808 169.105 18.509 166.273 22.5927 150.651C10.4677 141.436 25.4688 138.337 25.4688 138.337L28.0296 125.397C28.0296 125.397 26.3078 124.238 25.1535 120.062C26.3515 116.754 27.7677 117.273 31.7204 118.175C31.9648 118.231 32.2127 118.27 32.4625 118.292C35.6246 118.5 35.3725 114.688 35.3725 114.688L57.2556 113.718L66.2185 104.683L67.4746 78.9147L58.8076 66.8528Z" fill="white"/>
<path d="M65.7565 131.018L61.668 119.276C61.668 119.276 59.728 119.155 56.818 116.328C56.2214 113.078 57.6133 112.816 61.2509 111.667C64.8884 110.517 62.5701 107.088 62.5701 107.088L84.4775 98.7949C84.9111 98.6305 85.3059 98.3783 85.6376 98.0539C85.9689 97.7294 86.2298 97.3404 86.4039 96.9102C86.578 96.4805 86.661 96.0193 86.6484 95.5556C86.6357 95.0924 86.5276 94.6361 86.3302 94.2165L71.5426 62.7497L60.2566 57.7785C57.6133 62.3811 54.4706 65.9944 51.3472 68.1332C51.4873 68.4892 51.5926 68.8578 51.6624 69.2342C51.9578 70.6596 51.7875 72.1422 51.1759 73.4639C50.5648 74.785 49.5454 75.8748 48.2674 76.5722C47.4085 77.0466 46.4579 77.3308 45.4796 77.4059C44.5019 77.4816 43.5188 77.3458 42.5973 77.0092C41.6763 76.6721 40.8377 76.1411 40.1393 75.4528C39.4404 74.7641 38.8977 73.9333 38.5475 73.0172C38.1969 72.1005 38.0475 71.1199 38.1086 70.1406C38.1697 69.1614 38.4403 68.2069 38.9021 67.3412C39.3633 66.476 40.0054 65.7194 40.7843 65.1228C41.5632 64.5268 42.4615 64.1043 43.4174 63.8846C43.5192 63.8846 43.6163 63.8361 43.7181 63.8216C45.4685 63.5039 47.2732 63.8837 48.7476 64.8789C51.5363 63.7731 54.6112 60.7224 57.2108 56.4496L35.4197 48.6896C34.829 48.4844 34.1825 48.515 33.6141 48.7754C33.0457 49.0354 32.5995 49.5053 32.3691 50.0864L20.0938 81.7472L33.567 115.624C34.3867 117.53 36.962 116.866 38.9021 116.085L39.5665 115.814C39.5665 115.814 57.9189 158.377 61.4448 164.474C64.9708 170.57 68.9235 165.977 68.9235 165.977L73.9385 159.789C73.9385 159.789 73.4292 157 69.2922 142.377C55.0526 140.684 65.7565 131.018 65.7565 131.018ZM52.2977 101.37L47.9327 89.8758L55.8868 86.8639L60.2518 98.3536L52.2977 101.37Z" fill="#D96D46"/>
<path d="M64.5013 51.6769C63.6001 53.8235 62.5501 55.9042 61.3585 57.9043C58.7201 62.507 55.747 66.3724 52.6285 68.5113C49.7185 70.524 45.9743 72.27 43.5347 71.3C42.0118 70.6889 40.3337 68.0651 39.4704 66.3967C40.4957 65.1022 41.9279 64.1914 43.5347 63.8116C43.9125 64.3345 44.4121 64.7569 44.9897 65.0435C46.2148 65.4786 47.5612 65.4194 48.7436 64.8786C51.5324 63.7728 53.7682 60.9259 56.3678 56.6579C57.4833 54.8391 58.6085 51.9922 59.4864 49.7903C63.4294 39.9205 63.7301 31.0838 59.2584 29.299C54.7867 27.5142 48.4526 34.3042 44.5096 44.174C43.8218 46.098 43.2869 48.0734 42.9091 50.0813L39.1406 48.5002C39.6518 46.5452 40.2852 44.6241 41.037 42.7481C46.047 30.2011 55.8634 20.5157 61.9841 22.9601C68.1048 25.4045 69.5065 39.1154 64.5013 51.6769Z" fill="white"/>
<path d="M46.8086 42.0206C48.0298 39.3967 49.4906 36.8916 51.1736 34.537C52.6674 32.4661 54.0836 30.6134 56.6347 29.7792C59.7532 28.751 62.0279 30.6619 62.4935 33.7319C62.8912 36.3267 62.4062 38.9554 61.8533 41.4919C61.0303 44.9393 59.8905 48.3033 58.4486 51.5411" stroke="#1A1A1A" stroke-width="1.6" stroke-linecap="round" stroke-linejoin="round"/>
<path d="M41.5342 42.1809C42.98 37.9594 45.0078 33.9601 47.5579 30.2984C49.7161 27.2041 52.5437 24.1243 56.1666 22.7227C58.0082 22.0071 60.0175 21.8387 61.9527 22.2377C64.9306 22.8585 66.7639 25.4726 67.5884 28.242C69.1064 33.349 68.9803 38.9508 67.7242 44.1015C66.1819 50.4065 62.9227 56.1828 59.1203 61.4451C56.2103 65.4609 52.3594 70.0005 47.2572 71.0626C46.2566 71.3051 45.2119 71.3051 44.2114 71.0626C42.4217 70.5776 41.5196 69.0402 40.957 67.3766" stroke="#1A1A1A" stroke-width="1.6" stroke-linecap="round" stroke-linejoin="round"/>
<path d="M11.7227 65.6837C16.6115 62.4876 19.9677 59.8637 25.453 56.3232" stroke="#1A1A1A" stroke-width="1.6" stroke-linecap="round" stroke-linejoin="round"/>
<path d="M4.05859 106.506L6.20229 95.293L7.04134 90.928C8.62244 82.683 10.1987 74.438 11.4645 66.1445" stroke="#1A1A1A" stroke-width="1.6" stroke-linecap="round" stroke-linejoin="round"/>
<path d="M4.08203 106.336C6.74929 106.93 9.36024 107.752 11.8857 108.795" stroke="#1A1A1A" stroke-width="1.6" stroke-linecap="round" stroke-linejoin="round"/>
<path d="M12.1638 108.849C10.3839 116.788 8.68152 124.747 6.82882 132.667C5.47082 138.487 3.74907 143.953 2.83727 149.841C2.22132 153.828 1.26587 157.484 0.965169 160.448C0.577169 164.328 1.45017 168.344 5.96067 169.808C9.62727 171.001 16.0341 168.62 17.7365 164.91C19.6765 160.676 20.8405 155.86 22.2082 151.412C22.3064 151.16 22.343 150.886 22.3149 150.617C22.2373 150.214 23.1297 148.856 22.7999 148.604C20.952 147.149 17.9208 146.368 17.6831 144.035C17.6097 142.91 17.8809 141.788 18.4605 140.821C19.0401 139.853 19.9007 139.084 20.9278 138.618C21.825 138.259 24.7399 138.167 25.2928 137.371C26.9757 134.946 27.5771 133.186 28.0185 130.32C28.5956 126.551 27.388 123.69 26.9418 120.038C26.7918 119.255 26.8884 118.445 27.2182 117.719C27.4222 117.401 27.6977 117.135 28.0226 116.943C28.3476 116.75 28.7131 116.636 29.09 116.61C29.4669 116.583 29.845 116.645 30.1932 116.791C30.5419 116.936 30.8518 117.161 31.0982 117.448" stroke="#1A1A1A" stroke-width="1.6" stroke-linecap="round" stroke-linejoin="round"/>
<path d="M134.322 137.43L119.044 113.665C119.044 113.665 110.634 111.512 106.657 110.575C99.6734 108.907 88.0334 107.307 88.0334 107.307C87.5295 107.213 87.0086 107.323 86.5852 107.612C86.1618 107.9 85.8699 108.345 85.7733 108.849L80.2734 136.033L95.7934 161.447C96.4724 162.485 97.7334 162.286 98.9071 161.753C98.9338 161.726 98.9634 161.701 98.9944 161.68C104.053 158.862 133.478 141.368 133.478 141.368C133.802 141.175 134.084 140.916 134.304 140.609C134.524 140.302 134.678 139.952 134.758 139.583C134.837 139.213 134.839 138.832 134.764 138.461C134.689 138.09 134.539 137.739 134.322 137.43Z" fill="#F7E4D7"/>
<path d="M109.55 34.0718C107.599 34.0711 105.667 34.4549 103.864 35.2012C102.061 35.9475 100.423 37.0416 99.0428 38.4213C97.663 39.8006 96.5679 41.4384 95.8215 43.2412C95.0746 45.0439 94.69 46.9762 94.69 48.9273C94.6541 50.9013 95.0125 52.8621 95.7429 54.6959C96.4738 56.5302 97.5621 58.2 98.9453 59.6085C100.329 61.0169 101.979 62.1353 103.799 62.8992C105.619 63.6631 107.574 64.0564 109.548 64.0564C111.522 64.0564 113.476 63.6631 115.297 62.8992C117.117 62.1353 118.767 61.0169 120.151 59.6085C121.534 58.2 122.622 56.5302 123.353 54.6959C124.083 52.8621 124.442 50.9013 124.406 48.9273C124.406 44.9872 122.841 41.209 120.055 38.4227C117.269 35.6369 113.49 34.0718 109.55 34.0718Z" fill="white"/>
<path d="M114.559 81.7517L91.9141 77.377L104.039 56.5269L111.314 57.9819L114.559 81.7517Z" fill="white"/>
<path d="M95.306 123.53C94.4742 124.374 93.817 125.373 93.3718 126.47C92.9265 127.568 92.702 128.743 92.7112 129.928C92.7204 131.112 92.9624 132.284 93.4246 133.374C93.8864 134.465 94.5586 135.455 95.403 136.285C96.2304 137.182 97.2314 137.901 98.345 138.4C99.4585 138.899 100.662 139.167 101.882 139.187C103.102 139.208 104.313 138.981 105.443 138.519C106.573 138.058 107.597 137.372 108.454 136.504C109.311 135.635 109.983 134.602 110.429 133.466C110.875 132.331 111.086 131.116 111.05 129.896C111.013 128.677 110.729 127.477 110.215 126.371C109.702 125.264 108.969 124.272 108.061 123.457C107.219 122.624 106.221 121.965 105.124 121.518C104.028 121.07 102.853 120.843 101.669 120.85C100.484 120.857 99.3125 121.097 98.2208 121.557C97.1291 122.017 96.1387 122.687 95.306 123.53Z" fill="white"/>
<path d="M106.653 130.94L100.766 134.91L108.867 146.926L114.754 142.956L106.653 130.94Z" fill="white"/>
</svg>
