<svg width="96" height="90" viewBox="0 0 96 90" fill="none" xmlns="http://www.w3.org/2000/svg">
<g id="Logo">
<path id="Vector" d="M5.79729 20.4247C6.24752 20.7205 7.77122 19.4729 9.09377 17.995C9.2883 17.6276 9.50514 17.2723 9.74306 16.9312C9.70137 16.9312 9.65969 16.9447 9.61904 16.9447C9.43454 16.949 9.253 16.898 9.09794 16.7983C8.68106 16.5254 8.56642 16.0365 8.6081 15.4699C8.61376 15.4651 8.61747 15.4585 8.61853 15.4512C7.69722 16.338 6.83849 17.2872 6.04846 18.2918C6.0591 18.2878 6.06846 18.281 6.07555 18.2721C5.65034 19.3121 5.47003 20.2098 5.79729 20.4247Z" fill="#A3A2A2"/>
<path id="Vector_2" d="M11.2386 16.2427C11.231 16.2614 11.2212 16.2792 11.2094 16.2957C10.4424 17.1862 9.26782 18.9028 9.37725 19.7207C9.38189 19.781 9.40037 19.8396 9.43127 19.8918C9.46216 19.9439 9.50465 19.9884 9.55547 20.0216C9.98485 20.3102 11.5356 19.236 12.9947 17.8836C12.7845 17.8866 12.5781 17.8273 12.4017 17.7134C12.2522 17.6133 12.1264 17.4819 12.033 17.3285C11.9396 17.1751 11.8808 17.0033 11.8608 16.825C11.8118 16.4513 11.9025 16.0175 12.0693 15.5723C11.8044 15.8101 11.5271 16.0339 11.2386 16.2427Z" fill="#A3A2A2"/>
<path id="Vector_3" d="M8.61173 19.8473C8.13753 21.4041 6.28449 26.6879 2.12402 30.2707C3.09536 30.3392 4.71285 30.2987 6.13963 29.5275C9.08802 27.9344 12.0885 22.8011 12.7482 21.6272C12.3188 21.0263 12.5398 19.9749 12.9129 19.0107C11.8707 19.9199 10.6013 20.826 9.69353 20.826C9.49033 20.8317 9.29025 20.7752 9.12032 20.6641C8.98238 20.5715 8.86573 20.4508 8.77806 20.31C8.69039 20.1692 8.6337 20.0115 8.61173 19.8473Z" fill="#A3A2A2"/>
<path id="Vector_4" d="M9.53135 16.151C9.992 16.453 11.9232 14.8609 13.6908 12.7208C13.4304 12.5022 13.1967 12.2538 12.9946 11.9808C12.9946 11.9808 12.9946 11.9808 12.9946 11.9746C12.8018 12.0992 12.6069 12.2278 12.412 12.3628C11.4181 13.0453 10.4662 13.7866 9.56157 14.5828C9.57485 14.5776 9.58717 14.5702 9.59805 14.561C9.33542 15.3477 9.26559 15.9756 9.53135 16.151Z" fill="#A3A2A2"/>
<path id="Vector_5" d="M16.659 22.8903C16.6193 22.8718 16.581 22.8507 16.5443 22.827C15.8658 22.3797 15.9034 21.5317 16.1608 20.7139C15.327 21.4269 14.3682 22.0631 13.6063 22.0631C13.5389 22.0626 13.4716 22.0564 13.4052 22.0444C12.8132 23.1041 10.6955 26.7304 8.22754 28.9567C12.6433 29.7257 15.8169 24.472 16.659 22.8903Z" fill="#A3A2A2"/>
<path id="Vector_6" d="M14.6046 17.3103C14.5981 17.3296 14.5901 17.3483 14.5806 17.3663C14.5782 17.3774 14.5747 17.3881 14.5702 17.3985C13.6207 18.9896 12.9412 20.9127 13.4394 21.2386C13.9063 21.55 15.4039 20.455 16.7307 19.1037C16.6864 19.0837 16.6439 19.0601 16.6035 19.0331C15.7625 18.4779 16.0626 17.0757 16.5524 15.8438C15.949 16.3902 15.297 16.881 14.6046 17.3103Z" fill="#A3A2A2"/>
<path id="Vector_7" d="M14.2189 56.4611C11.2737 48.4031 7.9553 40.6854 8.66191 31.714C8.71715 30.7457 9.84377 30.7685 9.78436 31.7784C8.96207 40.4965 12.4076 48.1104 15.283 56.0719C17.0475 55.0341 17.5206 53.3029 16.6848 50.8276C14.5264 43.3839 12.3701 36.1541 13.5582 28.0898C12.3294 29.0872 10.8485 29.8261 9.16113 29.8261C8.59249 29.8226 8.02709 29.7405 7.4811 29.5822C7.17543 29.8161 6.85248 30.0267 6.51498 30.2122C5.22681 30.9086 3.83131 31.0778 2.77868 31.0778C2.275 31.079 1.77205 31.0394 1.27479 30.9595C0.999645 31.1671 0.71304 31.3643 0.418096 31.5532C0.47507 31.192 0.538297 30.8312 0.607777 30.4707C4.59628 27.5843 6.71091 22.8578 7.54676 20.5579C7.02566 20.9533 6.46912 21.2325 5.92509 21.2325C5.72812 21.2363 5.53457 21.181 5.3696 21.0737C5.00274 20.8319 4.87038 20.4199 4.87247 19.9321C4.87657 19.9247 4.87906 19.9166 4.87976 19.9082C1.09344 25.5408 -0.322909 32.2319 0.0606212 39.058C0.719293 50.786 6.05016 57.8488 9.9261 68.2431C12.1074 67.9598 13.2288 65.6577 12.3847 63.6495C8.70777 54.5888 3.91677 46.3989 4.12521 36.2319C4.12521 35.2625 5.24974 35.22 5.24974 36.2319C4.90165 45.9153 9.73121 54.1249 13.2466 62.7828C15.0204 61.3028 15.3445 59.1956 14.2189 56.4611Z" fill="#A3A2A2"/>
<path id="Vector_8" d="M15.0281 13.4454C14.8241 13.3868 14.6262 13.309 14.4371 13.2129C13.6138 14.2196 12.5195 15.8885 12.6321 16.7199C12.6373 16.7892 12.6583 16.8565 12.6935 16.9166C12.7287 16.9766 12.7772 17.0279 12.8353 17.0665C13.4304 17.464 15.792 15.6623 17.6294 13.7287C17.5554 13.6249 17.4918 13.5284 17.4418 13.4433C16.6522 13.661 15.8181 13.6618 15.0281 13.4454Z" fill="#A3A2A2"/>
<path id="Vector_9" d="M17.8596 19.0609C17.1426 20.1818 16.4578 21.8351 16.9769 22.1745C17.0484 22.2177 17.1324 22.2359 17.2155 22.2264C17.2287 22.2254 17.2419 22.2254 17.2551 22.2264C17.9107 22.1444 19.1686 21.0692 20.2004 19.8507C19.7324 19.3027 19.8679 18.3271 20.1889 17.3691C19.451 18.0863 18.61 18.7734 17.8596 19.0609Z" fill="#A3A2A2"/>
<path id="Vector_10" d="M19.2626 14.9244C18.8634 14.7998 18.4946 14.5937 18.1798 14.3193C17.3064 15.8211 16.4508 18.0038 17.0386 18.3909C17.0975 18.4202 17.1618 18.4372 17.2276 18.441C17.2933 18.4447 17.3592 18.4351 17.4211 18.4127C17.4613 18.3928 17.5047 18.3798 17.5493 18.3743C18.431 18.0495 20.0141 16.5736 21.2772 15.0178C21.2772 15.0178 21.2845 15.0178 21.2856 15.0095L21.3898 14.8269C20.7168 15.1183 19.9597 15.153 19.2626 14.9244Z" fill="#A3A2A2"/>
<path id="Vector_11" d="M18.802 25.9252C19.9838 25.155 21.8859 22.8686 23.3408 20.9911C24.2663 18.4722 23.7285 19.8951 24.2663 18.4722C23.1563 19.3813 21.9046 20.2075 21.0125 20.2075C20.9812 20.2075 20.9521 20.2075 20.9218 20.2023C20.3841 20.852 18.8051 22.6392 17.5107 22.9475C16.8175 24.331 15.9473 25.6194 14.9219 26.7804C15.8682 26.8364 17.5024 26.7772 18.802 25.9252Z" fill="#A3A2A2"/>
<path id="Vector_12" d="M23.4738 15.9549C22.9264 15.9186 22.4029 15.7181 21.972 15.3799C21.1101 16.8796 20.2805 19.0124 20.8621 19.3996C21.4009 19.7545 23.4676 18.2683 25.2998 16.5039C25.4121 16.1481 25.5016 15.7855 25.5676 15.4183C25.0084 15.769 24.3619 15.957 23.701 15.9611C23.625 15.9611 23.5489 15.9611 23.4738 15.9549Z" fill="#A3A2A2"/>
<path id="Vector_13" d="M15.245 12.6997C15.9863 12.8991 16.7712 12.8676 17.494 12.6094L17.8671 12.4547L18.0089 12.8294C18.0089 12.8377 18.4258 13.8507 19.4919 14.1787C20.5779 14.5149 21.2908 13.997 21.2981 13.9918L21.668 13.7168L21.8765 14.1257C21.8963 14.1641 22.4059 15.1034 23.5253 15.1771C24.5018 15.2446 25.2543 14.7474 25.668 14.3831C25.716 12.0811 24.3788 10.2555 20.753 9.75938C18.5651 9.46048 16.1975 10.0631 13.6504 11.5674H13.6608C13.9339 11.9151 14.4706 12.4776 15.245 12.6997Z" fill="#A3A2A2"/>
<path id="Vector_14" d="M24.9426 20.1765C24.7592 21.4489 24.7581 22.8573 25.2782 23.0763C25.8973 23.3358 27.0718 21.9347 27.7972 20.7473C27.1385 20.3571 26.7143 19.3244 26.459 18.4287C25.5398 19.3555 25.866 18.9393 24.9426 20.1765Z" fill="#A3A2A2"/>
<path id="Vector_15" d="M25.4937 46.3502C25.4364 47.4057 25.4937 48.7882 26.1805 49.6569C26.7121 50.3325 27.5198 50.5526 28.3369 50.5733C28.2408 49.7878 28.1921 48.9972 28.191 48.2059V31.2968C27.1422 30.5477 26.1999 29.661 25.3895 28.6606C24.3932 29.9753 23.3975 31.292 22.4026 32.6108L22.3713 32.6534L20.9028 34.6035C20.5583 35.0526 20.3813 35.607 20.402 36.1718C20.4227 36.7366 20.6399 37.2766 21.0164 37.6995C22.2796 39.1415 23.542 40.5827 24.8038 42.0233C25.1475 42.4067 25.4014 42.8614 25.547 43.3545C25.6926 43.8475 25.7264 44.3667 25.6459 44.8743C25.575 45.3642 25.5167 45.8531 25.4937 46.3502Z" fill="#A3A2A2"/>
<path id="Vector_16" d="M27.0811 17.7273L27.0873 17.719C27.3697 18.9001 27.869 20.1269 28.364 20.1352H28.3703C28.9372 20.1352 29.4583 18.6158 29.6782 17.3402C29.0935 17.2977 28.488 16.9157 27.9284 16.4061C27.929 16.4013 27.929 16.3964 27.9284 16.3916C27.6853 16.8604 27.4018 17.3074 27.0811 17.7273Z" fill="#A3A2A2"/>
<path id="Vector_17" d="M28.5538 21.0073C28.0869 21.7982 26.732 23.8854 25.4272 23.8854C25.2714 23.8854 25.1173 23.8544 24.9738 23.794C24.2266 23.4827 24.0358 22.4687 24.0463 21.4474C23.7795 23.4671 24.2849 25.6892 25.2781 27.1993C26.0757 28.3879 27.0583 29.4425 28.189 30.3233V23.3156H29.5637C29.1384 22.5877 28.7995 21.8131 28.5538 21.0073Z" fill="#A3A2A2"/>
<path id="Vector_18" d="M30.2074 11.6245C30.2043 11.598 30.2043 11.5711 30.2074 11.5446C30.2074 11.5301 30.2074 11.5145 30.2074 11.4989C30.1709 11.4989 30.1313 11.4989 30.0938 11.4989C29.8009 11.4981 29.5089 11.4668 29.2225 11.4055C29.2222 11.3983 29.2205 11.3912 29.2173 11.3848C29.1774 12.8575 28.8591 14.3096 28.2793 15.665C28.2844 15.6622 28.2884 15.6578 28.2908 15.6525C28.9338 16.2939 29.5612 16.6976 29.9948 16.5337C31.0151 16.1486 30.5867 13.0724 30.2188 11.6432C30.2142 11.6375 30.2104 11.6312 30.2074 11.6245Z" fill="#A3A2A2"/>
<path id="Vector_19" d="M26.4837 75.9288C27.8458 67.6258 28.3159 63.8895 28.3159 63.8895C28.3534 63.7151 28.3773 63.5584 28.4055 63.4245C28.5962 62.5122 29.6509 62.7654 29.6728 63.6238C29.6736 63.8523 29.652 64.0803 29.6082 64.3046C28.3575 73.0871 27.9021 77.7596 27.9021 77.7596C27.0965 81.413 32.0594 82.6978 32.3346 77.6558C32.3919 76.6117 32.4127 75.606 32.4305 74.5599C32.5347 68.3098 32.5805 64.4842 32.5805 64.4842L32.568 60.4562C30.4914 57.9183 29.0932 54.8985 28.5034 51.6778C27.2851 51.6778 26.1064 51.3488 25.3122 50.339C24.147 48.8569 24.2971 46.4926 24.5556 44.723C24.6132 44.3718 24.5906 44.0121 24.4896 43.6707C24.3886 43.3294 24.2116 43.015 23.972 42.751L20.1856 38.421C19.6427 37.8088 19.3294 37.0281 19.2992 36.2118C19.269 35.3955 19.5237 34.594 20.0199 33.9436L24.7025 27.734C24.6775 27.6977 24.6515 27.6624 24.6275 27.624C23.7187 26.2436 23.1913 24.3142 23.2143 22.417C21.8594 24.1046 20.2961 25.8793 19.2299 26.5778C17.9793 27.3978 16.4952 27.5794 15.4301 27.5794C15.131 27.5794 14.8714 27.5649 14.6547 27.5462H14.6495C14.7096 27.701 14.7273 27.869 14.7005 28.0329C13.353 35.9841 15.6969 43.4008 17.8897 50.9212C18.9131 50.4936 19.8886 49.4464 20.3055 48.1355C20.4814 47.5873 20.549 47.0104 20.5046 46.4365C20.1033 43.6851 23.6833 45.4257 21.7614 49.9892C19.1914 56.1313 16.4087 62.3098 14.1284 68.5568C12.9746 71.7202 16.0137 72.5713 17.0747 70.1645C18.935 65.9445 20.5337 61.6362 22.2138 57.3405C22.3524 56.7873 23.2612 56.9648 23.0809 57.6176C21.4134 62.3472 19.8271 67.3394 18.0783 72.0191C16.9215 75.1058 20.566 76.838 21.4134 73.002C22.3222 68.8796 23.7791 64.3876 24.9058 60.2361C25.1434 59.3643 26.2825 59.4474 25.9334 60.9035C23.5144 71.0134 22.5848 75.2988 22.5848 75.2988C21.3383 79.4161 26.2815 80.2059 26.4837 75.9288Z" fill="#A3A2A2"/>
<path id="Vector_20" d="M29.2275 20.5285C29.4235 21.2114 29.8925 22.4703 30.5178 23.3204H33.0191C33.511 22.5139 33.7726 21.3422 33.8674 20.6561C32.4875 20.3572 31.0931 18.2379 30.4896 17.2114C30.3917 17.8757 30.055 19.7179 29.2275 20.5285Z" fill="#A3A2A2"/>
<path id="Vector_21" d="M34.3533 19.8805C35.1975 19.594 35.135 17.2941 34.8077 15.5411C34.6683 15.5894 34.5218 15.6146 34.3742 15.6158C33.3007 15.6158 32.1449 14.414 31.3164 13.3325C31.4508 14.4327 31.4748 15.7528 31.0225 16.5759C31.924 18.1711 33.4914 20.1711 34.3533 19.8805Z" fill="#A3A2A2"/>
<path id="Vector_22" d="M33.2522 9.88232C32.741 10.5211 32.0658 11.0103 31.2981 11.298C31.1849 11.3383 31.0698 11.373 30.9531 11.4018C31.9265 13.0354 33.6774 15.1454 34.5758 14.8039C35.5367 14.4407 35.2095 11.6903 34.8614 10.174C34.3091 10.2102 33.7563 10.11 33.2522 9.88232Z" fill="#A3A2A2"/>
<path id="Vector_23" d="M34.5585 21.2207C34.4274 21.9445 34.2039 22.6487 33.8936 23.3162H36.2583C35.5434 22.6488 34.941 21.8102 34.5585 21.2207Z" fill="#A3A2A2"/>
<path id="Vector_24" d="M33.1826 65.2988C33.982 65.9091 34.7459 67.3185 35.5693 67.2604C36.2373 67.2137 36.6198 66.3979 36.2258 65.8582C35.7402 65.1899 34.1675 65.5147 33.1826 65.2988Z" fill="#A3A2A2"/>
<path id="Vector_25" d="M34.1484 68.5656L35.0958 69.0057C36.7539 69.7768 38.0358 68.576 38.7008 68.1131L37.7534 67.6731C36.0942 66.903 35.3605 68.4598 34.1484 68.5656Z" fill="#A3A2A2"/>
<path id="Vector_26" d="M37.2627 64.3737L36.3164 63.9336C37.0147 64.9258 36.2872 66.4878 37.9464 67.2548C38.2591 67.4011 38.579 67.5475 38.8938 67.6949C38.8229 66.8926 38.9219 65.1438 37.2627 64.3737Z" fill="#A3A2A2"/>
<path id="Vector_27" d="M39.1697 13.0675C40.1233 12.7073 39.8107 9.99845 39.4668 8.479C39.1338 8.65579 38.7689 8.76515 38.3933 8.80078C38.0177 8.8364 37.6386 8.79759 37.2781 8.68658C36.9266 9.2794 36.3797 9.73269 35.7305 9.96939C36.7268 11.548 38.3203 13.3871 39.1697 13.0675Z" fill="#A3A2A2"/>
<path id="Vector_28" d="M39.5404 18.4151C40.5138 17.9999 40.1147 15.2911 39.6894 13.6679C39.6116 13.7186 39.5289 13.7613 39.4424 13.7955C39.2892 13.8547 39.1264 13.8857 38.962 13.8868C37.8875 13.8868 36.7296 12.685 35.9021 11.6035C36.0459 12.7722 36.0636 14.1889 35.5186 14.9953C36.6358 16.6756 38.592 18.8251 39.5404 18.4151Z" fill="#A3A2A2"/>
<path id="Vector_29" d="M34.9785 20.4172C35.4819 21.2475 36.5189 22.7005 37.534 23.3149H39.1181C39.9384 22.5323 39.8977 20.3995 39.7549 19.1582C39.6087 19.2103 39.4548 19.2376 39.2995 19.2392C38.0749 19.2392 36.6679 17.7716 35.756 16.6289C35.9009 17.9937 35.8779 19.7456 34.9785 20.4172Z" fill="#A3A2A2"/>
<path id="Vector_30" d="M27.814 7.01778C28.6602 7.76921 29.1136 9.09353 29.1991 10.6171C29.1996 10.6137 29.1996 10.6102 29.1991 10.6068C29.6357 10.7199 30.3319 10.8143 31.0281 10.5663C31.7465 10.2937 32.3645 9.80967 32.7999 9.17864L33.0083 8.84029L33.3428 9.05721C33.3522 9.05721 34.2808 9.64153 35.3397 9.28658C36.4173 8.92436 36.6946 8.08783 36.6946 8.07953L36.8321 7.64051L37.2428 7.84808C37.2824 7.8678 38.2485 8.3307 39.1969 7.73807C40.2235 7.09666 40.4673 5.93632 40.5247 5.50664C34.5164 -0.955177 25.8525 -1.17728 26.0297 1.99654C21.6233 2.00484 20.7041 3.94152 23.2595 7.14544C23.4054 5.61042 26.1829 5.56476 27.814 7.01778ZM30.4497 2.22072C30.1737 2.53882 29.7981 2.75492 29.3835 2.83411C29.7368 3.89482 29.668 4.01832 28.8728 3.18283C28.4268 2.71648 27.8296 2.39578 27.0813 2.22072C28.2041 1.39872 29.3269 1.39872 30.4497 2.22072Z" fill="#A3A2A2"/>
<path id="Vector_31" d="M37.9189 70.317C39.5791 71.0871 40.86 69.8873 41.526 69.4234L40.5776 68.9844C38.9184 68.2133 38.1805 69.7721 36.9736 69.877C37.2853 70.0243 37.6063 70.1707 37.9189 70.317Z" fill="#A3A2A2"/>
<path id="Vector_32" d="M40.7716 68.5683L41.719 69.0073C41.6491 68.2029 41.7471 66.4541 40.0879 65.6861L39.1416 65.2471C39.8388 66.2362 39.1124 67.7982 40.7716 68.5683Z" fill="#A3A2A2"/>
<path id="Vector_33" d="M43.7557 11.3332C43.9103 11.2657 44.0367 11.1469 44.1132 10.9969C43.3642 9.28062 42.3751 7.67851 41.1752 6.23828C40.9977 6.89667 40.6478 7.49627 40.1611 7.97569C41.1366 9.60204 42.8615 11.6726 43.7557 11.3332Z" fill="#A3A2A2"/>
<path id="Vector_34" d="M40.7393 71.6277C42.3985 72.3978 43.6804 71.198 44.3453 70.7341L43.3979 70.294C41.7398 69.5239 41.0009 71.0818 39.793 71.1877L40.7393 71.6277Z" fill="#A3A2A2"/>
<path id="Vector_35" d="M43.5929 69.8789L44.5403 70.3179C44.4694 69.5125 44.5684 67.7637 42.9092 66.9967L41.9629 66.5566C42.6601 67.5437 41.9348 69.1077 43.5929 69.8789Z" fill="#A3A2A2"/>
<path id="Vector_36" d="M43.5533 12.1479C42.4798 12.1479 41.324 10.946 40.4965 9.85938C40.6205 10.8869 40.6497 12.1053 40.2881 12.9325C40.296 12.9448 40.303 12.9576 40.3089 12.9709C40.3214 13.0124 40.3433 13.083 40.3694 13.1712C41.4897 14.8484 43.3991 16.9263 44.336 16.5236C45.2458 16.1323 44.9551 13.741 44.5663 12.1043C44.5288 12.0005 44.4902 11.904 44.4517 11.8044C44.2077 12.0276 43.8878 12.1503 43.5564 12.1479H43.5533Z" fill="#A3A2A2"/>
<path id="Vector_37" d="M44.0244 75.7244L44.6185 75.4473L44.138 74.4208L43.5461 74.698C43.4235 74.754 43.2854 74.7669 43.1546 74.7345C43.0237 74.702 42.9078 74.6262 42.8259 74.5194L42.7217 74.2963C42.692 74.1654 42.708 74.0283 42.7672 73.9078C42.8263 73.7872 42.925 73.6903 43.0469 73.6331L43.644 73.357L43.1625 72.3306L42.5664 72.6066C42.2458 72.7568 41.9791 73.001 41.8021 73.3066C41.625 73.6122 41.5463 73.9645 41.5763 74.316L40.8468 74.6533C40.5956 74.4043 40.2738 74.238 39.9248 74.1768C39.5757 74.1155 39.2162 74.1623 38.8947 74.3108L38.1058 74.6762C37.7854 74.8265 37.5188 75.0708 37.3418 75.3764C37.1648 75.6819 37.0859 76.0341 37.1157 76.3855L36.3861 76.7239C36.1351 76.4751 35.8135 76.3088 35.4648 76.2474C35.116 76.1859 34.7567 76.2324 34.4351 76.3804L33.6452 76.7467C33.2513 76.9519 32.9521 77.3004 32.8098 77.7197C32.6674 78.1389 32.6928 78.5967 32.8808 78.9978C33.0687 79.3989 33.4047 79.7124 33.8188 79.873C34.233 80.0337 34.6934 80.0291 35.1042 79.8604L35.8932 79.494C36.2136 79.3439 36.4802 79.0998 36.6572 78.7944C36.8342 78.489 36.9131 78.137 36.8833 77.7856L37.6128 77.4473C37.8636 77.6962 38.185 77.8625 38.5336 77.9239C38.8823 77.9853 39.2415 77.9389 39.5628 77.7908L40.3517 77.4245C40.6724 77.2745 40.9392 77.0302 41.1163 76.7246C41.2933 76.4189 41.372 76.0666 41.3418 75.7151L42.0714 75.3778C42.3223 75.6274 42.644 75.7945 42.9932 75.8564C43.3425 75.9184 43.7023 75.8724 44.0244 75.7244ZM35.4169 78.4717L34.628 78.838C34.5574 78.8734 34.4804 78.8943 34.4016 78.8994C34.3227 78.9046 34.2437 78.8939 34.1691 78.8681C34.0945 78.8422 34.0258 78.8017 33.9672 78.749C33.9086 78.6962 33.8613 78.6322 33.828 78.5609C33.7947 78.4896 33.7761 78.4123 33.7734 78.3337C33.7706 78.2551 33.7838 78.1767 33.812 78.1032C33.8402 78.0297 33.883 77.9627 33.9378 77.906C33.9925 77.8493 34.0582 77.8041 34.1308 77.7732L34.9187 77.4068C35.0601 77.3437 35.2208 77.3384 35.3661 77.3923C35.5113 77.4462 35.6294 77.5548 35.6948 77.6947C35.7603 77.8346 35.7678 77.9946 35.7158 78.1399C35.6638 78.2853 35.5564 78.4045 35.4169 78.4717ZM39.8754 76.4011L39.0855 76.7675C38.9631 76.8241 38.825 76.8373 38.694 76.805C38.563 76.7728 38.447 76.6969 38.3653 76.59L38.2611 76.3658C38.2318 76.2351 38.2481 76.0983 38.3072 75.978C38.3663 75.8577 38.4647 75.761 38.5862 75.7037L39.3752 75.3363C39.4454 75.3035 39.5214 75.2849 39.5988 75.2815C39.6763 75.278 39.7536 75.2898 39.8265 75.3161C39.8994 75.3424 39.9663 75.3827 40.0235 75.4348C40.0808 75.4869 40.1271 75.5497 40.16 75.6196C40.1928 75.6895 40.2115 75.7652 40.215 75.8423C40.2185 75.9194 40.2067 75.9965 40.1802 76.069C40.1538 76.1416 40.1133 76.2083 40.061 76.2653C40.0087 76.3222 39.9456 76.3684 39.8754 76.4011Z" fill="#A3A2A2"/>
<path id="Vector_38" d="M34.5825 83.6317C35.508 83.6317 38.7398 83.1854 38.769 84.3125C38.4366 87.3027 27.7582 82.7391 25.4288 80.7578L26.4085 83.8299L23.1631 83.4044C25.7603 85.6088 38.7721 91.1386 38.7721 87.7178V84.9041C40.8556 85.2119 42.9535 85.4132 45.0577 85.5071V82.106C41.5373 81.9594 38.0344 81.5325 34.5825 80.8294C32.7378 80.8294 32.7378 83.6317 34.5825 83.6317Z" fill="#A3A2A2"/>
<path id="Vector_39" d="M40.1763 23.1688C40.1992 23.2135 40.2305 23.2643 40.2607 23.3152H45.1737C45.1675 22.8327 45.1327 22.351 45.0694 21.8725C44.8289 21.9675 44.5725 22.0161 44.3138 22.0158C42.959 22.0158 41.5166 20.817 40.6067 19.8975C40.662 20.8855 40.6203 22.2005 40.168 23.1554C40.1705 23.16 40.1733 23.1645 40.1763 23.1688Z" fill="#A3A2A2"/>
<path id="Vector_40" d="M44.0912 17.348C42.9646 17.348 41.6837 16.1026 40.777 15.019C40.9792 16.2645 41.05 17.7642 40.4727 18.6049C41.3762 19.6718 43.5315 21.759 44.8645 21.1166C46.1704 20.4866 45.7764 17.8255 45.4148 16.4461C45.2647 16.7962 44.9885 17.0776 44.6404 17.2349C44.467 17.3096 44.2801 17.3481 44.0912 17.348Z" fill="#A3A2A2"/>
<path id="Vector_41" d="M45.7568 21.4212C45.7829 21.4639 45.8006 21.5111 45.8089 21.5603C45.9015 22.1408 45.9547 22.7267 45.9684 23.3143H48.4176C48.2183 23.1918 48.0349 23.0454 47.8715 22.8784C47.1273 22.1073 46.848 20.9812 47.0867 19.7087C47.1986 19.1625 47.387 18.6346 47.6463 18.1405V18.1343C47.4785 18.2499 47.2801 18.3134 47.0761 18.3169C46.8721 18.3204 46.6716 18.2637 46.4999 18.154C46.6114 19.3237 46.5176 20.6553 45.7568 21.4212Z" fill="#A3A2A2"/>
<path id="Vector_42" d="M50.1895 22.9274C50.4631 22.8899 50.7261 22.7968 50.9622 22.654C51.1983 22.5112 51.4024 22.3217 51.562 22.0971C51.2677 21.4924 51.1278 20.8247 51.1546 20.1532C51.1785 18.8299 51.9008 17.5751 52.5313 16.7282C52.2064 16.7807 51.8777 16.8071 51.5485 16.8071C50.9802 16.7957 50.4303 16.6049 49.9779 16.2622C49.437 16.8227 48.1541 18.2913 47.8581 19.8553C47.6663 20.8735 47.8716 21.7578 48.4375 22.3462C48.6611 22.5763 48.9371 22.7492 49.2421 22.8504C49.5471 22.9516 49.872 22.978 50.1895 22.9274Z" fill="#A3A2A2"/>
<path id="Vector_43" d="M51.3662 23.3156H52.6815C52.4849 23.1996 52.3032 23.0602 52.1406 22.9004C52.101 22.8599 52.0582 22.8132 52.0165 22.7676C51.8287 22.9818 51.6095 23.1666 51.3662 23.3156Z" fill="#A3A2A2"/>
<path id="Vector_44" d="M51.5465 16.0276C52.146 16.0381 52.7417 15.9323 53.3006 15.7163C53.0921 15.107 52.9785 14.1771 53.4569 13.0302C53.68 12.5207 53.9907 12.0539 54.3751 11.6509C54.103 11.6285 53.835 11.5709 53.5778 11.4797C53.0265 11.2866 52.472 10.694 52.1416 9.97266C51.4851 10.5528 49.9905 12.0214 49.7675 13.5606C49.656 14.3369 49.7967 14.9565 50.1844 15.4018C50.3562 15.5935 50.5658 15.748 50.8002 15.8557C51.0345 15.9633 51.2885 16.0219 51.5465 16.0276Z" fill="#A3A2A2"/>
<path id="Vector_45" d="M49.1863 81.4714H48.9716L49.1863 81.4662V79.8949H52.3869L54.562 80.5456V77.5783L52.3869 78.228H50.0795V67.5493C49.4403 67.6261 48.7934 67.6714 48.1389 67.6853V78.228H47.3739V67.6853C46.718 67.6714 46.0708 67.6261 45.4323 67.5493V78.228H43.1301L40.9561 77.5783V80.5487L43.1301 79.8949H46.3307V87.6582L45.2708 89.8252H50.2515L49.1915 87.6582L49.1863 81.4714Z" fill="#A3A2A2"/>
<path id="Vector_46" d="M51.9342 20.1658C51.9154 21.3324 52.3344 21.9966 52.6908 22.3454C52.8728 22.5301 53.0905 22.6763 53.3306 22.7751C53.5708 22.8739 53.8286 22.9233 54.0884 22.9204C55.2734 22.8903 55.7685 21.869 55.7737 21.8586C55.7789 21.8482 55.7872 21.843 55.7935 21.8327C55.5489 21.3061 55.4305 20.7302 55.4475 20.1503C55.4631 19.2546 55.8706 18.2966 56.3677 17.4518C56.1646 17.4922 55.9579 17.5131 55.7507 17.5141C55.4787 17.5139 55.2077 17.4822 54.943 17.4196C54.4803 17.3158 54.0384 16.9816 53.708 16.5156C53.1452 17.1477 51.9603 18.6453 51.9342 20.1658Z" fill="#A3A2A2"/>
<path id="Vector_47" d="M56.2601 22.5532C56.0373 22.8585 55.7565 23.1174 55.4336 23.315H57.2053C56.8473 23.119 56.5272 22.8611 56.2601 22.5532Z" fill="#A3A2A2"/>
<path id="Vector_48" d="M57.629 67.4235L57.2913 66.8174L51.2393 70.1666L51.9542 70.5631L57.629 67.4235Z" fill="#A3A2A2"/>
<path id="Vector_49" d="M53.8382 10.7455C54.8053 11.0848 55.4421 10.6873 55.4682 10.6697C55.4772 10.6651 55.4866 10.6613 55.4963 10.6583C56.0319 10.2627 56.6018 9.91533 57.1993 9.6204C57.2059 8.9059 57.3996 8.20548 57.761 7.58824C57.8345 7.45849 57.9149 7.33273 58.0018 7.21149C57.8552 7.19787 57.7107 7.16722 57.5713 7.12015C57.1544 6.97278 56.7772 6.56074 56.5719 6.01897C56.4444 5.67331 56.3908 5.30497 56.4145 4.9375C55.5078 5.22188 53.6808 5.9349 52.9638 7.22083C52.7637 7.56169 52.6436 7.94322 52.6126 8.33684C52.5815 8.73047 52.6403 9.12598 52.7845 9.49378C53.0378 10.1601 53.5067 10.6292 53.8382 10.7455Z" fill="#A3A2A2"/>
<path id="Vector_50" d="M58.7248 69.3805L58.3871 68.7754L53.5586 71.4458L54.2746 71.8413L58.7248 69.3805Z" fill="#A3A2A2"/>
<path id="Vector_51" d="M57.4084 10.692C57.3754 10.6074 57.3468 10.5212 57.3229 10.4336C56.5381 10.8487 54.7726 11.9053 54.1807 13.3282C53.6846 14.5176 53.9722 15.3926 54.1807 15.8088C54.412 16.2571 54.7716 16.5851 55.1187 16.666C56.3276 16.9483 57.1041 16.3412 57.1113 16.335H57.1186C57.4487 15.8897 57.8047 15.4641 58.1848 15.0604C58.1848 15.0272 58.1848 14.9961 58.1911 14.9629C58.3099 13.925 59.1061 12.8114 59.7658 12.0496C59.6533 12.0599 59.5418 12.0672 59.4313 12.0672C59.1993 12.0697 58.9681 12.0396 58.7445 11.978C58.1588 11.8015 57.671 11.3345 57.4084 10.692Z" fill="#A3A2A2"/>
<path id="Vector_52" d="M57.8302 6.38687C58.4732 6.61209 59.0485 6.14816 59.0538 6.14401H59.0631C59.8016 5.5834 60.6142 5.12693 61.4779 4.7875C60.7578 4.04316 60.0958 3.24513 59.4977 2.40039C59.0225 2.59136 58.0084 3.09058 57.4863 4.02259C57.0496 4.801 57.184 5.44033 57.3008 5.75169C57.4394 6.10872 57.6666 6.32979 57.8302 6.38687Z" fill="#A3A2A2"/>
<path id="Vector_53" d="M60.7446 21.8186C60.5863 21.3787 60.5056 20.9149 60.506 20.4476C60.506 19.611 60.8113 18.7392 61.2084 17.9629C61.0452 17.9999 60.8786 18.0194 60.7113 18.021C60.5454 18.0206 60.3799 18.0039 60.2173 17.9712C59.7599 17.862 59.34 17.6338 59.0003 17.31C58.6606 16.9861 58.4134 16.5782 58.284 16.1279C57.5461 17.0029 56.2569 18.734 56.2329 20.1663C56.1996 22.2057 57.8171 22.8502 58.4434 22.926C58.8943 22.9926 59.3548 22.9226 59.7652 22.7251C60.1756 22.5276 60.5168 22.2118 60.7446 21.8186Z" fill="#A3A2A2"/>
<path id="Vector_54" d="M57.4227 66.2557C57.7228 66.4353 58.1522 66.6231 58.6379 66.3595L59.0026 66.1571C58.7098 66.1519 58.4711 65.9329 58.1887 65.8364L58.5118 65.6569C58.8129 65.8364 59.2413 66.0243 59.727 65.7606L60.0928 65.5531C59.7999 65.5531 59.5602 65.3279 59.2767 65.2313L59.5998 65.0528C59.901 65.2324 60.3294 65.4202 60.8161 65.1566L61.1819 64.9542C60.888 64.949 60.6503 64.73 60.3669 64.6335L60.7223 64.4363L60.7598 64.4145C61.011 64.2609 61.2288 63.8375 61.4727 63.6226C61.1308 63.7264 60.5941 63.6683 60.3523 63.8489L60.0261 64.0295C60.0938 63.7378 60.0313 63.4182 60.1834 63.167L59.8187 63.3683C59.3309 63.6372 59.2673 64.1032 59.2601 64.4529L58.9359 64.6314C59.0058 64.3398 58.9422 64.0201 59.0954 63.769L58.7285 63.9765C58.2429 64.2453 58.1772 64.7103 58.172 65.0601L57.8468 65.2396C57.9167 64.948 57.8531 64.6283 58.0052 64.3761L57.6394 64.5785C57.1548 64.8473 57.0892 65.3133 57.0829 65.6631L50.0762 69.5375L50.7932 69.9329L57.4227 66.2557Z" fill="#A3A2A2"/>
<path id="Vector_55" d="M61.1375 22.6035C60.9029 22.8856 60.6208 23.1248 60.3037 23.3103H61.7763C61.5319 23.1049 61.317 22.8671 61.1375 22.6035Z" fill="#A3A2A2"/>
<path id="Vector_56" d="M61.1207 65.9807C61.1884 65.6891 61.1207 65.3694 61.2781 65.1172L60.9133 65.3248C60.4266 65.5936 60.3609 66.0596 60.3547 66.4093L60.0305 66.5879C60.1004 66.2962 60.0368 65.9765 60.1879 65.7254L59.8231 65.933C59.3375 66.2018 59.2729 66.6667 59.2666 67.0165L58.9414 67.195C59.0113 66.9044 58.9477 66.5837 59.0999 66.3325L58.734 66.5349C58.2473 66.8037 58.1827 67.2687 58.1775 67.6195L52.3975 70.8162L53.1135 71.2116L58.5173 68.2225C58.8174 68.4031 59.2468 68.591 59.7314 68.3263L60.0972 68.1239C59.8033 68.1187 59.5647 67.8997 59.2822 67.8032L59.6053 67.6237C59.9065 67.8032 60.3349 67.9911 60.8205 67.7274L61.1853 67.5199C60.8924 67.5199 60.6548 67.2957 60.3703 67.1992L60.6934 67.0207C60.9946 67.2002 61.4229 67.3881 61.9096 67.1244L62.2744 66.9221C61.9826 66.9169 61.7439 66.6979 61.4615 66.6003L61.8148 66.4042C61.8284 66.3977 61.8417 66.3904 61.8544 66.3824C62.1045 66.2288 62.3234 65.8063 62.5673 65.5905C62.2254 65.6942 61.6876 65.6361 61.4469 65.8157L61.1207 65.9807Z" fill="#A3A2A2"/>
<path id="Vector_57" d="M60.3715 17.2076C61.2428 17.3851 61.8556 16.8205 61.9588 16.7178C62.257 16.2853 62.5828 15.8724 62.9343 15.4816C62.1017 14.3397 61.6398 12.9714 61.6107 11.5605C61.4741 11.6156 61.3178 11.6737 61.149 11.7318C60.8363 12.0307 59.1323 13.6913 58.976 15.0468C58.7978 16.5527 59.9233 17.1184 60.3715 17.2076Z" fill="#A3A2A2"/>
<path id="Vector_58" d="M57.4093 74.6757L56.6214 74.3103C56.2999 74.1618 55.9404 74.115 55.5913 74.1763C55.2423 74.2375 54.9205 74.4038 54.6693 74.6528L53.9398 74.3155C53.9698 73.964 53.891 73.6118 53.714 73.3062C53.537 73.0006 53.2703 72.7563 52.9497 72.6062L52.3535 72.3301L51.8741 73.3565L52.4692 73.6326C52.5909 73.6901 52.6895 73.787 52.7487 73.9074C52.808 74.0279 52.8245 74.1648 52.7954 74.2958L52.6912 74.519C52.6098 74.6259 52.4941 74.702 52.3633 74.7344C52.2325 74.7669 52.0944 74.7539 51.9721 74.6975L51.378 74.4204L50.8955 75.4468L51.4916 75.7239C51.8131 75.8721 52.1725 75.9186 52.5213 75.8572C52.8701 75.7957 53.1917 75.6293 53.4426 75.3804L54.1722 75.7177C54.1417 76.0693 54.2203 76.4217 54.3973 76.7274C54.5744 77.0331 54.8414 77.2773 55.1623 77.4271L55.9512 77.7935C56.2726 77.9415 56.6317 77.988 56.9804 77.9265C57.329 77.8651 57.6504 77.6988 57.9012 77.4499L58.6307 77.7883C58.601 78.1396 58.68 78.4916 58.857 78.7969C59.034 79.1023 59.3005 79.3464 59.6208 79.4966L60.4098 79.863C60.6166 79.9707 60.8431 80.0356 61.0758 80.0537C61.3085 80.0718 61.5424 80.0427 61.7635 79.9683C61.9846 79.8938 62.1882 79.7755 62.3621 79.6205C62.536 79.4655 62.6765 79.277 62.7752 79.0664C62.8739 78.8558 62.9287 78.6275 62.9363 78.3952C62.9439 78.1629 62.9042 77.9315 62.8194 77.7149C62.7347 77.4984 62.6068 77.3012 62.4434 77.1352C62.2801 76.9692 62.0846 76.838 61.8688 76.7494L61.0809 76.383C60.7594 76.235 60.4001 76.1886 60.0513 76.25C59.7025 76.3114 59.381 76.4777 59.1299 76.7265L58.4004 76.3882C58.4309 76.036 58.3522 75.6831 58.175 75.3769C57.9977 75.0707 57.7305 74.8259 57.4093 74.6757ZM57.2509 76.3653L57.1466 76.5895C57.0652 76.6965 56.9494 76.7724 56.8185 76.8047C56.6877 76.837 56.5497 76.8237 56.4275 76.767L55.6375 76.4006C55.4957 76.3347 55.386 76.2154 55.3326 76.0689C55.2791 75.9224 55.2863 75.7608 55.3525 75.6196C55.4187 75.4784 55.5385 75.3692 55.6856 75.3159C55.8327 75.2627 55.9949 75.2698 56.1367 75.3358L56.9257 75.7032C57.0474 75.7603 57.1459 75.857 57.205 75.9774C57.2641 76.0978 57.2803 76.2346 57.2509 76.3653ZM59.8063 77.6907C59.8726 77.5497 59.9923 77.4406 60.1392 77.3873C60.2861 77.334 60.4482 77.3408 60.5901 77.4063L61.379 77.7727C61.4503 77.8046 61.5146 77.8502 61.5681 77.907C61.6215 77.9638 61.6631 78.0307 61.6904 78.1036C61.7177 78.1766 61.7301 78.2542 61.727 78.332C61.7239 78.4098 61.7053 78.4862 61.6723 78.5568C61.6393 78.6273 61.5925 78.6907 61.5347 78.7431C61.4769 78.7955 61.4092 78.8359 61.3356 78.8621C61.2619 78.8882 61.1838 78.8995 61.1057 78.8953C61.0277 78.8911 60.9512 78.8714 60.8808 78.8376L60.0908 78.4712C59.9494 78.405 59.8401 78.2857 59.7868 78.1394C59.7335 77.9932 59.7405 77.8318 59.8063 77.6907Z" fill="#A3A2A2"/>
<path id="Vector_59" d="M58.4448 7.97036C57.9643 8.82661 57.8507 9.71191 58.1321 10.4C58.3072 10.8224 58.6105 11.1265 58.9659 11.2303C59.4766 11.3787 60.1957 11.2303 60.8064 11.029C61.0934 10.934 61.3749 10.8231 61.6495 10.6969C61.7489 9.91973 62.0024 9.17 62.3951 8.49119C62.7878 7.81238 63.3119 7.218 63.9372 6.74255C63.2768 6.35709 62.6609 5.90044 62.1008 5.38086C61.4265 5.6258 59.2671 6.50073 58.4448 7.97036Z" fill="#A3A2A2"/>
<path id="Vector_60" d="M62.9511 68.3247C63.2002 68.1711 63.4201 67.7487 63.6629 67.5328C63.3221 67.6366 62.7844 67.5785 62.5436 67.7581L62.2164 67.9397C62.2841 67.647 62.2164 67.3284 62.3748 67.0762L62.009 67.2837C61.5222 67.5526 61.4566 68.0175 61.4503 68.3683L61.1272 68.5468C61.195 68.2552 61.1335 67.9355 61.2846 67.6844C61.1627 67.7508 61.0418 67.8193 60.9188 67.8857C60.4331 68.1545 60.3675 68.6205 60.3612 68.9703L60.0371 69.1488C60.1069 68.8582 60.0434 68.5375 60.1955 68.2863L59.8307 68.4887C59.344 68.7575 59.2784 69.2225 59.2732 69.5723L54.7188 72.0912L55.4358 72.4866L59.6129 70.1773C59.9131 70.3559 60.3425 70.5448 60.8271 70.2759C60.949 70.2085 61.072 70.1421 61.1919 70.0746C60.899 70.0694 60.6603 69.8504 60.3779 69.7529L60.701 69.5743C61.0032 69.7539 61.4305 69.9417 61.9162 69.6781L62.281 69.4706C61.9881 69.4706 61.7515 69.2464 61.467 69.1498L61.7901 68.9703C62.0913 69.1509 62.5196 69.3387 63.0053 69.0741L63.3701 68.8717C63.0783 68.8665 62.8396 68.6475 62.5572 68.55L62.9115 68.3538L62.9511 68.3247Z" fill="#A3A2A2"/>
<path id="Vector_61" d="M64.1326 16.7982C63.8805 16.5809 63.6434 16.3468 63.4229 16.0977C63.006 16.5782 61.2749 18.6789 61.2832 20.4443C61.2905 21.7126 61.9086 22.4162 62.2765 22.7193C62.7496 23.1127 63.2061 23.1998 63.4468 23.1583C63.7429 23.1102 64.0244 22.9971 64.2712 22.8273C64.5179 22.6575 64.7237 22.4352 64.8736 22.1765C64.7017 20.4588 65.376 18.5107 65.673 17.7562C65.1172 17.5098 64.5988 17.1874 64.1326 16.7982Z" fill="#A3A2A2"/>
<path id="Vector_62" d="M47.7625 41.8964C48.0398 41.8175 49.0361 41.5186 49.2216 41.3899C49.3436 41.3079 49.3071 41.2207 48.9777 41.146C48.0564 40.9634 47.5187 40.7184 47.3488 39.9141C47.0247 40.4589 46.0241 41.6016 45.1602 42.2254C45.7084 42.1216 47.3582 41.2778 47.6677 41.0744C47.4238 41.8528 47.3592 42.0126 47.7625 41.8964Z" fill="#A3A2A2"/>
<path id="Vector_63" d="M43.3387 41.7813L41.5909 43.0039C43.6059 42.64 45.4221 41.399 47.0396 39.281C47.3804 39.1347 47.756 39.0883 48.1224 39.1472C50.778 39.472 50.9437 41.6723 55.5648 41.772V35.0195H39.9453V41.7813L41.6431 40.4321L43.3387 41.7813ZM51.2115 37.5665C51.2106 37.9313 51.0924 38.2863 50.8743 38.5795C50.6562 38.8727 50.3496 39.0887 49.9994 39.1959C49.4465 38.8681 48.831 38.6585 48.1923 38.5805C47.7182 38.5088 47.2335 38.5729 46.7947 38.7652C46.5185 38.895 46.4268 39.2696 46.0047 39.2696C45.5514 39.2683 45.1171 39.0884 44.7965 38.7693C44.4759 38.4503 44.295 38.0179 44.2934 37.5665H51.2115Z" fill="#A3A2A2"/>
<path id="Vector_64" d="M55.5679 45.0949V43.6865H39.9453V45.0949C39.9453 49.3502 43.4836 52.8728 47.7556 52.8728C52.0276 52.8728 55.5679 49.3492 55.5679 45.0949ZM50.8426 49.0845C50.1193 49.0845 49.5325 48.5791 49.5325 47.9543H52.1547C52.1589 48.5791 51.5721 49.0845 50.8426 49.0845ZM53.6992 45.8432C53.6992 46.466 53.1125 46.9735 52.3892 46.9735C51.6659 46.9735 51.0771 46.467 51.0771 45.8432H53.6992ZM50.6081 45.8432C50.6081 46.466 50.0213 46.9735 49.298 46.9735C48.5747 46.9735 47.9859 46.467 47.9859 45.8432H50.6081ZM41.8046 45.8432H44.4268C44.4268 46.466 43.84 46.9735 43.1167 46.9735C42.3934 46.9735 41.8088 46.467 41.8088 45.8432H41.8046ZM44.6613 49.0845C43.9317 49.0845 43.3512 48.5791 43.3512 47.9543H45.9724C45.9765 48.5791 45.3898 49.0845 44.6654 49.0845H44.6613ZM44.902 45.8432H47.5242C47.5242 46.466 46.9374 46.9735 46.2131 46.9735C45.4888 46.9735 44.902 46.467 44.902 45.8432ZM46.4476 47.9543H49.0708C49.0708 48.577 48.4841 49.0845 47.7587 49.0845C47.0333 49.0845 46.4445 48.5791 46.4445 47.9543H46.4476Z" fill="#A3A2A2"/>
<path id="Vector_65" d="M36.2281 53.51C36.1708 53.7176 36.8388 54.0746 37.016 54.1213C37.5142 54.2552 37.7164 53.5058 37.2161 53.3719C37.04 53.3263 36.2823 53.3024 36.2281 53.51Z" fill="#A3A2A2"/>
<path id="Vector_66" d="M38.7811 54.6863C38.8976 54.6192 38.9915 54.5191 39.0509 54.3989C39.1104 54.2786 39.1327 54.1434 39.115 54.0105C39.0973 53.8776 39.0404 53.753 38.9516 53.6522C38.8627 53.5515 38.7458 53.4793 38.6158 53.4448C38.4857 53.4102 38.3483 53.4149 38.2208 53.4581C38.0934 53.5013 37.9817 53.5812 37.8999 53.6877C37.8181 53.7941 37.7698 53.9224 37.7612 54.0561C37.7525 54.1899 37.7839 54.3233 37.8514 54.4393C37.8961 54.5164 37.9556 54.5839 38.0265 54.6381C38.0975 54.6922 38.1784 54.7319 38.2648 54.7548C38.3511 54.7778 38.4412 54.7835 38.5298 54.7718C38.6184 54.76 38.7038 54.731 38.7811 54.6863Z" fill="#A3A2A2"/>
<path id="Vector_67" d="M38.0924 52.722C38.0007 52.5642 37.4807 52.0152 37.2962 52.1221C37.1117 52.229 37.3264 52.9524 37.4171 53.1102C37.6756 53.5564 38.352 53.1683 38.0924 52.722Z" fill="#A3A2A2"/>
<path id="Vector_68" d="M39.1699 52.8795C39.2178 52.7041 39.2397 51.9454 39.0313 51.8935C38.8229 51.8416 38.4643 52.5038 38.4174 52.6781C38.2872 53.1763 39.0396 53.3777 39.1699 52.8795Z" fill="#A3A2A2"/>
<path id="Vector_69" d="M66.3354 48.1794V24.2979H29.1777V48.1794C29.1777 58.3568 37.5362 66.6805 47.756 66.6805C57.9759 66.6805 66.3354 58.3568 66.3354 48.1794ZM53.0316 62.6204C53.0059 62.0426 53.3982 61.7707 54.2083 61.8046C54.5606 60.3703 54.7572 59.4043 54.7982 58.9069C54.4086 58.9298 54.0224 58.824 53.6993 58.606C53.3763 58.3879 53.1347 58.0697 53.0118 57.7008C53.3467 55.594 53.7984 54.3167 54.3667 53.869C54.8816 53.8835 55.3964 53.8835 55.9113 53.869C57.1713 55.8607 56.9535 57.5358 56.9336 59.7662C56.473 60.3011 55.6997 61.2134 54.6137 62.5031L53.0316 62.6204ZM53.3443 58.7231C53.673 58.9436 54.0321 59.1153 54.4105 59.2327C54.2229 60.4685 54.1287 61.0864 54.128 61.0864C53.6743 60.3754 53.405 59.5634 53.3443 58.7231ZM54.3198 52.911L54.8315 53.2722L55.1275 52.6173L55.4214 53.2722L55.9352 52.911L55.9196 53.6376H54.3344L54.3198 52.911ZM57.238 49.9095H57.9925L57.856 50.6433L58.5939 50.5084V51.2598L57.856 51.1249L57.9925 51.8586H57.238L57.3714 51.1249L56.6418 51.2598V50.5084L57.3714 50.6433L57.238 49.9095ZM57.6173 53.0387C57.5258 53.0387 57.4363 53.0117 57.3601 52.961C57.284 52.9103 57.2247 52.8383 57.1897 52.754C57.1547 52.6697 57.1456 52.577 57.1636 52.4876C57.1815 52.3982 57.2257 52.3161 57.2905 52.2517C57.3553 52.1873 57.4379 52.1435 57.5277 52.1258C57.6175 52.1081 57.7106 52.1174 57.7951 52.1524C57.8797 52.1875 57.9519 52.2467 58.0026 52.3226C58.0533 52.3985 58.0803 52.4877 58.0801 52.5789C58.0801 52.6394 58.0681 52.6993 58.0448 52.7551C58.0216 52.811 57.9875 52.8617 57.9445 52.9044C57.9015 52.9471 57.8505 52.981 57.7943 53.004C57.7382 53.0271 57.6781 53.0388 57.6173 53.0387ZM57.8779 53.294V59.7205H57.3568V53.294H57.8779ZM56.2343 62.4813C56.0884 62.1471 56.2135 61.8966 56.6095 61.7299C55.9686 60.6245 57.633 59.6002 58.6126 60.773C57.8705 61.4097 57.0744 61.9812 56.2333 62.4813H56.2343ZM60.6512 58.6899C60.5831 58.6305 60.53 58.5559 60.4962 58.4723C60.4623 58.3886 60.4487 58.2982 60.4563 58.2084C60.4938 57.7787 60.8888 57.7808 61.0222 57.3781C61.1556 56.9754 60.8367 56.5965 60.3844 56.9307L59.7518 57.3957C59.7597 57.1026 59.8505 56.8177 60.0138 56.5738C60.1772 56.3299 60.4063 56.1368 60.675 56.0169C60.9436 55.8969 61.2408 55.855 61.5323 55.8958C61.8239 55.9367 62.0979 56.0587 62.3229 56.2478C61.8378 57.1088 61.2781 57.926 60.6501 58.6899H60.6512ZM63.7507 50.4118C63.5829 51.5618 62.4427 51.5805 61.5381 51.7694C61.2128 51.8263 60.8984 51.9334 60.6064 52.087C60.1593 52.3381 59.7726 53.0408 60.2937 53.3252C60.8773 53.6438 61.1869 52.8353 61.7778 52.6121C62.4802 52.3464 63.0076 52.9297 63.4255 53.8431C63.2338 54.3516 63.0771 54.7349 62.9555 54.993C62.8732 54.7761 62.7398 54.3578 62.5793 54.006C61.981 52.7004 61.8153 53.8877 61.4245 54.4502C60.993 55.0729 60.3375 55.7116 59.4579 56.3661C59.1445 57.2975 58.7749 57.9977 58.349 58.4668C58.3344 57.211 58.3344 55.9555 58.349 54.7003C58.845 54.2852 59.1025 53.6178 59.2755 53.0138C59.4172 52.4949 59.4381 52.3184 59.9008 51.9012C60.3177 51.5338 60.8284 51.3439 61.4193 51.2203C61.8362 51.1342 62.6699 51.0574 62.9826 50.7678C63.1015 50.652 63.1754 50.4979 63.191 50.333C63.3015 49.5597 62.1165 49.3345 61.561 49.2401C61.1441 49.1685 60.647 49.0439 60.3771 48.689C59.8831 48.0372 60.473 47.074 60.8555 46.5219C61.1066 46.1576 61.5694 46.4762 61.3172 46.8395C61.1212 47.1249 60.547 47.9811 60.8252 48.3517C60.9857 48.5592 61.4099 48.6464 61.659 48.6879C61.8844 48.7252 62.1077 48.7741 62.3281 48.8343C63.0889 49.0481 63.882 49.4954 63.7497 50.4118H63.7507ZM60.0144 28.5106C61.5214 28.4442 61.3109 27.3969 60.5959 27.3243C61.5412 26.7805 62.1259 27.6896 62.0123 28.5646C62.8909 28.4504 63.8038 29.0337 63.2629 29.975C63.1889 29.2631 62.1384 29.0524 62.0707 30.5531C65.8226 30.6029 63.759 36.3652 64.3979 39.4166C63.7215 39.1146 63.2661 38.6714 63.3025 37.6211L63.4401 33.6066C63.463 32.8198 62.9961 32.7638 62.9388 33.1084C62.8659 34.2718 62.8346 36.3943 62.7543 37.9345C62.0769 37.6325 61.8476 37.2609 61.8831 36.2106L61.9946 32.6361C62.0175 31.8484 61.5506 31.7924 61.4943 32.138C61.4203 33.3014 61.412 35.0679 61.3401 36.4877C60.6637 36.1857 60.4302 35.8515 60.4688 34.8012L60.5324 32.1961C60.5553 31.4094 60.1551 31.2423 59.8685 31.5277C59.7629 31.6563 59.6742 31.798 59.6048 31.9491C58.5626 34.0809 56.4657 32.0062 58.6147 30.9631C58.7663 30.8936 58.9084 30.8053 59.0379 30.7005C59.3245 30.4151 59.1567 30.0155 58.3656 30.0394L55.7508 30.1037C54.696 30.1401 54.3594 29.9076 54.0582 29.234C55.4829 29.1624 57.2567 29.1541 58.424 29.0804C58.771 29.0243 58.7148 28.5614 57.9237 28.5822L54.3344 28.6933C53.2807 28.7306 52.9055 28.5002 52.6043 27.8266C54.1489 27.7488 56.2812 27.7156 57.4495 27.6429C57.7966 27.5858 57.7393 27.124 56.9493 27.1437L52.918 27.2838C51.8633 27.3201 51.4183 26.8687 51.1161 26.193C54.1781 26.8313 59.9654 24.7711 60.0144 28.5106ZM35.21 29.5827C35.2748 29.6471 35.3191 29.7292 35.337 29.8186C35.355 29.9081 35.3459 30.0008 35.3109 30.0851C35.2759 30.1694 35.2166 30.2414 35.1405 30.2921C35.0644 30.3428 34.9748 30.3698 34.8833 30.3698C34.7917 30.3698 34.7022 30.3428 34.626 30.2921C34.5499 30.2414 34.4906 30.1694 34.4556 30.0851C34.4206 30.0008 34.4116 29.9081 34.4295 29.8186C34.4475 29.7292 34.4917 29.6471 34.5565 29.5827C34.5994 29.5399 34.6503 29.506 34.7064 29.4829C34.7625 29.4597 34.8226 29.4478 34.8833 29.4478C34.944 29.4478 35.0041 29.4597 35.0601 29.4829C35.1162 29.506 35.1671 29.5399 35.21 29.5827ZM32.7233 28.2885L33.2569 27.7571L33.6832 28.3705L34.1074 27.7571L34.6399 28.2885L34.024 28.7119L34.6399 29.1354L34.1074 29.6626L33.6832 29.0492L33.2569 29.6626L32.7233 29.1323L33.3392 28.7088L32.7233 28.2885ZM30.7577 28.5697C31.0534 28.529 31.3546 28.5784 31.6215 28.7114C31.8885 28.8444 32.1087 29.0548 32.2533 29.3149C32.3632 29.5105 32.4173 29.7323 32.4096 29.9563C32.3992 30.8323 31.6582 31.6668 31.4716 32.5438C31.4049 32.8738 31.3789 33.2703 31.5091 33.591C31.5399 33.6833 31.5919 33.7671 31.6611 33.8358C31.7302 33.9044 31.8145 33.956 31.9073 33.9864C32.4502 34.1265 32.8452 33.3139 33.1058 32.9413C33.7676 31.9989 34.4315 31.2485 36.3231 29.9574C35.8301 27.5703 37.383 24.8023 39.5601 26.6528C39.4707 27.1012 39.2276 27.5048 38.8723 27.7945C39.0582 27.8955 39.2199 28.0355 39.3462 28.2047C39.4725 28.374 39.5604 28.5686 39.6039 28.775C39.6474 28.9814 39.6454 29.1947 39.5981 29.4003C39.5508 29.6059 39.4593 29.7988 39.3298 29.9657C40.0271 30.2646 40.5898 30.4203 41.1234 30.3175C41.5966 30.2262 41.6706 30.0871 42.0197 29.836C42.2376 29.6803 42.4856 29.5993 42.7128 29.9906C42.0097 30.852 40.627 31.2326 38.5648 31.1323C37.7497 31.8561 36.8136 32.4322 35.7988 32.8344C35.8218 33.5083 35.1068 34.5496 33.654 35.9584C33.8687 37.182 33.753 38.1753 33.2131 38.5635C32.7181 38.9184 32.0271 38.8094 32.5034 38.0279C32.8213 37.509 33.4716 37.0357 32.9203 36.4275C31.9052 35.264 34.1928 34.6444 33.3684 33.5111C33.2163 33.6751 33.0641 33.8359 32.9151 34.003C32.6326 34.3144 32.222 34.5334 31.7916 34.4182C31.6307 34.3713 31.4833 34.2872 31.3613 34.1726C31.2394 34.058 31.1465 33.9163 31.0902 33.7591C30.9255 33.3523 30.9422 32.8759 31.0297 32.4545C31.0999 32.1509 31.2048 31.8563 31.3424 31.5765C31.5508 31.1157 31.9479 30.4618 31.9552 29.9522C31.9614 29.7856 31.9144 29.6213 31.8208 29.4831C31.6863 29.5507 31.5347 29.5772 31.3851 29.5592C31.2355 29.5412 31.0946 29.4796 30.9801 29.3821C30.8656 29.2846 30.7826 29.1556 30.7415 29.0112C30.7005 28.8668 30.7032 28.7136 30.7494 28.5708L30.7577 28.5697ZM37.6425 33.7799C37.3038 34.9018 35.6821 35.5121 34.5909 35.6398C35.4059 34.7444 35.8763 33.8937 36.0021 33.0876C36.1667 33.51 36.148 33.8276 36.0187 34.4182C36.8139 34.3092 37.2788 33.4301 37.6425 33.7799ZM39.6727 61.1424C40.8122 61.1895 41.7074 60.9369 42.3585 60.3848C44.1448 61.2255 41.138 63.4808 39.6727 61.1424ZM39.038 60.5519C38.9536 61.0708 38.889 61.6551 38.8296 62.2042L38.2376 61.7672C38.3053 61.2556 38.3741 60.748 38.4189 60.226C38.3345 60.1699 38.2491 60.1097 38.1646 60.0444C38.0448 60.7128 38.0604 61.0957 38.0208 61.6012L36.9995 60.8456C37.1787 60.6671 37.3476 60.5827 37.506 60.5924C37.556 60.2613 37.5987 59.9115 37.6362 59.5462C37.162 59.0272 36.7379 58.3225 36.4064 57.3947L36.5253 58.8809L36.4148 58.8363C35.8761 58.6444 35.4259 58.264 35.1481 57.766C34.8702 57.268 34.7837 56.6863 34.9046 56.1295C34.3599 55.9554 33.8974 55.5899 33.6032 55.1012C33.3091 54.6126 33.2034 54.0341 33.3059 53.4736L33.3215 53.3563L34.5555 54.2011C33.9135 53.4507 33.5133 52.7336 33.2986 52.0662C32.9616 51.9147 32.6368 51.7763 32.3241 51.6511C32.2547 51.7894 32.0973 51.8932 31.852 51.9624C31.7916 51.4497 31.7478 51.1031 31.704 50.7045C32.1657 50.9277 32.493 51.1301 33.135 51.3605C33.1183 51.2567 33.1089 51.1529 33.1027 51.0491C32.6264 50.827 32.1511 50.6339 31.6717 50.4347L31.5873 49.7082C32.0938 49.9303 32.6399 50.169 33.1287 50.3537C33.4497 48.0507 36.0208 46.8799 36.9453 48.1109C37.0974 48.3139 37.1753 48.5626 37.166 48.8157C37.1568 49.0689 37.0608 49.3113 36.8942 49.5027C36.9578 48.8135 35.754 48.0258 35.5748 49.6386C35.0922 53.9603 34.9036 56.1274 34.9036 56.1274C34.9036 56.1274 36.8838 57.048 40.8817 58.7927C42.3751 59.4434 42.2907 58.0122 41.6612 57.7226C41.9108 57.6748 42.1694 57.7134 42.3939 57.8322C42.6184 57.951 42.7953 58.1427 42.8952 58.3755C43.5059 59.7953 41.2016 61.4268 39.038 60.5519ZM34.9349 47.5784C34.1289 47.8642 33.4619 48.5098 32.9338 49.5151C31.6321 47.0855 35.0974 45.62 34.9349 47.5816V47.5784ZM37.1996 51.9531C37.6255 51.7083 38.1149 51.5947 38.6056 51.6269C39.0964 51.659 39.5666 51.8353 39.9567 52.1336C40.3469 52.4318 40.6394 52.8385 40.7974 53.3024C40.9554 53.7662 40.9718 54.2663 40.8444 54.7393C40.717 55.2124 40.4516 55.6372 40.0817 55.9601C39.7119 56.283 39.2542 56.4893 38.7665 56.5532C38.2789 56.617 37.7832 56.5354 37.3421 56.3186C36.9011 56.1019 36.5345 55.7598 36.2887 55.3355C35.9601 54.767 35.8714 54.0918 36.0422 53.4582C36.213 52.8247 36.6292 52.2845 37.1996 51.9562V51.9531ZM38.0114 45.0927V43.6874H30.1261V41.7611H38.0114V33.0938H46.7889V25.2423H48.7232V33.0938H57.5027V41.7611H65.3859V43.6874H57.5027V45.0958C57.5027 50.0891 53.6194 54.2603 48.7232 54.7481V65.7101C48.4043 65.7278 48.0812 65.7371 47.756 65.7371C47.4309 65.7371 47.1099 65.7278 46.7889 65.7101V54.7512C41.8947 54.2603 38.0114 50.0891 38.0114 45.0958V45.0927Z" fill="#A3A2A2"/>
<path id="Vector_70" d="M36.0186 34.4219C35.9625 34.4302 36.0798 34.4219 36.0186 34.4219V34.4219Z" fill="#A3A2A2"/>
<path id="Vector_71" d="M39.8258 53.7525C39.9832 53.6612 40.5355 53.1433 40.4271 52.9575C40.3187 52.7718 39.5934 52.9897 39.435 53.08C39.3454 53.1316 39.2801 53.2165 39.2534 53.3161C39.2267 53.4157 39.2409 53.5217 39.2927 53.6109C39.3445 53.7001 39.4298 53.7651 39.5298 53.7917C39.6298 53.8182 39.7362 53.8042 39.8258 53.7525Z" fill="#A3A2A2"/>
<path id="Vector_72" d="M38.7894 55.4777C38.8811 55.6344 39.4011 56.1835 39.5877 56.0766C39.7742 55.9697 39.5575 55.2463 39.4657 55.0885C39.2062 54.6433 38.5309 55.0314 38.7894 55.4777Z" fill="#A3A2A2"/>
<path id="Vector_73" d="M37.7104 55.3196C37.6635 55.495 37.6406 56.2537 37.849 56.3045C38.0575 56.3554 38.416 55.6964 38.4639 55.521C38.5963 55.0228 37.8438 54.8225 37.7104 55.3196Z" fill="#A3A2A2"/>
<path id="Vector_74" d="M39.6658 54.8286C39.842 54.8753 40.6038 54.8981 40.6559 54.6906C40.708 54.483 40.0442 54.126 39.868 54.0793C39.3688 53.9485 39.1697 54.6958 39.6658 54.8286Z" fill="#A3A2A2"/>
<path id="Vector_75" d="M37.0577 54.4469C36.8993 54.5383 36.348 55.0562 36.4564 55.2419C36.4856 55.2949 36.5669 55.3146 36.6648 55.3146C36.9342 55.2985 37.1982 55.2327 37.4434 55.1205C37.5276 55.0664 37.5877 54.9821 37.6113 54.885C37.6349 54.788 37.6201 54.6857 37.5701 54.5992C37.52 54.5127 37.4385 54.4486 37.3424 54.4203C37.2462 54.392 37.1428 54.4015 37.0536 54.4469H37.0577Z" fill="#A3A2A2"/>
<path id="Vector_76" d="M54.7575 55.6528L54.8617 56.0513C54.8982 56.1946 54.9826 56.3191 55.1317 56.3191C55.2807 56.3191 55.3651 56.1935 55.3995 56.0513L55.5037 55.6518C56.0384 55.6518 56.1176 55.6196 56.2114 55.1328H54.0488C54.1437 55.6217 54.2291 55.6549 54.7575 55.6528Z" fill="#A3A2A2"/>
<path id="Vector_77" d="M62.4525 4.65609C62.4677 4.6685 62.482 4.68203 62.4952 4.69657C63.3498 5.49574 64.1304 6.00948 64.8203 6.32915C64.8491 6.33804 64.8767 6.35023 64.9027 6.36547C65.9074 6.8128 66.7151 6.85016 67.2789 6.77128C68.2961 6.62806 68.7932 6.08006 68.863 5.85173C69.3529 4.27 68.6546 3.12315 66.7964 2.44334C64.8162 1.71683 61.4186 1.65248 59.9355 1.66078C60.6691 2.7426 61.5125 3.74633 62.4525 4.65609Z" fill="#A3A2A2"/>
<path id="Vector_78" d="M67.3383 24.3321H67.3456C67.7004 24.3967 68.0661 24.3666 68.4055 24.2449C69.2226 23.9398 69.6394 23.1033 69.7603 22.8241C69.3685 21.2496 69.6978 19.4738 69.8416 18.8355C68.6699 18.6983 67.5167 18.4346 66.4024 18.0488C66.1022 18.821 65.3695 20.9455 65.7197 22.5397C65.777 22.8095 65.8706 23.0702 65.998 23.315H67.3258V24.328L67.3383 24.3321Z" fill="#A3A2A2"/>
<path id="Vector_79" d="M68.1741 32.0482C69.1861 32.1883 70.4763 31.6528 70.7682 29.6787C71.0402 27.8427 70.0991 24.7042 69.9021 24.0742C69.5817 24.4763 69.1603 24.7871 68.6806 24.9751C68.3706 25.0902 68.0423 25.1489 67.7114 25.1484C67.5894 25.1484 67.3477 25.1225 67.3477 25.1225L67.3539 31.6154C67.5662 31.8532 67.8574 32.0068 68.1741 32.0482Z" fill="#A3A2A2"/>
<path id="Vector_80" d="M70.0827 80.7578C67.7899 82.708 57.0979 87.5372 56.7425 84.3125C56.7728 83.1854 60.0057 83.6317 60.9301 83.6317C62.7769 83.6317 62.7769 80.8294 60.9301 80.8294C57.4758 81.5114 53.9749 81.9343 50.457 82.0946V85.504C52.5612 85.4101 54.6591 85.2089 56.7425 84.901V87.7157C56.7425 91.4614 69.817 85.5538 72.3516 83.4023L69.1062 83.8279L70.0827 80.7578Z" fill="#A3A2A2"/>
<path id="Vector_81" d="M73.615 18.2709C72.5342 17.26 71.7859 16.1951 71.6828 14.905C70.6574 14.3765 69.7323 13.674 68.9491 12.8293C67.2753 10.9798 66.9689 8.5522 66.9136 7.58282C66.8792 7.58282 66.8449 7.58282 66.8094 7.58282C66.093 7.57282 65.3858 7.41928 64.7302 7.13135C63.342 8.08516 62.5103 9.48214 62.3978 11.094C62.2633 12.9735 63.1044 14.8864 64.6448 16.2107C66.7761 18.0384 71.2898 18.2792 73.615 18.2709Z" fill="#A3A2A2"/>
<path id="Vector_82" d="M72.775 25.0171C73.3785 25.1427 73.8172 25.0088 74.0173 24.8563C74.701 24.3228 74.7979 23.7208 74.8094 23.534C73.8537 22.0509 73.4128 19.8589 73.2763 19.0525C72.5249 19.0525 71.6088 19.0182 70.6218 18.9248C70.4863 19.506 69.9965 21.9284 70.8303 23.4717C71.4295 24.5895 72.3071 24.9196 72.775 25.0171Z" fill="#A3A2A2"/>
<path id="Vector_83" d="M71.5093 29.9667C71.7659 30.5141 72.2044 30.9566 72.7506 31.2194C73.1102 31.3907 73.9168 31.4654 74.5901 31.099C75.1622 30.7876 75.4989 30.2324 75.5948 29.4519C75.7897 27.8567 75.1675 25.8993 74.8829 25.1136C74.7642 25.2421 74.6348 25.3604 74.4963 25.4675C74.1836 25.7135 73.7365 25.8432 73.2456 25.8432C73.0355 25.8425 72.826 25.8206 72.6203 25.7778C71.9973 25.6446 71.4225 25.3446 70.958 24.9102C71.3071 26.221 71.7595 28.3351 71.5437 29.7934C71.5323 29.8536 71.5208 29.9086 71.5093 29.9667Z" fill="#A3A2A2"/>
<path id="Vector_84" d="M67.0656 1.71292C70.2245 2.86704 69.8993 5.15244 69.6127 6.08134C69.4429 6.62519 68.7373 7.24688 67.6909 7.48143C67.7368 8.31174 68.0036 10.6169 69.5283 12.3044C70.1638 12.9918 70.9042 13.575 71.7222 14.0325C73.4616 13.9152 74.5121 14.1363 74.8665 14.6999C75.0895 14.6837 75.3059 14.6165 75.4986 14.5034C75.6913 14.3904 75.8552 14.2345 75.9775 14.0481C76.7914 12.8089 75.6648 12.0927 74.4027 12.1934C74.2973 12.2014 74.193 12.1676 74.1126 12.0994C74.0322 12.0311 73.9821 11.934 73.9733 11.8291C73.9264 11.2271 76.7278 10.7798 77.423 11.2064C78.2304 9.95472 78.7076 8.52035 78.8102 7.03619C75.6711 4.0817 72.0904 2.40276 68.0682 1.99938C68.1849 -0.0587308 64.581 -0.688721 60.3955 0.884698H60.4018C62.087 0.889888 65.1438 1.01651 67.0656 1.71292ZM71.1041 4.74559C72.731 4.74559 74.0963 5.39531 75.4814 6.46743L73.053 6.08446C72.8661 6.32013 72.5961 6.47619 72.2979 6.52097C71.9997 6.56575 71.6955 6.49591 71.4471 6.32561C71.1986 6.15531 71.0246 5.89729 70.9601 5.60389C70.8956 5.31048 70.9456 5.00364 71.1 4.74559H71.1041Z" fill="#A3A2A2"/>
<path id="Vector_85" d="M74.0713 19.0459C74.2589 20.0838 74.8561 22.8186 76.0952 23.8565C77.0728 24.6722 78.0108 24.6587 78.4808 24.5757C79.0874 24.4719 79.4501 24.1834 79.5752 23.9696C79.7066 23.7458 79.7943 23.4993 79.8336 23.2431C78.0733 21.5825 76.0817 20.3069 74.5017 19.0293L74.0713 19.0459Z" fill="#A3A2A2"/>
<path id="Vector_86" d="M78.0442 25.3919C77.3303 25.3858 76.6338 25.1723 76.04 24.7775C76.3225 25.6078 77.0927 27.5258 78.4131 28.3374C80.1025 29.3752 81.522 28.4547 81.9087 27.8755C82.2213 27.4074 82.3454 26.8376 82.3891 26.3592C81.8479 25.4639 81.206 24.6331 80.4756 23.8828C80.4151 24.0495 80.3402 24.2106 80.2516 24.3644C79.966 24.8491 79.3542 25.2154 78.6153 25.3431C78.4267 25.3758 78.2356 25.3921 78.0442 25.3919Z" fill="#A3A2A2"/>
<path id="Vector_87" d="M77.0645 43.4345C77.4305 45.3983 77.9593 47.3284 78.6455 49.2051C79.6053 51.7583 81.4907 55.3566 84.784 54.492L77.4782 43.1543C77.3427 43.2477 77.2052 43.3422 77.0645 43.4345Z" fill="#A3A2A2"/>
<path id="Vector_88" d="M90.2506 56.6549L80.0672 40.8501C79.4841 41.5099 78.8415 42.1151 78.1475 42.6581L86.3079 55.3596C86.7692 55.9317 87.387 56.3585 88.0867 56.5884C88.7864 56.8182 89.538 56.8413 90.2506 56.6549Z" fill="#A3A2A2"/>
<path id="Vector_89" d="M90.5668 57.8566C89.4807 58.1413 88.3304 58.0577 87.2974 57.619C83.4204 59.182 78.126 55.5795 75.8019 44.001L73.0088 45.2786C73.0776 47.2143 72.9046 50.1473 71.5841 51.6844C70.9275 52.4493 70.2459 52.7793 70.4888 52.2178C71.4898 49.9256 71.9327 47.4302 71.7811 44.9351C71.7724 44.8138 71.8013 44.6928 71.8639 44.5885C71.9265 44.4841 72.0199 44.4015 72.1313 44.3518C73.9333 43.5277 75.6748 42.8728 77.2527 41.6533C81.0577 38.6954 82.1448 34.6736 83.7925 29.9648C83.6128 29.0973 83.333 28.2535 82.9587 27.45C82.864 27.7545 82.7272 28.0444 82.5523 28.3114C82.1125 28.9674 81.1359 29.5859 79.9561 29.5859C79.2618 29.5788 78.5834 29.377 77.9989 29.0037C77.2537 28.547 76.6722 27.8215 76.2271 27.0898C76.3751 27.8786 76.4595 28.7504 76.3605 29.5506C76.2032 30.8501 75.5091 31.4821 74.9557 31.7852C74.5066 32.0232 74.0052 32.1462 73.4966 32.1433C73.1216 32.1502 72.7496 32.0759 72.4064 31.9253C71.9387 31.7023 71.5286 31.3752 71.2079 30.9694C70.6451 32.2782 69.5571 32.8511 68.4815 32.8511C68.1959 32.8511 67.4841 32.7774 67.3142 32.5802V48.2065C67.3128 50.8036 66.7884 53.374 65.7722 55.7658C64.756 58.1576 63.2685 60.3222 61.3977 62.1316C68.0094 65.5867 68.2011 74.9089 61.6061 71.6801C61.3185 71.5151 60.996 71.4196 60.6647 71.4013C60.3333 71.383 60.0022 71.4425 59.698 71.5748C59.3939 71.7072 59.1252 71.9088 58.9136 72.1634C58.7019 72.418 58.5533 72.7185 58.4795 73.0407L59.0642 73.4071C59.262 73.0793 59.5342 72.8022 59.859 72.5982C60.1838 72.3941 60.5521 72.2687 60.9344 72.2321C61.3167 72.1955 61.7023 72.2486 62.0602 72.3872C62.4181 72.5259 62.7384 72.7461 62.9953 73.0304C62.7089 72.8453 62.3818 72.7318 62.0418 72.6995C61.7019 72.6672 61.3591 72.717 61.0427 72.8448C60.7262 72.9725 60.4453 73.1744 60.2239 73.4333C60.0025 73.6921 59.8471 74.0004 59.7708 74.3319C59.9597 74.4646 60.1556 74.5872 60.3575 74.6993C60.555 74.3712 60.827 74.0939 61.1517 73.8896C61.4763 73.6853 61.8446 73.5597 62.2269 73.523C62.6092 73.4862 62.9948 73.5393 63.3527 73.678C63.7106 73.8167 64.0309 74.0371 64.2877 74.3215C64.0013 74.1362 63.6741 74.0225 63.3341 73.9901C62.9941 73.9577 62.6513 74.0076 62.3348 74.1355C62.0183 74.2634 61.7375 74.4655 61.5162 74.7246C61.295 74.9838 61.1399 75.2924 61.0642 75.624C61.6567 76.0495 62.3304 76.3497 63.0439 76.5063C63.7573 76.6628 64.4953 76.6725 65.2126 76.5345C65.9298 76.3966 66.6112 76.114 67.2148 75.7042C67.8183 75.2943 68.3313 74.7659 68.7222 74.1513C69.0896 74.3133 69.5013 74.3462 69.8899 74.2446C70.2785 74.1429 70.6209 73.9128 70.8608 73.5919C73.6321 68.0434 72.3564 70.61 73.6227 68.1949C68.6285 66.443 69.3611 57.676 72.8421 55.8234C72.3272 56.4223 71.3684 59.6874 71.383 61.9894C71.4122 65.9022 76.2595 64.525 77.3027 70.0849C77.8488 72.9909 76.1229 75.8368 72.89 75.2971C72.5338 75.2129 72.1627 75.2132 71.8066 75.298C71.4505 75.3827 71.1194 75.5496 70.8399 75.785C70.5604 76.0205 70.3402 76.318 70.1973 76.6536C70.0543 76.9892 69.9924 77.3536 70.0167 77.7174L70.7462 77.925C70.8515 77.5166 71.0514 77.1384 71.33 76.8208C71.6085 76.5032 71.9579 76.255 72.3502 76.0962C72.7424 75.9374 73.1666 75.8723 73.5887 75.9062C74.0107 75.9401 74.4189 76.072 74.7806 76.2914C74.4193 76.1857 74.0379 76.1684 73.6685 76.2409C73.2991 76.3135 72.9528 76.4737 72.6589 76.708C72.365 76.9423 72.1322 77.2438 71.9803 77.5868C71.8284 77.9299 71.7618 78.3044 71.7863 78.6785C72.0257 78.7602 72.2692 78.8295 72.5159 78.8861C72.621 78.4775 72.8209 78.0992 73.0993 77.7815C73.3778 77.4638 73.7272 77.2155 74.1195 77.0566C74.5118 76.8976 74.936 76.8325 75.3581 76.8663C75.7802 76.9001 76.1885 77.032 76.5502 77.2514C76.1891 77.1459 75.8077 77.1288 75.4385 77.2014C75.0692 77.274 74.723 77.4343 74.4293 77.6686C74.1355 77.9029 73.9028 78.2043 73.751 78.5472C73.5991 78.8902 73.5326 79.2645 73.557 79.6385C74.3179 79.9019 75.1248 80.0075 75.9282 79.9488C76.7315 79.8902 77.5143 79.6684 78.2284 79.2972C78.9425 78.9261 79.5728 78.4133 80.0805 77.7905C80.5883 77.1678 80.9627 76.4481 81.1807 75.6759C81.6205 75.7313 82.0662 75.6364 82.4449 75.4067C82.8235 75.1771 83.1127 74.8263 83.2651 74.4118V64.3423C82.1897 64.3467 81.128 64.1015 80.1642 63.6262C79.2004 63.1509 78.3611 62.4585 77.7128 61.604C77.0645 60.7495 76.625 59.7563 76.4292 58.7032C76.2333 57.6501 76.2866 56.566 76.5846 55.537C80.8097 60.5053 86.9024 61.7487 90.745 57.8836L90.6794 57.8213C90.6439 57.8348 90.6054 57.8463 90.5668 57.8566Z" fill="#A3A2A2"/>
<path id="Vector_90" d="M91.8482 49.3803L93.695 52.2458C94.2835 49.9127 94.2772 47.2754 93.6762 44.3341C92.7497 39.7965 83.693 24.7183 88.8821 24.7473C88.8838 25.2012 89.0529 25.6387 89.3571 25.9767C89.6613 26.3148 90.0796 26.5298 90.5325 26.581C90.9854 26.6322 91.4415 26.516 91.814 26.2545C92.1866 25.9931 92.4499 25.6044 92.5538 25.1625C93.0834 22.7277 92.8703 20.1908 91.9418 17.8775C91.0133 15.5642 89.4117 13.5801 87.3427 12.1797C88.2046 14.5741 86.3704 18.1039 85.8118 22.7857C84.5934 33.0161 92.4787 40.1826 91.8482 49.3803Z" fill="#A3A2A2"/>
<path id="Vector_91" d="M82.4883 37.1465C81.9813 38.2022 81.3682 39.2041 80.6582 40.1366L91.198 56.5433C91.7596 57.2405 92.5122 57.7606 93.3646 58.0406C94.2169 58.3205 95.1325 58.3485 96.0005 58.1209L82.4883 37.1465Z" fill="#A3A2A2"/>
</g>
</svg>
