<svg width="32" height="40" viewBox="0 0 32 40" fill="none" xmlns="http://www.w3.org/2000/svg">
<path d="M20 0L32 12V36C32 37.0609 31.5786 38.0783 30.8284 38.8284C30.0783 39.5786 29.0609 40 28 40H4C2.93913 40 1.92172 39.5786 1.17157 38.8284C0.421427 38.0783 0 37.0609 0 36V4C0 2.93913 0.421427 1.92172 1.17157 1.17157C1.92172 0.421427 2.93913 0 4 0H20ZM28 36V14H18V4H4V36H28ZM13.84 20.62C13.36 19.08 12.3 14.16 15.1 14.08C17.9 14 16.06 20.32 16.06 20.32C16.84 23.3 20.1 25.44 20.1 25.44C21.1 25.14 26.8 24.48 26 27.44C25.14 30.4 19 27.62 19 27.62C15.1 27.9 12.18 28.94 12.18 28.94C9.92 33.16 7.28 35 6.2 33.22C4.86 31 10.46 28.14 10.46 28.14C13.36 23.44 13.8 20.7 13.84 20.62ZM15.14 22.3C14.34 24.9 12.74 27.68 12.74 27.68C14.44 27 18.16 26.22 18.16 26.22C15.88 24.22 15.18 22.32 15.14 22.3ZM21.42 26.64C21.42 26.64 24.92 27.94 25 27.42C25.14 26.88 22.34 26.4 21.42 26.64ZM10.1 29.62C8.56 30.22 7.08 32.78 7.44 32.78C7.8 32.8 9.26 31.58 10.1 29.62ZM15.14 18.52C15.14 18.42 16 15.16 15.14 15.06C14.54 15 15.12 18.44 15.14 18.52Z" fill="#355C8C"/>
</svg>
