<svg width="84" height="84" viewBox="0 0 84 84" fill="none" xmlns="http://www.w3.org/2000/svg">
<g clip-path="url(#clip0_2887_44035)">
<path fill-rule="evenodd" clip-rule="evenodd" d="M42.0021 80.2962C20.8531 80.2962 3.70801 63.1507 3.70801 42.0021C3.70801 20.8531 20.8531 3.70801 42.0021 3.70801C63.1516 3.70801 80.2962 20.8531 80.2962 42.0021C80.2962 63.1507 63.1516 80.2962 42.0021 80.2962Z" fill="white" stroke="white" stroke-width="5.71565"/>
<path fill-rule="evenodd" clip-rule="evenodd" d="M42.0105 47.7836L10.9199 60.6519C17.4707 71.6589 29.3414 78.3752 42.143 78.309C54.9119 78.2759 66.7495 71.492 73.2336 60.4527L42.0105 47.7836ZM36.6251 38.6953L41.5795 5.87598C28.8106 6.04201 17.0397 12.9252 10.6554 23.9981C4.23807 35.0709 4.1714 48.704 10.4563 59.8435L36.6251 38.6953ZM47.2308 39.1307L73.6985 59.6134C79.8505 48.4743 79.7172 34.9406 73.3002 23.9344C70.163 18.5229 65.6781 14.0157 60.2822 10.8516C54.8863 7.6875 48.7631 5.97425 42.5086 5.87859L47.2308 39.1307Z" fill="#355C8C"/>
</g>
<defs>
<clipPath id="clip0_2887_44035">
<rect width="84" height="84" fill="white"/>
</clipPath>
</defs>
</svg>
