<svg width="64" height="64" viewBox="0 0 64 64" fill="none" xmlns="http://www.w3.org/2000/svg">
<path d="M37.3327 5.3335L53.3327 21.3335V53.3335C53.3327 54.748 52.7708 56.1045 51.7706 57.1047C50.7704 58.1049 49.4138 58.6668 47.9993 58.6668H15.9993C14.5849 58.6668 13.2283 58.1049 12.2281 57.1047C11.2279 56.1045 10.666 54.748 10.666 53.3335V10.6668C10.666 9.25234 11.2279 7.89579 12.2281 6.89559C13.2283 5.8954 14.5849 5.3335 15.9993 5.3335H37.3327ZM47.9993 53.3335V24.0002H34.666V10.6668H15.9993V53.3335H47.9993ZM45.3327 34.6668V50.6668H18.666L31.9993 37.3335L37.3327 42.6668L45.3327 34.6668ZM26.666 28.0002C26.666 29.061 26.2446 30.0784 25.4944 30.8286C24.7443 31.5787 23.7269 32.0002 22.666 32.0002C21.6051 32.0002 20.5877 31.5787 19.8376 30.8286C19.0874 30.0784 18.666 29.061 18.666 28.0002C18.666 26.9393 19.0874 25.9219 19.8376 25.1717C20.5877 24.4216 21.6051 24.0002 22.666 24.0002C23.7269 24.0002 24.7443 24.4216 25.4944 25.1717C26.2446 25.9219 26.666 26.9393 26.666 28.0002Z" fill="#474E95"/>
</svg>
