<svg width="64" height="64" viewBox="0 0 64 64" fill="none" xmlns="http://www.w3.org/2000/svg">
<path d="M37.3327 5.3335L53.3327 21.3335V53.3335C53.3327 54.748 52.7708 56.1045 51.7706 57.1047C50.7704 58.1049 49.4138 58.6668 47.9993 58.6668H15.9993C14.5849 58.6668 13.2283 58.1049 12.2281 57.1047C11.2279 56.1045 10.666 54.748 10.666 53.3335V10.6668C10.666 9.25234 11.2279 7.89579 12.2281 6.89559C13.2283 5.8954 14.5849 5.3335 15.9993 5.3335H37.3327ZM47.9993 53.3335V24.0002H34.666V10.6668H15.9993V53.3335H47.9993ZM29.1193 32.8268C28.4793 30.7735 27.066 24.2135 30.7993 24.1068C34.5327 24.0002 32.0793 32.4268 32.0793 32.4268C33.1193 36.4002 37.466 39.2535 37.466 39.2535C38.7993 38.8535 46.3993 37.9735 45.3327 41.9202C44.186 45.8668 35.9993 42.1602 35.9993 42.1602C30.7993 42.5335 26.906 43.9202 26.906 43.9202C23.8927 49.5468 20.3727 52.0002 18.9327 49.6268C17.146 46.6668 24.6127 42.8535 24.6127 42.8535C28.4793 36.5868 29.066 32.9335 29.1193 32.8268ZM30.8527 35.0668C29.786 38.5335 27.6527 42.2402 27.6527 42.2402C29.9193 41.3335 34.8793 40.2935 34.8793 40.2935C31.8393 37.6268 30.906 35.0935 30.8527 35.0668ZM39.226 40.8535C39.226 40.8535 43.8927 42.5868 43.9993 41.8935C44.186 41.1735 40.4527 40.5335 39.226 40.8535ZM24.1327 44.8268C22.0793 45.6268 20.106 49.0402 20.586 49.0402C21.066 49.0668 23.0127 47.4402 24.1327 44.8268ZM30.8527 30.0268C30.8527 29.8935 31.9993 25.5468 30.8527 25.4135C30.0527 25.3335 30.826 29.9202 30.8527 30.0268Z" fill="#D81884"/>
</svg>
