<svg width="64" height="64" viewBox="0 0 64 64" fill="none" xmlns="http://www.w3.org/2000/svg">
<path fill-rule="evenodd" clip-rule="evenodd" d="M10.6673 10.6665H26.6673L32.0007 15.9998H53.334C56.2673 15.9998 58.6673 18.3998 58.6673 21.3332V47.9998C58.6673 50.9332 56.2673 53.3332 53.334 53.3332H10.6673C7.73398 53.3332 5.33398 50.9332 5.33398 47.9998L5.36065 15.9998C5.36065 13.0665 7.73398 10.6665 10.6673 10.6665ZM29.7873 21.3332L24.454 15.9998H10.6673V47.9998H53.334V21.3332H45.9987V26.3333H40.6654V21.3332H29.7873ZM40.6654 31.6667V26.3333H35.332V31.6667H40.6654ZM40.6654 31.6667V37H35.332V45H45.9987V31.6667H40.6654Z" fill="#FEBB30"/>
</svg>
